<?xml version="1.0" encoding="utf-8"?>
<!-- Generator: Adobe Illustrator 21.0.2, SVG Export Plug-In . SVG Version: 6.00 Build 0)  -->
<svg version="1.1" id="Camada_1" xmlns="http://www.w3.org/2000/svg" xmlns:xlink="http://www.w3.org/1999/xlink" x="0px" y="0px"
	 viewBox="0 0 132.1 126.1" style="enable-background:new 0 0 132.1 126.1;" xml:space="preserve">
<style type="text/css">
	.st0{fill:#674CD8;}
	.st1{fill:#FCFCFC;}
	.st2{fill:#FFFFFF;}
	.st3{fill:#674CD8;stroke:#FFFFFF;stroke-width:10;stroke-miterlimit:10;}
	.st4{fill:#393E47;stroke:#FFFFFF;stroke-width:10;stroke-miterlimit:10;}
	.st5{fill:#F3D331;stroke:#FFFFFF;stroke-width:10;stroke-miterlimit:10;}
	.st6{fill:#A5A6AA;stroke:#FFFFFF;stroke-width:10;stroke-miterlimit:10;}
	.st7{fill:#F8F8FC;stroke:#FFFFFF;stroke-width:10;stroke-miterlimit:10;}
	.st8{fill:#282828;}
	.st9{fill:#232328;}
	.st10{fill:#F2F2F2;}
	.st11{fill:#D9D8D7;}
	.st12{fill:#386FF9;}
	.st13{fill:#F7DD43;}
	.st14{opacity:0.65;}
	.st15{opacity:0.15;fill:#FFFFFF;}
</style>
<rect x="-745.3" y="-2161.7" class="st0" width="634.9" height="350"/>
<rect x="-1378.9" y="-1811.9" class="st1" width="1271" height="526"/>
<rect x="-1378.9" y="-2161.9" class="st2" width="634.9" height="350"/>
<circle class="st3" cx="-1189.4" cy="-1527.3" r="81"/>
<circle class="st4" cx="-966.4" cy="-1527.3" r="81"/>
<circle class="st5" cx="-742.4" cy="-1527.3" r="81"/>
<circle class="st6" cx="-519.4" cy="-1527.3" r="81"/>
<circle class="st7" cx="-297.4" cy="-1527.3" r="81"/>
<text transform="matrix(1 0 0 1 -850.479 -1681.5134)" class="st8" style="font-family:'ProductSans-Regular'; font-size:41.9484px;">Base Colors</text>
<text transform="matrix(1 0 0 1 -1252.884 -1381.9506)" style="font-family:'ProximaNova-Regular'; font-size:32.0002px;">#8f73ca</text>
<text transform="matrix(1 0 0 1 -1021.8841 -1381.9506)" style="font-family:'ProximaNova-Regular'; font-size:32.0002px;">#8f73ca</text>
<text transform="matrix(1 0 0 1 -799.884 -1381.9506)" style="font-family:'ProximaNova-Regular'; font-size:32.0002px;">#8f73ca</text>
<text transform="matrix(1 0 0 1 -575.884 -1381.9506)" style="font-family:'ProximaNova-Regular'; font-size:32.0002px;">#8f73ca</text>
<text transform="matrix(1 0 0 1 -349.8841 -1381.9506)" style="font-family:'ProximaNova-Regular'; font-size:32.0002px;">#8f73ca</text>
<g>
	<g>
		<path class="st9" d="M-1169.7-2011.5h3.1l4.4-13.3c1.5,0.4,2.9,1,4.2,1.7c1.3,0.7,2.2,1.5,2.9,2.4c0.7,0.9,1,3.2,1,6.7v2.4h14.9
			c0.5,1.2,0.7,2.4,0.7,3.7c0,1.1-0.2,1.9-0.6,2.2c-0.4,0.4-1.2,0.6-2.4,0.6h-12.7v17.4c0,5.1,0.4,8.5,1.3,10.3
			c0.9,1.8,2.3,2.8,4.3,2.8c2,0.1,4.4-0.6,7.3-2.1c0.9,1.1,1.3,2.5,1.3,3.9c0,2-1.1,3.3-3.2,4c-2.1,0.7-5.4,1-9.8,1
			c-4.9,0-8.3-1-10.4-2.9c-2.1-1.9-3.1-5.7-3.1-11.3v-7.7c0-4.9-0.1-10.1-0.4-15.6h-4.5c-0.5-1.3-0.8-2.5-0.8-3.8
			c0-1,0.2-1.7,0.6-2.1C-1171.3-2011.3-1170.6-2011.5-1169.7-2011.5z"/>
		<path class="st9" d="M-1133.8-2009.3c0-1.1,0.4-1.7,1.2-2.1c0.8-0.3,5.6-0.6,14.6-0.9c0.1,1.2,0.1,2.9,0,5.1
			c3.7-2.2,7.1-3.6,10.1-4.4c3-0.8,5.6-1.1,7.9-1.1c1.1,0,1.8,0.1,2.1,0.4c0.4,0.2,0.5,0.8,0.5,1.7c0,1.6-0.2,3.3-0.7,5
			s-1.1,2.9-1.8,3.4c-0.7,0.5-1.9,0.9-3.4,1.1c-1.6,0.2-2.5,0.3-2.7,0.2c-0.2-0.1-1.1-1.1-2.5-3c-2.2,0-3.8,0.8-5,2.4
			c-1.2,1.6-1.7,5.6-1.7,12.1c0,6,0.1,11.1,0.2,15.4h6.9c0.5,1,0.8,2.1,0.8,3.3c0,1-0.2,1.7-0.6,2.2c-0.4,0.4-1.3,0.6-2.5,0.6h-22.5
			c-0.5-1.2-0.8-2.4-0.8-3.5c0-0.9,0.2-1.6,0.6-2c0.4-0.4,1.1-0.6,2-0.6h3.2c0.1-4.3,0.2-9.3,0.2-15c0-8.2-0.4-13.1-1.2-14.6
			c-0.8-1.5-2.1-2.2-4.1-2.2C-1133.5-2007-1133.8-2008.2-1133.8-2009.3z"/>
		<path class="st9" d="M-1074.5-1973.9h5.2c0.5,1,0.7,2.1,0.7,3.3c0,1-0.2,1.7-0.6,2.2c-0.4,0.4-1.3,0.6-2.5,0.6h-21.2
			c-0.5-1.2-0.7-2.4-0.7-3.5c0-0.9,0.2-1.6,0.6-2c0.4-0.4,1.1-0.6,2-0.6h3.6c0.1-3.8,0.2-7.8,0.2-12c0-6.5-0.1-10.8-0.2-12.9
			c-0.1-2.1-0.3-3.7-0.7-4.7c-0.4-1-0.9-1.6-1.6-1.9c-0.7-0.2-1.8-0.4-3.2-0.4c-0.5-0.8-0.7-1.8-0.7-2.9c0-1.6,0.7-2.7,2-3
			c1.4-0.4,4.1-0.6,8.2-0.6c3.1,0,5.2,0.1,6.4,0.4c1.1,0.2,1.8,0.7,1.9,1.4c0.2,0.7,0.2,1.7,0.2,2.9v21.7
			C-1074.7-1981.7-1074.6-1977.7-1074.5-1973.9z M-1082.5-2018c-2.6,0-4.6-0.5-5.7-1.5c-1.2-1-1.8-2.4-1.8-4.3
			c0-1.9,0.8-3.5,2.2-4.8c1.5-1.2,3.6-1.9,6.4-1.9c2.8,0,4.8,0.5,6,1.6c1.2,1.1,1.8,2.5,1.8,4.2c0,1.9-0.7,3.5-2.1,4.8
			C-1077.2-2018.7-1079.4-2018-1082.5-2018z"/>
		<path class="st9" d="M-1019.9-1994.8c0,10.4,0.1,17.4,0.2,20.9h4.8c0.5,1,0.8,2.1,0.8,3.3c0,1-0.2,1.7-0.6,2.2
			c-0.4,0.4-1.3,0.6-2.5,0.6h-18.3c-0.5-1.2-0.7-2.4-0.7-3.5c0-0.9,0.2-1.6,0.6-2c0.4-0.4,1.1-0.6,2-0.6h1.1
			c0.1-5.1,0.2-10.2,0.2-15.3c0-6-0.6-10-1.7-12.1c-1.1-2-2.9-3.1-5.4-3.1c-1.5,0-2.9,0.6-4.1,1.8c-1.2,1.2-1.8,3.8-1.8,7.7v8.9
			c0,3.7,0.1,7.7,0.2,12h3.2c0.5,1,0.8,2.1,0.8,3.3c0,1-0.2,1.7-0.6,2.2c-0.4,0.4-1.3,0.6-2.5,0.6h-18.7c-0.5-1.2-0.8-2.4-0.8-3.5
			c0-0.9,0.2-1.6,0.6-2c0.4-0.4,1.1-0.6,2-0.6h3.2c0.1-4.9,0.2-9.9,0.2-15c0-8.2-0.4-13.1-1.2-14.6c-0.8-1.5-2.1-2.2-4.1-2.2
			c-0.5-1.2-0.8-2.4-0.8-3.5c0-1.1,0.4-1.7,1.2-2.1c0.8-0.3,5.6-0.6,14.6-0.9c0.1,1.2,0.1,2.9,0,5.1c3.2-2,6.2-3.4,9-4.3
			c2.8-0.8,5.3-1.3,7.3-1.3c2.9,0,5.1,0.4,6.7,1.3c1.6,0.9,2.7,2.1,3.3,3.6c2.6-1.6,5.3-2.8,8.1-3.7c2.7-0.8,5.1-1.2,7.1-1.2
			c3.9,0,6.8,0.9,8.8,2.7c2,1.8,3,5.5,3,11c0,14.5,0.3,22.3,0.8,23.4s1.7,1.7,3.4,1.7c0.4,1.1,0.7,2.2,0.7,3.3c0,1.1-0.3,1.8-1,2.2
			c-0.7,0.4-2,0.6-3.9,0.6c-4.8,0-7.8-0.1-9-0.2c-1.3-0.1-2.1-0.6-2.6-1.4c-0.5-0.8-0.7-2.2-0.7-4.1v-15.6c0-6-0.6-10-1.7-12.1
			c-1.1-2-2.9-3.1-5.4-3.1c-1.5,0-2.9,0.6-4.1,1.8C-1019.3-2001.3-1019.9-1998.7-1019.9-1994.8z"/>
		<path class="st9" d="M-942.3-1987.4c0,5.8,0.2,9.5,0.6,10.9c0.4,1.4,1.5,2,3.2,1.9c0.4,1,0.6,1.9,0.6,2.8c0,1.4-1.1,2.5-3.2,3.3
			c-2.1,0.8-4.1,1.1-5.9,1.1c-1.4,0-2.4-0.2-2.9-0.6c-0.6-0.4-1.4-1.5-2.6-3.2c-2.7,1.4-5.4,2.4-7.9,3.2c-2.5,0.7-5.2,1.1-8,1.1
			c-3.8,0-6.7-1-8.9-3c-2.1-2-3.2-6-3.2-12.1c0-9.1-0.1-14.7-0.2-16.8s-0.3-3.7-0.7-4.7c-0.4-1-0.8-1.6-1.4-1.9
			c-0.6-0.2-1.4-0.4-2.6-0.4c-0.5-0.8-0.8-1.8-0.8-2.9c0-1.4,0.8-2.3,2.5-2.8c1.6-0.5,4.2-0.8,7.8-0.8c2.6,0,4.4,0.2,5.4,0.5
			c1.1,0.3,1.7,0.8,2,1.4c0.2,0.6,0.4,2.7,0.4,6.2v15.7c0,5.7,0.5,9.5,1.6,11.2c1.1,1.8,2.6,2.6,4.6,2.6c1.5,0,2.9-0.3,4.1-1
			s2.1-1.5,2.4-2.6c0.3-1.1,0.5-3,0.5-5.8c0-7.8,0-12.7,0-14.9c0-2.1-0.2-3.7-0.5-4.7c-0.3-1-0.7-1.6-1.1-1.9
			c-0.5-0.2-1.2-0.4-2.4-0.4c-0.5-0.8-0.8-1.8-0.8-2.9c0-1.4,0.8-2.3,2.5-2.8c1.7-0.5,4-0.8,7-0.8c2.6,0,4.4,0.2,5.4,0.5
			c1.1,0.3,1.7,0.8,2,1.6c0.2,0.8,0.4,2.9,0.4,6.5V-1987.4z"/>
		<path class="st9" d="M-931.6-2009.3c0-1.1,0.4-1.7,1.2-2.1c0.8-0.3,5.6-0.6,14.6-0.9c0.1,1.2,0.1,2.9,0,5.1
			c3.7-2.2,7.1-3.6,10.1-4.4c3-0.8,5.6-1.1,7.9-1.1c1.1,0,1.8,0.1,2.1,0.4c0.4,0.2,0.5,0.8,0.5,1.7c0,1.6-0.2,3.3-0.7,5
			c-0.5,1.7-1.1,2.9-1.8,3.4c-0.7,0.5-1.9,0.9-3.4,1.1c-1.6,0.2-2.5,0.3-2.7,0.2c-0.2-0.1-1.1-1.1-2.5-3c-2.2,0-3.8,0.8-5,2.4
			c-1.2,1.6-1.7,5.6-1.7,12.1c0,6,0.1,11.1,0.2,15.4h6.9c0.5,1,0.8,2.1,0.8,3.3c0,1-0.2,1.7-0.6,2.2c-0.4,0.4-1.3,0.6-2.5,0.6h-22.5
			c-0.5-1.2-0.8-2.4-0.8-3.5c0-0.9,0.2-1.6,0.6-2c0.4-0.4,1.1-0.6,2-0.6h3.2c0.1-4.3,0.2-9.3,0.2-15c0-8.2-0.4-13.1-1.2-14.6
			c-0.8-1.5-2.1-2.2-4.1-2.2C-931.3-2007-931.6-2008.2-931.6-2009.3z"/>
		<path class="st9" d="M-888.7-2011.5h3.1l4.4-13.3c1.5,0.4,2.9,1,4.2,1.7c1.3,0.7,2.2,1.5,2.9,2.4c0.7,0.9,1,3.2,1,6.7v2.4h14.9
			c0.5,1.2,0.7,2.4,0.7,3.7c0,1.1-0.2,1.9-0.6,2.2c-0.4,0.4-1.2,0.6-2.4,0.6h-12.7v17.4c0,5.1,0.4,8.5,1.3,10.3
			c0.9,1.8,2.3,2.8,4.3,2.8c2,0.1,4.4-0.6,7.3-2.1c0.9,1.1,1.3,2.5,1.3,3.9c0,2-1.1,3.3-3.2,4c-2.1,0.7-5.4,1-9.8,1
			c-4.9,0-8.3-1-10.4-2.9c-2.1-1.9-3.1-5.7-3.1-11.3v-7.7c0-4.9-0.1-10.1-0.4-15.6h-4.5c-0.5-1.3-0.8-2.5-0.8-3.8
			c0-1,0.2-1.7,0.6-2.1C-890.3-2011.3-889.7-2011.5-888.7-2011.5z"/>
		<path class="st9" d="M-834.6-1973.9h5.2c0.5,1,0.7,2.1,0.7,3.3c0,1-0.2,1.7-0.6,2.2c-0.4,0.4-1.3,0.6-2.5,0.6h-21.2
			c-0.5-1.2-0.7-2.4-0.7-3.5c0-0.9,0.2-1.6,0.6-2c0.4-0.4,1.1-0.6,2-0.6h3.6c0.1-3.8,0.2-7.8,0.2-12c0-6.5-0.1-10.8-0.2-12.9
			c-0.1-2.1-0.3-3.7-0.7-4.7c-0.4-1-0.9-1.6-1.6-1.9c-0.7-0.2-1.8-0.4-3.2-0.4c-0.5-0.8-0.7-1.8-0.7-2.9c0-1.6,0.7-2.7,2-3
			c1.4-0.4,4.1-0.6,8.2-0.6c3.1,0,5.2,0.1,6.4,0.4c1.1,0.2,1.8,0.7,1.9,1.4c0.2,0.7,0.2,1.7,0.2,2.9v21.7
			C-834.8-1981.7-834.7-1977.7-834.6-1973.9z M-842.7-2018c-2.6,0-4.6-0.5-5.7-1.5c-1.2-1-1.8-2.4-1.8-4.3c0-1.9,0.8-3.5,2.2-4.8
			c1.5-1.2,3.6-1.9,6.4-1.9c2.8,0,4.8,0.5,6,1.6c1.2,1.1,1.8,2.5,1.8,4.2c0,1.9-0.7,3.5-2.1,4.8
			C-837.3-2018.7-839.5-2018-842.7-2018z"/>
		<path class="st9" d="M-820.9-1973.9c1.5-2,5.2-7.5,11.3-16.3c-2.6-4-4.6-7-5.9-9c-1.3-2-2.4-3.4-3.2-4.4c-0.8-1-1.5-1.6-2.2-1.9
			c-0.7-0.2-1.7-0.4-2.8-0.4c-0.5-0.8-0.8-1.9-0.8-3.3c0-1.4,0.8-2.3,2.2-2.6c1.5-0.4,4.7-0.6,9.6-0.6c1,0,2.1,0.2,3.5,0.5
			c1.3,0.4,2.3,1,2.9,2.1c0.6,1,1.5,2.8,2.6,5.4c1.2,2.6,2.9,5.8,5.2,9.7c2.6-4.1,4.5-7.5,5.7-10.3h-2c-0.5-1-0.8-2.1-0.8-3.3
			s0.2-2,0.7-2.5c0.5-0.5,1.2-0.8,2.2-0.8h13.3c0.5,1,0.8,2.1,0.8,3.2c0,1.3-0.2,2.2-0.7,2.6c-0.5,0.5-1.4,0.7-2.6,0.7h-0.3
			c-3.6,4.3-7.3,9.5-11.2,15.5c6,9.1,9.4,13.9,10.3,14.6c0.8,0.6,2.1,1,3.8,1c0.4,0.7,0.7,1.6,0.7,2.8c0,1.4-0.5,2.3-1.6,2.6
			c-1.1,0.4-2.8,0.6-5.1,0.6c-4,0-6.5-0.1-7.7-0.2c-1.1-0.2-2-0.7-2.6-1.5c-0.6-0.8-3.6-6-8.9-15.4c-3.1,5.1-5,8.8-5.7,11.1h2.9
			c0.5,1,0.8,2.1,0.8,3.3c0,1-0.2,1.7-0.6,2.2c-0.4,0.4-1.3,0.6-2.5,0.6h-14.5c-0.5-1.2-0.7-2.4-0.7-3.5c0-0.9,0.2-1.6,0.6-2
			c0.4-0.4,1.1-0.6,2-0.6H-820.9z"/>
	</g>
</g>
<g>
	<path class="st0" d="M-1116.7-1933.4v-14.1h4.3c1.9,0,3.4,0.6,4.5,1.7s1.6,2.6,1.6,4.4v1.9c0,1.8-0.6,3.3-1.7,4.4
		c-1.1,1.1-2.7,1.7-4.6,1.7H-1116.7z M-1114.9-1946.1v11.2h2.3c1.5,0,2.6-0.4,3.4-1.3c0.7-0.8,1.1-2,1.1-3.4v-1.9
		c0-1.4-0.4-2.6-1.1-3.4c-0.7-0.8-1.8-1.2-3.2-1.2H-1114.9z"/>
	<path class="st0" d="M-1094.9-1940h-6.5v5.1h7.5v1.4h-9.3v-14.1h9.2v1.5h-7.4v4.6h6.5V-1940z"/>
	<path class="st0" d="M-1087.4-1936.8l0.3,1.1h0l0.3-1.1l3.7-10.7h1.9l-5.2,14.1h-1.6l-5.2-14.1h1.9L-1087.4-1936.8z"/>
	<path class="st0" d="M-1070.6-1940h-6.5v5.1h7.5v1.4h-9.3v-14.1h9.2v1.5h-7.4v4.6h6.5V-1940z"/>
	<path class="st0" d="M-1065.5-1934.8h6.7v1.4h-8.5v-14.1h1.8V-1934.8z"/>
	<path class="st0" d="M-1046.3-1939.2c0,1.7-0.5,3.2-1.6,4.3c-1.1,1.1-2.4,1.7-4.2,1.7c-1.7,0-3-0.6-4-1.7c-1-1.1-1.5-2.6-1.5-4.3
		v-2.5c0-1.7,0.5-3.2,1.5-4.3c1-1.1,2.4-1.7,4-1.7c1.7,0,3.1,0.6,4.2,1.7s1.6,2.6,1.6,4.3V-1939.2z M-1048.1-1941.7
		c0-1.3-0.4-2.4-1.1-3.2c-0.7-0.8-1.7-1.3-2.9-1.3c-1.2,0-2.1,0.4-2.7,1.3c-0.7,0.8-1,1.9-1,3.2v2.5c0,1.3,0.3,2.4,1,3.2
		c0.7,0.8,1.6,1.3,2.7,1.3c1.2,0,2.2-0.4,2.9-1.3s1.1-1.9,1.1-3.2V-1941.7z"/>
	<path class="st0" d="M-1041.5-1939.1v5.7h-1.8v-14.1h5.3c1.5,0,2.7,0.4,3.5,1.1c0.8,0.8,1.2,1.8,1.2,3.1c0,1.3-0.4,2.3-1.2,3.1
		c-0.8,0.8-2,1.1-3.5,1.1H-1041.5z M-1041.5-1940.5h3.5c1,0,1.8-0.3,2.2-0.8c0.5-0.5,0.7-1.2,0.7-2c0-0.8-0.2-1.5-0.7-2
		c-0.5-0.5-1.2-0.8-2.2-0.8h-3.5V-1940.5z"/>
	<path class="st0" d="M-1022.3-1940h-6.5v5.1h7.5v1.4h-9.3v-14.1h9.2v1.5h-7.4v4.6h6.5V-1940z"/>
	<path class="st0" d="M-1017.2-1939.5v6.1h-1.8v-14.1h5.1c1.6,0,2.8,0.3,3.6,1s1.2,1.7,1.2,3c0,0.7-0.2,1.4-0.6,1.9
		c-0.4,0.5-1,1-1.7,1.3c0.8,0.3,1.4,0.7,1.7,1.2c0.3,0.6,0.5,1.3,0.5,2.1v1.3c0,0.5,0,0.8,0.1,1.2s0.3,0.6,0.5,0.8v0.2h-1.9
		c-0.3-0.2-0.4-0.6-0.5-1s-0.1-0.9-0.1-1.3v-1.3c0-0.8-0.2-1.4-0.7-1.9c-0.5-0.5-1.1-0.7-1.9-0.7H-1017.2z M-1017.2-1941h3.1
		c1.1,0,1.9-0.2,2.4-0.6s0.7-1.1,0.7-1.9c0-0.8-0.2-1.4-0.7-1.9c-0.5-0.4-1.2-0.7-2.2-0.7h-3.3V-1941z"/>
	<path class="st0" d="M-991.4-1946.1h-4.5v12.7h-1.8v-12.7h-4.5v-1.5h10.7V-1946.1z"/>
	<path class="st0" d="M-978.6-1939.2c0,1.7-0.5,3.2-1.6,4.3c-1.1,1.1-2.4,1.7-4.2,1.7c-1.7,0-3-0.6-4-1.7c-1-1.1-1.5-2.6-1.5-4.3
		v-2.5c0-1.7,0.5-3.2,1.5-4.3s2.4-1.7,4-1.7c1.7,0,3.1,0.6,4.2,1.7s1.6,2.6,1.6,4.3V-1939.2z M-980.4-1941.7c0-1.3-0.4-2.4-1.1-3.2
		c-0.7-0.8-1.7-1.3-2.9-1.3c-1.2,0-2.1,0.4-2.7,1.3c-0.7,0.8-1,1.9-1,3.2v2.5c0,1.3,0.3,2.4,1,3.2c0.7,0.8,1.6,1.3,2.7,1.3
		c1.2,0,2.2-0.4,2.9-1.3s1.1-1.9,1.1-3.2V-1941.7z"/>
	<path class="st0" d="M-964.8-1939.2c0,1.7-0.5,3.2-1.6,4.3c-1.1,1.1-2.4,1.7-4.2,1.7c-1.7,0-3-0.6-4-1.7c-1-1.1-1.5-2.6-1.5-4.3
		v-2.5c0-1.7,0.5-3.2,1.5-4.3c1-1.1,2.4-1.7,4-1.7c1.7,0,3.1,0.6,4.2,1.7c1.1,1.1,1.6,2.6,1.6,4.3V-1939.2z M-966.6-1941.7
		c0-1.3-0.4-2.4-1.1-3.2c-0.7-0.8-1.7-1.3-2.9-1.3c-1.2,0-2.1,0.4-2.7,1.3c-0.7,0.8-1,1.9-1,3.2v2.5c0,1.3,0.3,2.4,1,3.2
		c0.7,0.8,1.6,1.3,2.7,1.3c1.2,0,2.2-0.4,2.9-1.3s1.1-1.9,1.1-3.2V-1941.7z"/>
	<path class="st0" d="M-960-1934.8h6.7v1.4h-8.5v-14.1h1.8V-1934.8z"/>
	<path class="st0" d="M-943.2-1936.9c0-0.7-0.2-1.2-0.7-1.7c-0.5-0.4-1.4-0.8-2.7-1.1c-1.5-0.4-2.7-0.9-3.5-1.6
		c-0.8-0.7-1.2-1.5-1.2-2.6c0-1.1,0.4-2,1.3-2.8s2.1-1.1,3.5-1.1c1.6,0,2.8,0.4,3.7,1.3c0.9,0.8,1.4,1.8,1.4,3h-1.8
		c0-0.9-0.3-1.5-0.8-2s-1.4-0.8-2.4-0.8c-1,0-1.8,0.2-2.3,0.6c-0.5,0.4-0.8,1-0.8,1.7c0,0.6,0.3,1.2,0.8,1.6s1.5,0.8,2.8,1.1
		c1.5,0.4,2.7,0.9,3.4,1.6c0.8,0.7,1.1,1.6,1.1,2.7c0,1.2-0.5,2.1-1.4,2.8c-0.9,0.7-2.1,1-3.7,1c-1.4,0-2.7-0.4-3.8-1.1
		c-1.1-0.7-1.6-1.8-1.6-3.1h1.8c0,0.9,0.3,1.6,1,2.1c0.7,0.5,1.5,0.7,2.6,0.7c1,0,1.8-0.2,2.4-0.6
		C-943.5-1935.7-943.2-1936.2-943.2-1936.9z"/>
	<path class="st0" d="M-932.1-1939.1v5.7h-1.8v-14.1h5.3c1.5,0,2.7,0.4,3.5,1.1c0.8,0.8,1.2,1.8,1.2,3.1c0,1.3-0.4,2.3-1.2,3.1
		s-2,1.1-3.5,1.1H-932.1z M-932.1-1940.5h3.5c1,0,1.8-0.3,2.2-0.8c0.5-0.5,0.7-1.2,0.7-2c0-0.8-0.2-1.5-0.7-2
		c-0.5-0.5-1.2-0.8-2.2-0.8h-3.5V-1940.5z"/>
	<path class="st0" d="M-919.4-1934.8h6.7v1.4h-8.5v-14.1h1.8V-1934.8z"/>
	<path class="st0" d="M-902.4-1937.2h-5.9l-1.4,3.8h-1.8l5.4-14.1h1.6l5.4,14.1h-1.8L-902.4-1937.2z M-907.8-1938.6h4.9l-2.4-6.7
		L-907.8-1938.6z"/>
	<path class="st0" d="M-888.8-1946.1h-4.5v12.7h-1.8v-12.7h-4.5v-1.5h10.7V-1946.1z"/>
	<path class="st0" d="M-878.1-1939.7h-6.5v6.3h-1.8v-14.1h9.3v1.5h-7.5v4.9h6.5V-1939.7z"/>
	<path class="st0" d="M-864.1-1939.2c0,1.7-0.5,3.2-1.6,4.3c-1.1,1.1-2.4,1.7-4.2,1.7c-1.7,0-3-0.6-4-1.7c-1-1.1-1.5-2.6-1.5-4.3
		v-2.5c0-1.7,0.5-3.2,1.5-4.3s2.4-1.7,4-1.7c1.7,0,3.1,0.6,4.2,1.7c1.1,1.1,1.6,2.6,1.6,4.3V-1939.2z M-865.9-1941.7
		c0-1.3-0.4-2.4-1.1-3.2c-0.7-0.8-1.7-1.3-2.9-1.3c-1.2,0-2.1,0.4-2.7,1.3c-0.7,0.8-1,1.9-1,3.2v2.5c0,1.3,0.3,2.4,1,3.2
		c0.7,0.8,1.6,1.3,2.7,1.3c1.2,0,2.2-0.4,2.9-1.3s1.1-1.9,1.1-3.2V-1941.7z"/>
	<path class="st0" d="M-859.3-1939.5v6.1h-1.8v-14.1h5.1c1.6,0,2.8,0.3,3.6,1s1.2,1.7,1.2,3c0,0.7-0.2,1.4-0.6,1.9
		c-0.4,0.5-1,1-1.7,1.3c0.8,0.3,1.4,0.7,1.7,1.2s0.5,1.3,0.5,2.1v1.3c0,0.5,0,0.8,0.1,1.2s0.3,0.6,0.5,0.8v0.2h-1.9
		c-0.3-0.2-0.4-0.6-0.5-1s-0.1-0.9-0.1-1.3v-1.3c0-0.8-0.2-1.4-0.7-1.9c-0.5-0.5-1.1-0.7-1.9-0.7H-859.3z M-859.3-1941h3.1
		c1.1,0,1.9-0.2,2.4-0.6s0.7-1.1,0.7-1.9c0-0.8-0.2-1.4-0.7-1.9c-0.5-0.4-1.2-0.7-2.2-0.7h-3.3V-1941z"/>
	<path class="st0" d="M-845.6-1947.5l4.6,11.6l4.6-11.6h2.3v14.1h-1.8v-5.7l0.2-5.9h0l-4.7,11.6h-1.2l-4.7-11.6h0l0.2,5.9v5.7h-1.8
		v-14.1H-845.6z"/>
</g>
<g>
	<circle class="st0" cx="-1268.7" cy="-1986.9" r="75.7"/>
	<g>
		<polygon class="st2" points="-1268.6,-1941.3 -1291.1,-1954.3 -1291.1,-1980.3 -1268.6,-1967.3 		"/>
		<polygon class="st10" points="-1268.6,-1993.3 -1291.1,-1980.3 -1268.6,-1967.3 -1246.1,-1980.3 		"/>
		<polygon class="st11" points="-1268.6,-1941.3 -1246.1,-1954.3 -1246.1,-1980.3 -1268.6,-1967.3 		"/>
		<polygon class="st12" points="-1246.1,-1980.3 -1268.6,-1993.3 -1268.6,-2019.3 -1246.1,-2006.3 		"/>
		<polygon class="st10" points="-1246.1,-2032.3 -1268.6,-2019.3 -1246.1,-2006.3 -1223.6,-2019.3 		"/>
		<polygon class="st13" points="-1246.1,-1980.3 -1223.6,-1993.3 -1223.6,-2019.3 -1246.1,-2006.3 		"/>
		<g>
			<path class="st10" d="M-1291.1-1980c-0.1,0-0.1,0-0.2,0l-22.5-13c-0.1-0.1-0.2-0.2-0.2-0.3v-26c0-0.1,0.1-0.2,0.2-0.3
				c0.1-0.1,0.2-0.1,0.3,0l22.5,13c0.1,0.1,0.2,0.2,0.2,0.3v26c0,0.1-0.1,0.2-0.2,0.3C-1291-1980-1291.1-1980-1291.1-1980z
				 M-1313.3-1993.4l21.9,12.7v-25.3l-21.9-12.7V-1993.4z"/>
			<path class="st10" d="M-1291.1-2006c-0.1,0-0.1,0-0.2,0l-22.5-13c-0.1-0.1-0.2-0.2-0.2-0.3c0-0.1,0.1-0.2,0.2-0.3l22.5-13
				c0.1-0.1,0.2-0.1,0.3,0l22.5,13c0.1,0.1,0.2,0.2,0.2,0.3c0,0.1-0.1,0.2-0.2,0.3l-22.5,13C-1291-2006-1291.1-2006-1291.1-2006z
				 M-1313-2019.3l21.9,12.7l21.9-12.7l-21.9-12.7L-1313-2019.3z"/>
			<path class="st10" d="M-1268.6-1993c-0.1,0-0.1,0-0.2,0l-1.6-0.9c-0.1-0.1-0.2-0.3-0.1-0.4c0.1-0.1,0.3-0.2,0.4-0.1l1.6,0.9
				c0.1,0.1,0.2,0.3,0.1,0.4C-1268.4-1993-1268.5-1993-1268.6-1993z"/>
			<path class="st10" d="M-1272.9-1995.5c-0.1,0-0.1,0-0.2,0l-2.8-1.6c-0.1-0.1-0.2-0.3-0.1-0.4c0.1-0.1,0.3-0.2,0.4-0.1l2.8,1.6
				c0.1,0.1,0.2,0.3,0.1,0.4C-1272.7-1995.5-1272.8-1995.5-1272.9-1995.5z M-1278.5-1998.7c-0.1,0-0.1,0-0.2,0l-2.8-1.6
				c-0.1-0.1-0.2-0.3-0.1-0.4s0.3-0.2,0.4-0.1l2.8,1.6c0.1,0.1,0.2,0.3,0.1,0.4C-1278.3-1998.7-1278.4-1998.7-1278.5-1998.7z
				 M-1284-2001.9c-0.1,0-0.1,0-0.2,0l-2.8-1.6c-0.1-0.1-0.2-0.3-0.1-0.4c0.1-0.1,0.3-0.2,0.4-0.1l2.8,1.6c0.1,0.1,0.2,0.3,0.1,0.4
				C-1283.8-2001.9-1283.9-2001.9-1284-2001.9z"/>
			<path class="st10" d="M-1289.5-2005.1c-0.1,0-0.1,0-0.2,0l-1.4-0.8l-1.4,0.8c-0.1,0.1-0.3,0-0.4-0.1c-0.1-0.1,0-0.3,0.1-0.4
				l1.6-0.9c0.1-0.1,0.2-0.1,0.3,0l1.6,0.9c0.1,0.1,0.2,0.3,0.1,0.4C-1289.3-2005.1-1289.4-2005.1-1289.5-2005.1z"/>
			<path class="st10" d="M-1309.3-1995.5c-0.1,0-0.2-0.1-0.3-0.2c-0.1-0.1,0-0.3,0.1-0.4l2.8-1.6c0.1-0.1,0.3,0,0.4,0.1
				c0.1,0.1,0,0.3-0.1,0.4l-2.8,1.6C-1309.2-1995.5-1309.2-1995.5-1309.3-1995.5z M-1303.8-1998.7c-0.1,0-0.2-0.1-0.3-0.2
				c-0.1-0.1,0-0.3,0.1-0.4l2.8-1.6c0.1-0.1,0.3,0,0.4,0.1c0.1,0.1,0,0.3-0.1,0.4l-2.8,1.6
				C-1303.7-1998.7-1303.7-1998.7-1303.8-1998.7z M-1298.2-2001.9c-0.1,0-0.2-0.1-0.3-0.2c-0.1-0.1,0-0.3,0.1-0.4l2.8-1.6
				c0.1-0.1,0.3,0,0.4,0.1c0.1,0.1,0,0.3-0.1,0.4l-2.8,1.6C-1298.1-2001.9-1298.2-2001.9-1298.2-2001.9z"/>
			<path class="st10" d="M-1313.6-1993c-0.1,0-0.2-0.1-0.3-0.2c-0.1-0.1,0-0.3,0.1-0.4l1.6-0.9c0.1-0.1,0.3,0,0.4,0.1
				c0.1,0.1,0,0.3-0.1,0.4l-1.6,0.9C-1313.5-1993-1313.6-1993-1313.6-1993z"/>
			<path class="st10" d="M-1291.1-1980c-0.1,0-0.1,0-0.2,0c-0.1-0.1-0.2-0.2-0.2-0.3v-26c0-0.1,0.1-0.2,0.2-0.3l22.5-13
				c0.1-0.1,0.2-0.1,0.3,0c0.1,0.1,0.2,0.2,0.2,0.3v26c0,0.1-0.1,0.2-0.2,0.3l-22.5,13C-1291-1980-1291.1-1980-1291.1-1980z
				 M-1290.8-2006.1v25.3l21.9-12.7v-25.3L-1290.8-2006.1z"/>
			<path class="st10" d="M-1291.1-2030.2c-0.2,0-0.3-0.1-0.3-0.3v-1.8c0-0.2,0.1-0.3,0.3-0.3c0.2,0,0.3,0.1,0.3,0.3v1.8
				C-1290.8-2030.3-1290.9-2030.2-1291.1-2030.2z"/>
			<path class="st10" d="M-1291.1-2011L-1291.1-2011c-0.2,0-0.3-0.1-0.3-0.3v-3.2c0-0.2,0.1-0.3,0.3-0.3l0,0c0.2,0,0.3,0.1,0.3,0.3
				v3.2C-1290.8-2011.1-1290.9-2011-1291.1-2011z M-1291.1-2017.4c-0.2,0-0.3-0.1-0.3-0.3v-3.2c0-0.2,0.1-0.3,0.3-0.3
				c0.2,0,0.3,0.1,0.3,0.3v3.2C-1290.8-2017.5-1290.9-2017.4-1291.1-2017.4z M-1291.1-2023.8c-0.2,0-0.3-0.1-0.3-0.3v-3.2
				c0-0.2,0.1-0.3,0.3-0.3c0.2,0,0.3,0.1,0.3,0.3v3.2C-1290.8-2023.9-1290.9-2023.8-1291.1-2023.8z"/>
			<path class="st10" d="M-1291.1-2006c-0.2,0-0.3-0.1-0.3-0.3v-1.8c0-0.2,0.1-0.3,0.3-0.3c0.2,0,0.3,0.1,0.3,0.3v1.8
				C-1290.8-2006.1-1290.9-2006-1291.1-2006z"/>
		</g>
	</g>
</g>
<g>
	<g>
		<g>
			<g>
				<path class="st2" d="M-536.3-2024.7h3.1l4.4-13.4c1.5,0.4,2.9,1,4.2,1.7c1.3,0.7,2.3,1.5,2.9,2.5c0.7,0.9,1,3.2,1,6.8v2.4h15.1
					c0.5,1.2,0.8,2.5,0.8,3.8c0,1.1-0.2,1.9-0.6,2.3c-0.4,0.4-1.2,0.6-2.4,0.6h-12.8v17.6c0,5.1,0.4,8.6,1.3,10.4
					c0.9,1.8,2.3,2.8,4.3,2.9c2,0.1,4.5-0.6,7.3-2.1c0.9,1.2,1.3,2.5,1.3,4c0,2-1.1,3.4-3.2,4.1c-2.1,0.7-5.4,1-9.9,1
					c-4.9,0-8.4-1-10.5-2.9c-2.1-2-3.1-5.8-3.1-11.4v-7.8c0-4.9-0.1-10.2-0.4-15.8h-4.5c-0.5-1.3-0.8-2.6-0.8-3.9
					c0-1,0.2-1.7,0.6-2.1S-537.2-2024.7-536.3-2024.7z"/>
				<path class="st2" d="M-500-2022.5c0-1.1,0.4-1.8,1.2-2.1c0.8-0.3,5.7-0.6,14.7-0.9c0.1,1.2,0.1,3,0,5.2
					c3.7-2.2,7.1-3.7,10.2-4.5c3-0.8,5.7-1.2,8-1.2c1.1,0,1.8,0.1,2.1,0.4c0.4,0.3,0.5,0.8,0.5,1.8c0,1.6-0.2,3.3-0.7,5.1
					s-1.1,2.9-1.8,3.4c-0.7,0.5-1.9,0.9-3.5,1.1c-1.6,0.2-2.5,0.3-2.7,0.2c-0.3-0.1-1.1-1.1-2.5-3c-2.2,0-3.9,0.8-5.1,2.4
					c-1.2,1.6-1.8,5.7-1.8,12.3c0,6,0.1,11.2,0.2,15.6h7c0.5,1,0.8,2.1,0.8,3.3c0,1-0.2,1.8-0.6,2.2c-0.4,0.4-1.3,0.6-2.5,0.6h-22.7
					c-0.5-1.2-0.8-2.4-0.8-3.5c0-0.9,0.2-1.6,0.6-2c0.4-0.4,1.1-0.6,2-0.6h3.3c0.1-4.4,0.2-9.4,0.2-15.2c0-8.3-0.4-13.2-1.2-14.8
					c-0.8-1.5-2.2-2.3-4.1-2.3C-499.7-2020.1-500-2021.3-500-2022.5z"/>
				<path class="st2" d="M-440-1986.7h5.3c0.5,1,0.8,2.1,0.8,3.3c0,1-0.2,1.8-0.6,2.2s-1.3,0.6-2.5,0.6h-21.4
					c-0.5-1.2-0.8-2.4-0.8-3.5c0-0.9,0.2-1.6,0.6-2c0.4-0.4,1.1-0.6,2-0.6h3.7c0.1-3.8,0.2-7.9,0.2-12.2c0-6.6-0.1-10.9-0.2-13.1
					c-0.1-2.2-0.3-3.7-0.7-4.7c-0.4-1-0.9-1.6-1.7-1.9c-0.7-0.3-1.8-0.4-3.3-0.4c-0.5-0.8-0.8-1.8-0.8-2.9c0-1.7,0.7-2.7,2.1-3.1
					c1.4-0.4,4.1-0.6,8.3-0.6c3.2,0,5.3,0.1,6.4,0.4c1.1,0.2,1.8,0.7,2,1.4c0.2,0.7,0.2,1.7,0.2,2.9v21.9
					C-440.2-1994.6-440.1-1990.5-440-1986.7z M-448.1-2031.3c-2.7,0-4.6-0.5-5.8-1.5c-1.2-1-1.8-2.5-1.8-4.3c0-2,0.8-3.6,2.3-4.8
					c1.5-1.3,3.7-1.9,6.5-1.9c2.9,0,4.9,0.5,6.1,1.6c1.2,1.1,1.8,2.5,1.8,4.3c0,1.9-0.7,3.5-2.1,4.8
					C-442.7-2032-445-2031.3-448.1-2031.3z"/>
				<path class="st2" d="M-384.8-2007.9c0,10.6,0.1,17.6,0.2,21.1h4.9c0.5,1,0.8,2.1,0.8,3.3c0,1-0.2,1.8-0.6,2.2
					c-0.4,0.4-1.3,0.6-2.5,0.6h-18.5c-0.5-1.2-0.8-2.4-0.8-3.5c0-0.9,0.2-1.6,0.6-2c0.4-0.4,1.1-0.6,2-0.6h1.1
					c0.1-5.2,0.2-10.3,0.2-15.4c0-6.1-0.6-10.1-1.7-12.2s-2.9-3.1-5.4-3.1c-1.5,0-2.9,0.6-4.1,1.9c-1.2,1.2-1.8,3.8-1.8,7.7v9
					c0,3.7,0.1,7.8,0.2,12.2h3.2c0.5,1,0.8,2.1,0.8,3.3c0,1-0.2,1.8-0.6,2.2c-0.4,0.4-1.3,0.6-2.5,0.6h-18.9
					c-0.5-1.2-0.8-2.4-0.8-3.5c0-0.9,0.2-1.6,0.6-2c0.4-0.4,1.1-0.6,2-0.6h3.3c0.1-4.9,0.2-10,0.2-15.2c0-8.3-0.4-13.2-1.2-14.8
					c-0.8-1.5-2.2-2.3-4.1-2.3c-0.5-1.2-0.8-2.4-0.8-3.6c0-1.1,0.4-1.8,1.2-2.1c0.8-0.3,5.7-0.6,14.7-0.9c0.1,1.2,0.1,3,0,5.1
					c3.2-2,6.3-3.5,9.1-4.3c2.8-0.8,5.3-1.3,7.4-1.3c2.9,0,5.2,0.5,6.8,1.4c1.6,0.9,2.7,2.1,3.3,3.6c2.7-1.6,5.4-2.9,8.2-3.7
					c2.8-0.8,5.2-1.2,7.2-1.2c3.9,0,6.9,0.9,8.9,2.8c2,1.8,3.1,5.6,3.1,11.1c0,14.6,0.3,22.5,0.8,23.7c0.5,1.1,1.7,1.7,3.5,1.7
					c0.4,1.1,0.7,2.2,0.7,3.3c0,1.1-0.3,1.8-1,2.2c-0.7,0.4-2,0.6-4,0.6c-4.8,0-7.9-0.1-9.1-0.2c-1.3-0.1-2.2-0.6-2.6-1.4
					c-0.5-0.8-0.7-2.2-0.7-4.1v-15.7c0-6.1-0.6-10.1-1.7-12.2s-2.9-3.1-5.4-3.1c-1.5,0-2.9,0.6-4.1,1.9
					C-384.2-2014.4-384.8-2011.8-384.8-2007.9z"/>
				<path class="st2" d="M-306.3-2000.3c0,5.9,0.2,9.6,0.6,11c0.4,1.4,1.5,2,3.3,1.9c0.4,1,0.6,1.9,0.6,2.8c0,1.5-1.1,2.6-3.3,3.3
					c-2.2,0.8-4.2,1.1-6,1.1c-1.4,0-2.4-0.2-2.9-0.6c-0.6-0.4-1.4-1.5-2.6-3.2c-2.8,1.4-5.4,2.5-8,3.2c-2.5,0.7-5.3,1.1-8.1,1.1
					c-3.8,0-6.8-1-9-3c-2.2-2-3.3-6.1-3.3-12.2c0-9.2-0.1-14.9-0.2-17s-0.3-3.7-0.7-4.7c-0.4-1-0.8-1.6-1.4-1.9
					c-0.6-0.3-1.5-0.4-2.6-0.4c-0.5-0.8-0.8-1.8-0.8-2.9c0-1.4,0.8-2.3,2.5-2.9c1.7-0.5,4.3-0.8,7.9-0.8c2.6,0,4.4,0.2,5.5,0.5
					c1.1,0.3,1.7,0.8,2,1.4c0.3,0.6,0.4,2.7,0.4,6.3v15.9c0,5.8,0.6,9.6,1.7,11.4c1.1,1.8,2.7,2.7,4.7,2.7c1.5,0,2.9-0.3,4.2-1
					c1.3-0.7,2.1-1.5,2.4-2.6c0.3-1.1,0.5-3,0.5-5.9c0-7.9,0-12.9,0-15c0-2.1-0.2-3.7-0.5-4.7c-0.3-1-0.7-1.6-1.1-1.9
					c-0.5-0.3-1.3-0.4-2.4-0.4c-0.5-0.8-0.8-1.8-0.8-2.9c0-1.4,0.8-2.3,2.5-2.9c1.7-0.5,4-0.8,7.1-0.8c2.6,0,4.4,0.2,5.5,0.5
					c1.1,0.3,1.7,0.8,2,1.6c0.3,0.8,0.4,2.9,0.4,6.5V-2000.3z"/>
				<path class="st2" d="M-295.4-2022.5c0-1.1,0.4-1.8,1.2-2.1c0.8-0.3,5.7-0.6,14.7-0.9c0.1,1.2,0.1,3,0,5.2
					c3.7-2.2,7.1-3.7,10.2-4.5c3-0.8,5.7-1.2,8-1.2c1.1,0,1.8,0.1,2.1,0.4c0.4,0.3,0.5,0.8,0.5,1.8c0,1.6-0.2,3.3-0.7,5.1
					s-1.1,2.9-1.8,3.4c-0.7,0.5-1.9,0.9-3.5,1.1c-1.6,0.2-2.5,0.3-2.7,0.2c-0.3-0.1-1.1-1.1-2.5-3c-2.2,0-3.9,0.8-5.1,2.4
					c-1.2,1.6-1.8,5.7-1.8,12.3c0,6,0.1,11.2,0.2,15.6h7c0.5,1,0.8,2.1,0.8,3.3c0,1-0.2,1.8-0.6,2.2c-0.4,0.4-1.3,0.6-2.5,0.6h-22.7
					c-0.5-1.2-0.8-2.4-0.8-3.5c0-0.9,0.2-1.6,0.6-2c0.4-0.4,1.1-0.6,2-0.6h3.3c0.1-4.4,0.2-9.4,0.2-15.2c0-8.3-0.4-13.2-1.2-14.8
					c-0.8-1.5-2.2-2.3-4.1-2.3C-295.2-2020.1-295.4-2021.3-295.4-2022.5z"/>
				<path class="st2" d="M-252.1-2024.7h3.1l4.4-13.4c1.5,0.4,2.9,1,4.2,1.7c1.3,0.7,2.3,1.5,2.9,2.5c0.7,0.9,1,3.2,1,6.8v2.4h15.1
					c0.5,1.2,0.8,2.5,0.8,3.8c0,1.1-0.2,1.9-0.6,2.3c-0.4,0.4-1.2,0.6-2.4,0.6h-12.8v17.6c0,5.1,0.4,8.6,1.3,10.4
					c0.9,1.8,2.3,2.8,4.3,2.9c2,0.1,4.5-0.6,7.3-2.1c0.9,1.2,1.3,2.5,1.3,4c0,2-1.1,3.4-3.2,4.1c-2.1,0.7-5.4,1-9.9,1
					c-4.9,0-8.4-1-10.5-2.9c-2.1-2-3.1-5.8-3.1-11.4v-7.8c0-4.9-0.1-10.2-0.4-15.8h-4.5c-0.5-1.3-0.8-2.6-0.8-3.9
					c0-1,0.2-1.7,0.6-2.1S-253.1-2024.7-252.1-2024.7z"/>
				<path class="st2" d="M-197.4-1986.7h5.3c0.5,1,0.8,2.1,0.8,3.3c0,1-0.2,1.8-0.6,2.2s-1.3,0.6-2.5,0.6h-21.4
					c-0.5-1.2-0.8-2.4-0.8-3.5c0-0.9,0.2-1.6,0.6-2c0.4-0.4,1.1-0.6,2-0.6h3.7c0.1-3.8,0.2-7.9,0.2-12.2c0-6.6-0.1-10.9-0.2-13.1
					c-0.1-2.2-0.3-3.7-0.7-4.7c-0.4-1-0.9-1.6-1.7-1.9c-0.7-0.3-1.8-0.4-3.3-0.4c-0.5-0.8-0.8-1.8-0.8-2.9c0-1.7,0.7-2.7,2.1-3.1
					c1.4-0.4,4.1-0.6,8.3-0.6c3.2,0,5.3,0.1,6.4,0.4c1.1,0.2,1.8,0.7,2,1.4c0.2,0.7,0.2,1.7,0.2,2.9v21.9
					C-197.6-1994.6-197.5-1990.5-197.4-1986.7z M-205.5-2031.3c-2.7,0-4.6-0.5-5.8-1.5c-1.2-1-1.8-2.5-1.8-4.3c0-2,0.8-3.6,2.3-4.8
					c1.5-1.3,3.7-1.9,6.5-1.9c2.9,0,4.9,0.5,6.1,1.6c1.2,1.1,1.8,2.5,1.8,4.3c0,1.9-0.7,3.5-2.1,4.8
					C-200.1-2032-202.4-2031.3-205.5-2031.3z"/>
				<path class="st2" d="M-183.5-1986.7c1.5-2.1,5.3-7.5,11.5-16.5c-2.6-4-4.6-7.1-6-9.1c-1.4-2-2.4-3.5-3.2-4.5
					c-0.8-1-1.5-1.6-2.3-1.9c-0.7-0.3-1.7-0.4-2.8-0.4c-0.5-0.8-0.8-1.9-0.8-3.3c0-1.4,0.8-2.3,2.3-2.7c1.5-0.4,4.8-0.6,9.7-0.6
					c1,0,2.1,0.2,3.5,0.5c1.4,0.4,2.3,1,2.9,2.1c0.6,1,1.5,2.8,2.7,5.5c1.2,2.6,3,5.9,5.3,9.8c2.6-4.1,4.5-7.6,5.8-10.4h-2.1
					c-0.5-1-0.8-2.1-0.8-3.3c0-1.2,0.2-2,0.7-2.5c0.5-0.5,1.2-0.8,2.3-0.8h13.5c0.5,1,0.8,2.1,0.8,3.2c0,1.3-0.3,2.2-0.8,2.7
					c-0.5,0.5-1.4,0.7-2.7,0.7h-0.3c-3.6,4.4-7.4,9.6-11.4,15.7c6.1,9.2,9.6,14.1,10.4,14.8c0.8,0.7,2.1,1,3.8,1
					c0.4,0.7,0.7,1.6,0.7,2.9c0,1.4-0.6,2.3-1.7,2.7c-1.1,0.4-2.8,0.6-5.2,0.6c-4,0-6.6-0.1-7.7-0.2c-1.1-0.2-2-0.7-2.7-1.5
					c-0.6-0.8-3.6-6-9-15.6c-3.2,5.1-5.1,8.9-5.8,11.2h2.9c0.5,1,0.8,2.1,0.8,3.3c0,1-0.2,1.8-0.6,2.2c-0.4,0.4-1.3,0.6-2.5,0.6
					h-14.6c-0.5-1.2-0.8-2.4-0.8-3.5c0-0.9,0.2-1.6,0.6-2c0.4-0.4,1.1-0.6,2-0.6H-183.5z"/>
			</g>
		</g>
		<g class="st14">
			<path class="st2" d="M-492.5-1939.7v-15.3h4.6c2,0,3.6,0.6,4.8,1.8c1.2,1.2,1.8,2.8,1.8,4.8v2.1c0,2-0.6,3.6-1.8,4.8
				c-1.2,1.2-2.9,1.8-5,1.8H-492.5z M-490.6-1953.4v12.1h2.5c1.6,0,2.8-0.5,3.6-1.4c0.8-0.9,1.2-2.1,1.2-3.7v-2.1
				c0-1.6-0.4-2.8-1.2-3.7s-1.9-1.3-3.5-1.3H-490.6z"/>
			<path class="st2" d="M-469-1946.8h-7v5.5h8.1v1.6H-478v-15.3h10v1.6h-8v5h7V-1946.8z"/>
			<path class="st2" d="M-460.8-1943.3l0.3,1.2h0l0.3-1.2l4-11.6h2.1l-5.7,15.3h-1.7l-5.7-15.3h2.1L-460.8-1943.3z"/>
			<path class="st2" d="M-442.7-1946.8h-7v5.5h8.1v1.6h-10.1v-15.3h10v1.6h-8v5h7V-1946.8z"/>
			<path class="st2" d="M-437.2-1941.2h7.3v1.6h-9.2v-15.3h1.9V-1941.2z"/>
			<path class="st2" d="M-416.4-1945.9c0,1.9-0.6,3.4-1.7,4.7s-2.6,1.8-4.5,1.8c-1.8,0-3.3-0.6-4.4-1.8s-1.6-2.8-1.6-4.7v-2.7
				c0-1.9,0.5-3.4,1.6-4.7s2.5-1.9,4.4-1.9c1.9,0,3.4,0.6,4.5,1.9s1.7,2.8,1.7,4.7V-1945.9z M-418.4-1948.7c0-1.4-0.4-2.6-1.1-3.5
				s-1.8-1.4-3.1-1.4c-1.3,0-2.2,0.5-3,1.4s-1.1,2.1-1.1,3.5v2.7c0,1.4,0.4,2.6,1.1,3.5s1.7,1.4,3,1.4c1.3,0,2.4-0.5,3.1-1.4
				s1.1-2.1,1.1-3.5V-1948.7z"/>
			<path class="st2" d="M-411.2-1945.8v6.1h-1.9v-15.3h5.7c1.7,0,2.9,0.4,3.8,1.2s1.3,1.9,1.3,3.3c0,1.4-0.4,2.5-1.3,3.3
				s-2.2,1.2-3.8,1.2H-411.2z M-411.2-1947.4h3.8c1.1,0,1.9-0.3,2.4-0.8c0.5-0.6,0.8-1.3,0.8-2.1c0-0.9-0.3-1.6-0.8-2.2
				c-0.5-0.6-1.3-0.8-2.4-0.8h-3.8V-1947.4z"/>
			<path class="st2" d="M-390.5-1946.8h-7v5.5h8.1v1.6h-10.1v-15.3h10v1.6h-8v5h7V-1946.8z"/>
			<path class="st2" d="M-385-1946.3v6.6h-1.9v-15.3h5.5c1.7,0,3,0.4,3.8,1.1c0.9,0.7,1.3,1.8,1.3,3.2c0,0.8-0.2,1.5-0.6,2.1
				c-0.4,0.6-1,1-1.9,1.4c0.9,0.3,1.5,0.7,1.8,1.3c0.4,0.6,0.6,1.4,0.6,2.3v1.4c0,0.5,0.1,0.9,0.2,1.3c0.1,0.4,0.3,0.7,0.5,0.9v0.3
				h-2c-0.3-0.2-0.5-0.6-0.5-1.1c-0.1-0.5-0.1-0.9-0.1-1.4v-1.4c0-0.9-0.2-1.5-0.7-2s-1.2-0.7-2-0.7H-385z M-385-1947.9h3.3
				c1.2,0,2.1-0.2,2.6-0.7s0.8-1.1,0.8-2.1c0-0.9-0.3-1.6-0.8-2s-1.3-0.7-2.4-0.7h-3.5V-1947.9z"/>
			<path class="st2" d="M-357.1-1953.4h-4.8v13.7h-1.9v-13.7h-4.8v-1.6h11.6V-1953.4z"/>
			<path class="st2" d="M-343.2-1945.9c0,1.9-0.6,3.4-1.7,4.7s-2.6,1.8-4.5,1.8c-1.8,0-3.3-0.6-4.4-1.8s-1.6-2.8-1.6-4.7v-2.7
				c0-1.9,0.5-3.4,1.6-4.7s2.5-1.9,4.4-1.9c1.9,0,3.4,0.6,4.5,1.9s1.7,2.8,1.7,4.7V-1945.9z M-345.2-1948.7c0-1.4-0.4-2.6-1.1-3.5
				s-1.8-1.4-3.1-1.4c-1.3,0-2.2,0.5-3,1.4s-1.1,2.1-1.1,3.5v2.7c0,1.4,0.4,2.6,1.1,3.5s1.7,1.4,3,1.4c1.3,0,2.4-0.5,3.1-1.4
				c0.8-0.9,1.1-2.1,1.1-3.5V-1948.7z"/>
			<path class="st2" d="M-328.3-1945.9c0,1.9-0.6,3.4-1.7,4.7c-1.1,1.2-2.6,1.8-4.5,1.8c-1.8,0-3.3-0.6-4.4-1.8
				c-1.1-1.2-1.6-2.8-1.6-4.7v-2.7c0-1.9,0.5-3.4,1.6-4.7c1.1-1.2,2.5-1.9,4.4-1.9c1.9,0,3.4,0.6,4.5,1.9c1.1,1.2,1.7,2.8,1.7,4.7
				V-1945.9z M-330.2-1948.7c0-1.4-0.4-2.6-1.1-3.5c-0.8-0.9-1.8-1.4-3.1-1.4c-1.3,0-2.2,0.5-3,1.4c-0.7,0.9-1.1,2.1-1.1,3.5v2.7
				c0,1.4,0.4,2.6,1.1,3.5c0.7,0.9,1.7,1.4,3,1.4c1.3,0,2.4-0.5,3.1-1.4c0.8-0.9,1.1-2.1,1.1-3.5V-1948.7z"/>
			<path class="st2" d="M-323.1-1941.2h7.3v1.6h-9.2v-15.3h1.9V-1941.2z"/>
			<path class="st2" d="M-305-1943.5c0-0.7-0.3-1.3-0.8-1.8c-0.5-0.5-1.5-0.9-2.9-1.2c-1.6-0.4-2.9-1-3.8-1.7
				c-0.9-0.7-1.3-1.7-1.3-2.8c0-1.2,0.5-2.2,1.4-3s2.2-1.2,3.8-1.2c1.7,0,3,0.5,4,1.4c1,0.9,1.5,2,1.5,3.3h-1.9
				c0-0.9-0.3-1.7-0.9-2.2c-0.6-0.6-1.5-0.8-2.6-0.8c-1.1,0-1.9,0.2-2.5,0.7c-0.6,0.5-0.8,1.1-0.8,1.9c0,0.7,0.3,1.2,0.9,1.7
				s1.6,0.8,3,1.2c1.6,0.4,2.9,1,3.7,1.8s1.2,1.7,1.2,2.9c0,1.3-0.5,2.2-1.5,3c-1,0.7-2.3,1.1-3.9,1.1c-1.6,0-2.9-0.4-4.1-1.2
				c-1.2-0.8-1.7-1.9-1.7-3.4h1.9c0,1,0.4,1.8,1.1,2.3s1.7,0.8,2.8,0.8c1.1,0,1.9-0.2,2.6-0.7S-305-1942.7-305-1943.5z"/>
			<path class="st2" d="M-292.9-1945.8v6.1h-1.9v-15.3h5.7c1.7,0,2.9,0.4,3.8,1.2s1.3,1.9,1.3,3.3c0,1.4-0.4,2.5-1.3,3.3
				s-2.2,1.2-3.8,1.2H-292.9z M-292.9-1947.4h3.8c1.1,0,1.9-0.3,2.4-0.8c0.5-0.6,0.8-1.3,0.8-2.1c0-0.9-0.3-1.6-0.8-2.2
				c-0.5-0.6-1.3-0.8-2.4-0.8h-3.8V-1947.4z"/>
			<path class="st2" d="M-279.2-1941.2h7.3v1.6h-9.2v-15.3h1.9V-1941.2z"/>
			<path class="st2" d="M-260.8-1943.7h-6.4l-1.5,4.1h-2l5.9-15.3h1.7l5.8,15.3h-2L-260.8-1943.7z M-266.7-1945.3h5.3l-2.6-7.2
				L-266.7-1945.3z"/>
			<path class="st2" d="M-246.1-1953.4h-4.8v13.7h-1.9v-13.7h-4.8v-1.6h11.6V-1953.4z"/>
			<path class="st2" d="M-234.6-1946.5h-7v6.8h-1.9v-15.3h10v1.6h-8.1v5.3h7V-1946.5z"/>
			<path class="st2" d="M-219.4-1945.9c0,1.9-0.6,3.4-1.7,4.7s-2.6,1.8-4.5,1.8c-1.8,0-3.3-0.6-4.4-1.8s-1.6-2.8-1.6-4.7v-2.7
				c0-1.9,0.5-3.4,1.6-4.7s2.5-1.9,4.4-1.9c1.9,0,3.4,0.6,4.5,1.9s1.7,2.8,1.7,4.7V-1945.9z M-221.4-1948.7c0-1.4-0.4-2.6-1.1-3.5
				s-1.8-1.4-3.1-1.4c-1.3,0-2.2,0.5-3,1.4c-0.7,0.9-1.1,2.1-1.1,3.5v2.7c0,1.4,0.4,2.6,1.1,3.5c0.7,0.9,1.7,1.4,3,1.4
				c1.3,0,2.4-0.5,3.1-1.4c0.8-0.9,1.1-2.1,1.1-3.5V-1948.7z"/>
			<path class="st2" d="M-214.2-1946.3v6.6h-1.9v-15.3h5.5c1.7,0,3,0.4,3.8,1.1c0.9,0.7,1.3,1.8,1.3,3.2c0,0.8-0.2,1.5-0.6,2.1
				c-0.4,0.6-1,1-1.9,1.4c0.9,0.3,1.5,0.7,1.8,1.3c0.4,0.6,0.6,1.4,0.6,2.3v1.4c0,0.5,0.1,0.9,0.2,1.3c0.1,0.4,0.3,0.7,0.5,0.9v0.3
				h-2c-0.3-0.2-0.5-0.6-0.5-1.1c-0.1-0.5-0.1-0.9-0.1-1.4v-1.4c0-0.9-0.2-1.5-0.7-2c-0.5-0.5-1.2-0.7-2-0.7H-214.2z M-214.2-1947.9
				h3.3c1.2,0,2.1-0.2,2.6-0.7s0.8-1.1,0.8-2.1c0-0.9-0.3-1.6-0.8-2c-0.5-0.5-1.3-0.7-2.4-0.7h-3.5V-1947.9z"/>
			<path class="st2" d="M-199.4-1954.9l5,12.6l5-12.6h2.5v15.3h-1.9v-6.1l0.2-6.4h0l-5.1,12.5h-1.3l-5.1-12.5h0l0.2,6.4v6.1h-1.9
				v-15.3H-199.4z"/>
		</g>
	</g>
	<g>
		<circle class="st15" cx="-633.3" cy="-1986.6" r="81.8"/>
		<g>
			<polygon class="st2" points="-633.1,-1937.3 -657.5,-1951.3 -657.5,-1979.5 -633.1,-1965.4 			"/>
			<polygon class="st10" points="-633.1,-1993.5 -657.5,-1979.5 -633.1,-1965.4 -608.8,-1979.5 			"/>
			<polygon class="st11" points="-633.1,-1937.3 -608.8,-1951.3 -608.8,-1979.5 -633.1,-1965.4 			"/>
			<polygon class="st12" points="-608.8,-1979.5 -633.1,-1993.5 -633.1,-2021.6 -608.8,-2007.6 			"/>
			<polygon class="st10" points="-608.8,-2035.7 -633.1,-2021.6 -608.8,-2007.6 -584.4,-2021.6 			"/>
			<polygon class="st13" points="-608.8,-1979.5 -584.4,-1993.5 -584.4,-2021.6 -608.8,-2007.6 			"/>
			<g>
				<path class="st10" d="M-657.5-1979.1c-0.1,0-0.1,0-0.2,0l-24.3-14.1c-0.1-0.1-0.2-0.2-0.2-0.3v-28.1c0-0.1,0.1-0.2,0.2-0.3
					s0.2-0.1,0.3,0l24.3,14.1c0.1,0.1,0.2,0.2,0.2,0.3v28.1c0,0.1-0.1,0.2-0.2,0.3C-657.4-1979.1-657.4-1979.1-657.5-1979.1z
					 M-681.5-1993.7l23.7,13.7v-27.4l-23.7-13.7V-1993.7z"/>
				<path class="st10" d="M-657.5-2007.2c-0.1,0-0.1,0-0.2,0l-24.4-14.1c-0.1-0.1-0.2-0.2-0.2-0.3c0-0.1,0.1-0.2,0.2-0.3l24.4-14.1
					c0.1-0.1,0.2-0.1,0.3,0l24.3,14.1c0.1,0.1,0.2,0.2,0.2,0.3c0,0.1-0.1,0.2-0.2,0.3l-24.3,14.1
					C-657.4-2007.3-657.4-2007.2-657.5-2007.2z M-681.2-2021.6l23.7,13.7l23.7-13.7l-23.7-13.7L-681.2-2021.6z"/>
				<path class="st10" d="M-633.1-1993.2c-0.1,0-0.1,0-0.2,0l-1.7-1c-0.2-0.1-0.2-0.3-0.1-0.4c0.1-0.2,0.3-0.2,0.4-0.1l1.7,1
					c0.2,0.1,0.2,0.3,0.1,0.4C-632.9-1993.2-633-1993.2-633.1-1993.2z"/>
				<path class="st10" d="M-637.8-1995.9c-0.1,0-0.1,0-0.2,0l-3-1.7c-0.2-0.1-0.2-0.3-0.1-0.4c0.1-0.2,0.3-0.2,0.4-0.1l3,1.7
					c0.2,0.1,0.2,0.3,0.1,0.4C-637.6-1996-637.7-1995.9-637.8-1995.9z M-643.8-1999.3c-0.1,0-0.1,0-0.2,0l-3-1.7
					c-0.2-0.1-0.2-0.3-0.1-0.4c0.1-0.2,0.3-0.2,0.4-0.1l3,1.7c0.2,0.1,0.2,0.3,0.1,0.4C-643.6-1999.4-643.7-1999.3-643.8-1999.3z
					 M-649.8-2002.8c-0.1,0-0.1,0-0.2,0l-3-1.7c-0.2-0.1-0.2-0.3-0.1-0.4c0.1-0.2,0.3-0.2,0.4-0.1l3,1.7c0.2,0.1,0.2,0.3,0.1,0.4
					C-649.6-2002.9-649.7-2002.8-649.8-2002.8z"/>
				<path class="st10" d="M-655.8-2006.3c-0.1,0-0.1,0-0.2,0l-1.5-0.9l-1.5,0.9c-0.2,0.1-0.4,0-0.4-0.1s0-0.4,0.1-0.4l1.7-1
					c0.1-0.1,0.2-0.1,0.3,0l1.7,1c0.2,0.1,0.2,0.3,0.1,0.4C-655.5-2006.3-655.7-2006.3-655.8-2006.3z"/>
				<path class="st10" d="M-677.1-1995.9c-0.1,0-0.2-0.1-0.3-0.2c-0.1-0.2,0-0.4,0.1-0.4l3-1.7c0.2-0.1,0.4,0,0.4,0.1
					c0.1,0.2,0,0.4-0.1,0.4l-3,1.7C-677-1995.9-677.1-1995.9-677.1-1995.9z M-671.1-1999.3c-0.1,0-0.2-0.1-0.3-0.2
					c-0.1-0.2,0-0.4,0.1-0.4l3-1.7c0.2-0.1,0.4,0,0.4,0.1c0.1,0.2,0,0.4-0.1,0.4l-3,1.7C-671-1999.4-671.1-1999.3-671.1-1999.3z
					 M-665.2-2002.8c-0.1,0-0.2-0.1-0.3-0.2c-0.1-0.2,0-0.4,0.1-0.4l3-1.7c0.2-0.1,0.4,0,0.4,0.1c0.1,0.2,0,0.4-0.1,0.4l-3,1.7
					C-665.1-2002.8-665.1-2002.8-665.2-2002.8z"/>
				<path class="st10" d="M-681.8-1993.2c-0.1,0-0.2-0.1-0.3-0.2c-0.1-0.2,0-0.4,0.1-0.4l1.7-1c0.2-0.1,0.4,0,0.4,0.1
					c0.1,0.2,0,0.4-0.1,0.4l-1.7,1C-681.7-1993.2-681.8-1993.2-681.8-1993.2z"/>
				<path class="st10" d="M-657.5-1979.1c-0.1,0-0.1,0-0.2,0c-0.1-0.1-0.2-0.2-0.2-0.3v-28.1c0-0.1,0.1-0.2,0.2-0.3l24.3-14.1
					c0.1-0.1,0.2-0.1,0.3,0c0.1,0.1,0.2,0.2,0.2,0.3v28.1c0,0.1-0.1,0.2-0.2,0.3l-24.3,14.1
					C-657.4-1979.1-657.4-1979.1-657.5-1979.1z M-657.1-2007.4v27.4l23.7-13.7v-27.4L-657.1-2007.4z"/>
				<path class="st10" d="M-657.5-2033.4c-0.2,0-0.3-0.1-0.3-0.3v-2c0-0.2,0.1-0.3,0.3-0.3s0.3,0.1,0.3,0.3v2
					C-657.1-2033.5-657.3-2033.4-657.5-2033.4z"/>
				<path class="st10" d="M-657.5-2012.7L-657.5-2012.7c-0.2,0-0.3-0.1-0.3-0.3v-3.5c0-0.2,0.1-0.3,0.3-0.3l0,0
					c0.2,0,0.3,0.1,0.3,0.3v3.5C-657.1-2012.8-657.3-2012.7-657.5-2012.7z M-657.5-2019.6c-0.2,0-0.3-0.1-0.3-0.3v-3.5
					c0-0.2,0.1-0.3,0.3-0.3c0.2,0,0.3,0.1,0.3,0.3v3.5C-657.1-2019.7-657.3-2019.6-657.5-2019.6z M-657.5-2026.5
					c-0.2,0-0.3-0.1-0.3-0.3v-3.5c0-0.2,0.1-0.3,0.3-0.3s0.3,0.1,0.3,0.3v3.5C-657.1-2026.6-657.3-2026.5-657.5-2026.5z"/>
				<path class="st10" d="M-657.5-2007.2c-0.2,0-0.3-0.1-0.3-0.3v-2c0-0.2,0.1-0.3,0.3-0.3c0.2,0,0.3,0.1,0.3,0.3v2
					C-657.1-2007.4-657.3-2007.2-657.5-2007.2z"/>
			</g>
		</g>
	</g>
</g>
<g>
	<circle class="st0" cx="-727.4" cy="-728.3" r="505.3"/>
	<g>
		<polygon class="st2" points="-726.4,-423.5 -876.7,-510.3 -876.7,-683.8 -726.4,-597 		"/>
		<polygon class="st10" points="-726.4,-770.6 -876.7,-683.8 -726.4,-597 -576,-683.8 		"/>
		<polygon class="st11" points="-726.4,-423.5 -576,-510.3 -576,-683.8 -726.4,-597 		"/>
		<polygon class="st12" points="-576,-683.9 -726.4,-770.6 -726.4,-944.2 -576,-857.4 		"/>
		<polygon class="st10" points="-576,-1031 -726.4,-944.2 -576,-857.4 -425.7,-944.2 		"/>
		<polygon class="st13" points="-576,-683.9 -425.7,-770.6 -425.7,-944.2 -576,-857.4 		"/>
		<g>
			<path class="st10" d="M-876.7-681.8c-0.4,0-0.7-0.1-1-0.3l-150.3-86.8c-0.6-0.4-1-1-1-1.8v-173.6c0-0.7,0.4-1.4,1-1.8
				c0.6-0.4,1.4-0.4,2,0l150.3,86.8c0.6,0.4,1,1,1,1.8v173.6c0,0.7-0.4,1.4-1,1.8C-876-681.9-876.4-681.8-876.7-681.8z M-1025-771.8
				l146.3,84.5v-168.9l-146.3-84.4V-771.8z"/>
			<path class="st10" d="M-876.7-855.4c-0.4,0-0.7-0.1-1-0.3l-150.3-86.8c-0.6-0.4-1-1-1-1.7c0-0.7,0.4-1.4,1-1.8l150.3-86.8
				c0.6-0.4,1.4-0.4,2,0l150.3,86.8c0.6,0.4,1,1,1,1.8c0,0.7-0.4,1.4-1,1.7l-150.3,86.8C-876-855.5-876.3-855.4-876.7-855.4z
				 M-1023-944.2l146.3,84.5l146.3-84.5l-146.3-84.5L-1023-944.2z"/>
			<path class="st10" d="M-726.4-768.6c-0.3,0-0.7-0.1-1-0.3l-10.5-6.1c-1-0.6-1.3-1.8-0.7-2.8c0.6-1,1.8-1.3,2.8-0.7l10.5,6.1
				c1,0.6,1.3,1.8,0.7,2.8C-725-769-725.7-768.6-726.4-768.6z"/>
			<path class="st10" d="M-755.4-785.4c-0.3,0-0.7-0.1-1-0.3l-18.5-10.7c-1-0.6-1.3-1.8-0.7-2.8c0.6-1,1.8-1.3,2.8-0.7l18.5,10.7
				c1,0.6,1.3,1.8,0.7,2.8C-754-785.7-754.7-785.4-755.4-785.4z M-792.3-806.7c-0.3,0-0.7-0.1-1-0.3l-18.5-10.7
				c-1-0.6-1.3-1.8-0.7-2.8c0.6-1,1.8-1.3,2.8-0.7l18.5,10.7c1,0.6,1.3,1.8,0.7,2.8C-790.9-807.1-791.6-806.7-792.3-806.7z
				 M-829.2-828c-0.3,0-0.7-0.1-1-0.3l-18.5-10.7c-1-0.6-1.3-1.8-0.7-2.8c0.6-1,1.8-1.3,2.8-0.7l18.5,10.7c1,0.6,1.3,1.8,0.7,2.8
				C-827.9-828.4-828.5-828-829.2-828z"/>
			<path class="st10" d="M-866.2-849.3c-0.3,0-0.7-0.1-1-0.3l-9.5-5.5l-9.5,5.5c-1,0.6-2.2,0.2-2.8-0.7c-0.6-1-0.2-2.2,0.7-2.8
				l10.5-6.1c0.6-0.4,1.4-0.4,2,0l10.5,6.1c1,0.6,1.3,1.8,0.7,2.8C-864.8-849.7-865.5-849.3-866.2-849.3z"/>
			<path class="st10" d="M-998-785.4c-0.7,0-1.4-0.4-1.7-1c-0.6-1-0.2-2.2,0.7-2.8l18.5-10.7c1-0.6,2.2-0.2,2.8,0.7
				c0.6,1,0.2,2.2-0.7,2.8l-18.5,10.7C-997.3-785.4-997.7-785.4-998-785.4z M-961.1-806.7c-0.7,0-1.4-0.4-1.8-1
				c-0.6-1-0.2-2.2,0.7-2.8l18.5-10.7c1-0.6,2.2-0.2,2.8,0.7c0.6,1,0.2,2.2-0.7,2.8l-18.5,10.7
				C-960.4-806.8-960.8-806.7-961.1-806.7z M-924.2-828c-0.7,0-1.4-0.4-1.7-1c-0.6-1-0.2-2.2,0.7-2.8l18.5-10.7
				c1-0.6,2.2-0.2,2.8,0.7c0.6,1,0.2,2.2-0.7,2.8l-18.5,10.7C-923.5-828.1-923.8-828-924.2-828z"/>
			<path class="st10" d="M-1027-768.6c-0.7,0-1.4-0.4-1.8-1c-0.6-1-0.2-2.2,0.7-2.8l10.5-6.1c1-0.6,2.2-0.2,2.8,0.7
				c0.6,1,0.2,2.2-0.7,2.8l-10.5,6.1C-1026.3-768.7-1026.7-768.6-1027-768.6z"/>
			<path class="st10" d="M-876.7-681.8c-0.4,0-0.7-0.1-1-0.3c-0.6-0.4-1-1-1-1.8v-173.6c0-0.7,0.4-1.4,1-1.8l150.3-86.8
				c0.6-0.4,1.4-0.4,2,0c0.6,0.4,1,1,1,1.8v173.6c0,0.7-0.4,1.4-1,1.8l-150.3,86.8C-876-681.9-876.4-681.8-876.7-681.8z
				 M-874.7-856.3v168.9l146.3-84.5v-168.9L-874.7-856.3z"/>
			<path class="st10" d="M-876.7-1016.9c-1.1,0-2-0.9-2-2v-12.2c0-1.1,0.9-2,2-2s2,0.9,2,2v12.2
				C-874.7-1017.8-875.6-1016.9-876.7-1016.9z"/>
			<path class="st10" d="M-876.7-888.9L-876.7-888.9c-1.1,0-2-0.9-2-2v-21.3c0-1.1,0.9-2,2-2l0,0c1.1,0,2,0.9,2,2v21.3
				C-874.7-889.8-875.6-888.9-876.7-888.9z M-876.7-931.5c-1.1,0-2-0.9-2-2v-21.3c0-1.1,0.9-2,2-2c1.1,0,2,0.9,2,2v21.3
				C-874.7-932.5-875.6-931.5-876.7-931.5z M-876.7-974.2c-1.1,0-2-0.9-2-2v-21.3c0-1.1,0.9-2,2-2s2,0.9,2,2v21.3
				C-874.7-975.1-875.6-974.2-876.7-974.2z"/>
			<path class="st10" d="M-876.7-855.4c-1.1,0-2-0.9-2-2v-12.2c0-1.1,0.9-2,2-2c1.1,0,2,0.9,2,2v12.2
				C-874.7-856.3-875.6-855.4-876.7-855.4z"/>
		</g>
	</g>
</g>
<rect x="-1378.9" y="-120.1" class="st2" width="1271" height="700.7"/>
<g>
	<path d="M32.3,2L10.2,98.9l-0.8,3.3c-0.7,3.1-1.1,5.7-1.1,7.8c0,1.7,0.3,3.2,1,4.2c0.6,1.1,1.4,1.6,2.4,1.6c1.7,0,4.5-2.1,8.3-6.2
		l1.3,1.2l-0.8,0.9c-3.2,3.8-5.5,6.3-7.1,7.6c-1.5,1.3-2.9,2-4.2,2c-1.7,0-3.2-0.9-4.4-2.8c-1.3-1.9-1.9-4-1.9-6.4
		c0-1.7,0.4-4.3,1.1-8L23.5,6.3L32.3,2z"/>
	<path d="M60,107.4l1.5,1.3c-3.5,4.6-6.9,7.9-10.2,10c-3.3,2-6.9,3.1-10.7,3.1c-4.5,0-8.2-1.5-10.9-4.5c-2.7-3-4.1-7-4.1-12
		c0-5,1.3-10.2,4-15.3c2.7-5.2,6-9.5,10-12.9c4-3.4,8-5.1,11.9-5.1c2.3,0,4.2,0.7,5.7,2c1.5,1.3,2.2,3.1,2.2,5.2
		c0,4.3-2.4,8.6-7.1,12.9c-4.7,4.3-11.1,8-19.2,11c-0.1,0.4-0.1,1-0.1,1.5c0,3.9,1.1,7,3.2,9.5c2.1,2.4,4.9,3.7,8.2,3.7
		c2.6,0,5.2-0.8,7.6-2.5S57.2,110.9,60,107.4z M33.1,101c6-2.7,10.7-5.7,13.9-9c2.2-2.2,3.9-4.6,5.3-7.2c1.3-2.6,2-4.9,2-7
		c0-2.6-1.2-3.9-3.6-3.9c-3.6,0-7.3,2.9-11,8.6C35.9,88.2,33.8,94.4,33.1,101z"/>
	<path d="M83.3,75.5l-6.4,28c-0.7,3.1-1,5.3-1,6.6c0,2,0.5,3.6,1.4,4.9c1,1.2,2.2,1.8,3.8,1.8c1.5,0,2.9-0.4,4.2-1.3
		c1.3-0.9,3.2-2.7,5.8-5.4l1-1l1.3,1.3c-3.3,4-6.1,6.9-8.3,8.5s-4.4,2.5-6.5,2.5c-2.7,0-4.8-0.9-6.4-2.6c-1.6-1.8-2.4-4.1-2.4-6.9
		c0-2.1,0.4-5.2,1.3-9.2l5.5-27h-8.1l0.6-2.9H77L81.7,50l8.1-3.2l-5.9,25.9h13.6l-0.6,2.9H83.3z"/>
	<path d="M93.5,115l4.7-5.5c2.5,5.8,6.4,8.7,11.8,8.7c2.8,0,5.2-0.9,7.2-2.7s3-3.9,3-6.3c0-1.7-0.5-3.2-1.4-4.5
		c-1-1.2-3.2-3.3-6.8-6.2c-3.3-2.7-5.5-4.8-6.7-6.3c-1.1-1.5-1.7-3.3-1.7-5.3c0-2.6,0.8-5.1,2.3-7.3c1.5-2.2,3.6-4,6.2-5.4
		c2.6-1.4,5.3-2.1,8.2-2.1c2.5,0,4.6,0.6,6.3,1.9c1.7,1.3,2.6,2.9,2.6,4.8c0,2.6-1.1,4.3-3.3,5.3c-0.3-2.6-1.3-4.7-3-6.2
		c-1.7-1.5-3.8-2.2-6.3-2.2c-2.3,0-4.3,0.7-6,2.2c-1.7,1.5-2.6,3.2-2.6,5.1c0,2.4,1.5,4.7,4.4,7l4.9,3.9c4.8,3.8,7.1,7.6,7.1,11.5
		c0,2.9-0.8,5.6-2.5,8.2c-1.7,2.5-3.9,4.6-6.7,6.1c-2.8,1.5-5.8,2.3-8.9,2.3C101.1,121.9,96.9,119.6,93.5,115z"/>
</g>
<rect x="-1378.9" y="663.9" class="st2" width="1271" height="700.7"/>
<g>
	<text transform="matrix(1 0 0 1 -924.3284 1055.0295)" style="font-family:'SavoyeLetPlain'; font-size:172.0775px;">launcher</text>
	<text transform="matrix(1 0 0 1 -1034.443 1114.5667)" style="font-family:'WorkSans-Light'; font-size:23.8957px;">Generate and deployment with quality to anywhere</text>
</g>
<rect x="-1378.9" y="1464.9" class="st2" width="1271" height="700.7"/>
<g>
	<text transform="matrix(1 0 0 1 -889.4578 1856.0295)" style="font-family:'SavoyeLetPlain'; font-size:172.0775px;">creator</text>
	<text transform="matrix(1 0 0 1 -968.5264 1915.5667)" style="font-family:'WorkSans-Light'; font-size:23.8957px;">A design tools to creator rich interfaces</text>
</g>
</svg>
