<?xml version="1.0" encoding="UTF-8"?><!DOCTYPE svg PUBLIC "-//W3C//DTD SVG 1.1//EN" "http://www.w3.org/Graphics/SVG/1.1/DTD/svg11.dtd"><svg xmlns="http://www.w3.org/2000/svg"><symbol id="add" viewBox="0 0 32 32"><path fill="#444" d="M16 4.5c3.072 0 5.96 1.196 8.132 3.368S27.5 12.928 27.5 16s-1.196 5.96-3.368 8.132S19.072 27.5 16 27.5s-5.96-1.196-8.132-3.368S4.5 19.072 4.5 16s1.196-5.96 3.368-8.132S12.928 4.5 16 4.5zM16 2C8.268 2 2 8.268 2 16s6.268 14 14 14 14-6.268 14-14S23.732 2 16 2z"/><path fill="#444" d="M22.781 14.781h-5.5v-5.5a1.25 1.25 0 0 0-2.5 0v5.5h-5.5a1.25 1.25 0 0 0 0 2.5h5.5v5.5a1.25 1.25 0 0 0 2.5 0v-5.5h5.5a1.25 1.25 0 0 0 0-2.5z"/></symbol><symbol id="admin" viewBox="0 0 32 32"><path fill="#444" d="M28.737 26.485h-2.763V11.869l2.773-.001a1.25 1.25 0 0 0 .614-2.331L16.614 2.172l-.042-.021-.051-.026-.066-.028-.045-.018c-.024-.009-.049-.016-.073-.024l-.041-.012a2.072 2.072 0 0 0-.076-.017l-.044-.008-.072-.009-.052-.004-.063-.001-.063.001-.052.004a.885.885 0 0 0-.072.009l-.044.008c-.025.005-.051.01-.076.017a2.165 2.165 0 0 0-.16.054l-.066.028a1.226 1.226 0 0 0-.051.026l-.042.021L2.616 9.537a1.25 1.25 0 0 0 .614 2.331v.001h2.808v14.616H3.242a1.25 1.25 0 0 0 0 2.5h4.009l.037.002.037-.002h5.738l.037.002.037-.002h5.738l.038.002.038-.002h9.786a1.25 1.25 0 1 0 0-2.5zm-5.263 0h-3.311V11.869h3.311v14.616zM7.904 9.369l8.085-4.671 8.086 4.671H7.904zm9.76 2.5v14.616h-3.313V11.869h3.313zm-9.125 0h3.313v14.616H8.539V11.869z"/></symbol><symbol id="alert" viewBox="0 0 32 32"><path fill="#444" d="M16 19.495c-.69 0-1.25-.56-1.25-1.25v-6.5a1.25 1.25 0 0 1 2.5 0v6.5c0 .69-.56 1.25-1.25 1.25zm0 3.75a1.25 1.25 0 0 0 0-2.5 1.25 1.25 0 0 0 0 2.5zm.004-16.626L5.377 25.026h21.255L16.005 6.619zm0-3.728c.453 0 .906.298 1.25.893l12.457 21.577c.688 1.191.125 2.165-1.25 2.165H3.546c-1.375 0-1.938-.974-1.25-2.165L14.753 3.784c.344-.595.797-.893 1.25-.893z"/></symbol><symbol id="arrow-down" viewBox="0 0 32 32"><path fill="#444" d="M15.999 24c-.32 0-.64-.122-.884-.366L4.36 12.881a1.25 1.25 0 0 1 1.768-1.768l9.871 9.869 9.873-9.871a1.25 1.25 0 0 1 1.768 1.768L16.884 23.634A1.246 1.246 0 0 1 16 24z"/></symbol><symbol id="arrow-left-alt" viewBox="0 0 32 32"><path fill="#444" d="M3.37 16.873l8.839 8.852a1.25 1.25 0 0 0 1.771-1.765l-6.714-6.72h20.482a1.25 1.25 0 0 0 0-2.5H7.279l6.711-6.707a1.25 1.25 0 1 0-1.766-1.77l-8.851 8.842a1.25 1.25 0 0 0-.003 1.767z"/></symbol><symbol id="arrow-left" viewBox="0 0 32 32"><path fill="#444" d="M8.06 15.999c0-.32.122-.64.366-.884L19.179 4.36a1.25 1.25 0 0 1 1.768 1.768l-9.869 9.871 9.871 9.873a1.25 1.25 0 0 1-1.768 1.768L8.426 16.884A1.246 1.246 0 0 1 8.06 16z"/></symbol><symbol id="arrow-right-alt" viewBox="0 0 32 32"><path fill="#444" d="M28.633 15.118l-8.839-8.852a1.25 1.25 0 0 0-1.771 1.765l6.714 6.72H4.255a1.25 1.25 0 0 0 0 2.5h20.469l-6.711 6.707a1.25 1.25 0 1 0 1.766 1.77l8.851-8.842a1.25 1.25 0 0 0 .003-1.767z"/></symbol><symbol id="arrow-right" viewBox="0 0 32 32"><path fill="#444" d="M24.002 16.063c0 .32-.122.64-.366.884L12.883 27.702a1.25 1.25 0 0 1-1.768-1.768l9.869-9.871-9.871-9.873a1.25 1.25 0 0 1 1.768-1.768l10.755 10.756c.244.244.366.564.366.884z"/></symbol><symbol id="arrow-up" viewBox="0 0 32 32"><path fill="#444" d="M16.001 8c.32 0 .64.122.884.366L27.64 19.119a1.25 1.25 0 0 1-1.768 1.768l-9.871-9.869-9.873 9.871a1.25 1.25 0 0 1-1.768-1.768L15.116 8.366C15.36 8.122 15.68 8 16 8z"/></symbol><symbol id="atmosphere" viewBox="0 0 32 32"><path d="M30.255 19.807h-4.436c.345-.905.568-1.87.65-2.876h3.536c.517 0 .938-.421.938-.938s-.421-.938-.938-.938H7.746l.06-.364a8.242 8.242 0 0 1 2.321-4.5 8.258 8.258 0 0 1 5.878-2.435 8.3 8.3 0 0 1 5.409 2l.639.55h-7.798c-.517 0-.938.421-.938.938s.421.938.938.938h14c.793 0 1.438-.645 1.438-1.438s-.645-1.438-1.438-1.438c-.552 0-1.062.322-1.299.822l-.085.178h-2.089a10.492 10.492 0 0 0-8.778-4.737c-5.457 0-9.941 4.163-10.451 9.486H3.139l-.085-.178a1.445 1.445 0 0 0-1.299-.822c-.793 0-1.438.645-1.438 1.438s.645 1.438 1.438 1.438l3.784.001 18.742-.001-.052.358a8.258 8.258 0 0 1-.707 2.34l-.085.179H4.255c-.517 0-.938.421-.938.938s.421.938.938.938h2.874c1.861 2.938 5.14 4.888 8.875 4.888s7.014-1.95 8.875-4.888h3.992l.085.178c.237.499.747.822 1.299.822.793 0 1.438-.645 1.438-1.438s-.645-1.438-1.438-1.438zm-8.066 1.875l-.598.544c-1.529 1.391-3.513 2.157-5.586 2.157s-4.057-.766-5.586-2.157l-.598-.544h12.368z"/></symbol><symbol id="back" viewBox="0 0 32 32"><path fill="#444" d="M16.001 27.5c-3.072 0-5.96-1.196-8.132-3.368S4.501 19.072 4.501 16s1.196-5.96 3.368-8.132S12.929 4.5 16.001 4.5s5.96 1.196 8.132 3.368 3.368 5.06 3.368 8.132-1.196 5.96-3.368 8.132-5.06 3.368-8.132 3.368zm0 2.5c7.732 0 14-6.268 14-14s-6.268-14-14-14-14 6.268-14 14 6.268 14 14 14zM8.363 16.833l3.906 3.92a1.25 1.25 0 0 0 1.771-1.765L12.259 17.2h10.49a1.25 1.25 0 0 0 0-2.5H12.272l1.766-1.761a1.25 1.25 0 1 0-1.766-1.77l-3.906 3.896a1.25 1.25 0 0 0-.003 1.767z"/></symbol><symbol id="basket" viewBox="0 0 32 32"><path fill="#444" d="M21.008 22.988c.69 0 1.25-.56 1.25-1.25v-3.501a1.25 1.25 0 0 0-2.5 0v3.5c0 .691.56 1.25 1.25 1.25zM11.008 22.988c.69 0 1.25-.56 1.25-1.25v-3.501a1.25 1.25 0 0 0-2.5 0v3.5c0 .691.56 1.25 1.25 1.25zM16.008 22.988c.69 0 1.25-.56 1.25-1.25v-3.501a1.25 1.25 0 0 0-2.5 0v3.5c0 .691.56 1.25 1.25 1.25z"/><path fill="#444" d="M29.697 12.419a1.25 1.25 0 0 0-.941-.427h-9.79a2.992 2.992 0 0 1-.723 2.5h9.084l-1.479 10.98-19.685-.001-1.484-10.98h9.095a2.987 2.987 0 0 1-.723-2.5H3.249a1.25 1.25 0 0 0-1.238 1.417l1.613 11.929.002.001a2.999 2.999 0 0 0 2.976 2.63l.002.001 18.807-.001h.004a3 3 0 0 0 2.981-2.667l1.602-11.895a1.25 1.25 0 0 0-.298-.99z"/><path fill="#444" d="M25.172 3.292a1.25 1.25 0 0 0-1.768 0l-7.209 7.209a2 2 0 1 0 1.79 1.745l7.187-7.187a1.25 1.25 0 0 0 0-1.768z"/></symbol><symbol id="beaker" viewBox="0 0 32 32"><path fill="#444" d="M26.52 24.705L20 13.412V5.535h.75a1.25 1.25 0 0 0 0-2.5h-9.5a1.25 1.25 0 0 0 0 2.5H12v7.877L5.48 24.705c-1.375 2.381-.25 4.33 2.5 4.33h16.04c2.75 0 3.875-1.949 2.5-4.33zM14.5 5.535h3l-.002 8.543 1.996 3.457h-6.99l1.996-3.459V5.535zm9.52 21H7.98c-.259 0-.443-.03-.561-.063.031-.119.097-.294.227-.518l3.416-5.92h9.876l3.418 5.92c.129.224.195.399.227.518a2.18 2.18 0 0 1-.562.063z"/></symbol><symbol id="bell" viewBox="0 0 32 32"><path fill="#444" d="M28.167 23.751l-1.801-2.427c-.247-.247-.368-1.196-.366-1.52h.001v-6.268h-.011c-.215-4.628-3.576-8.434-7.994-9.329a2.006 2.006 0 1 0-3.992.003c-4.41.9-7.764 4.703-7.979 9.326h-.011v6.268h.001c.002.324-.119 1.273-.366 1.52l-1.801 2.427c-.275.275-.511.593-.511 1.006 0 .69.56 1.25 1.25 1.25h7.996a3.476 3.476 0 1 0 6.872 0h7.973c.69 0 1.25-.56 1.25-1.25 0-.413-.236-.731-.511-1.006zM8.523 13.652a7.46 7.46 0 0 1 2.303-5.06 7.469 7.469 0 0 1 5.178-2.085h.008a7.466 7.466 0 0 1 5.178 2.085 7.464 7.464 0 0 1 2.303 5.06l.009.186v4.668H8.515v-4.668l.009-.186zm8.472 12.873c0 .538-.438.976-.976.976s-.976-.438-.976-.976c0-.191.056-.368.151-.518h1.651c.095.15.151.328.151.518zm-.98-3.018H7.142l.455-.613c.377-.454.627-1.04.781-1.817l.013-.07h15.232l.013.07c.153.778.404 1.363.781 1.817l.455.613h-8.857z"/></symbol><symbol id="book" viewBox="0 0 32 32"><path d="M28.002 4.993a3 3 0 0 0-3-2.993H5.252a1.25 1.25 0 0 0-1.25 1.25v25.5c0 .69.56 1.25 1.25 1.25h19.75a3 3 0 0 0 2.999-2.965h.001V4.993zm-16.5-.493h2.5v8.498l-.367-.366a1.25 1.25 0 0 0-1.767 0l-.367.366V4.5zm13.999 22.506a.501.501 0 0 1-.499.494h-18.5v-23h2.5v11.513a1.25 1.25 0 0 0 2.133.885l1.617-1.615 1.617 1.615a1.25 1.25 0 0 0 2.133-.884V4.501h8.5c.275 0 .499.224.5.499v22.008z"/></symbol><symbol id="bookmark-hollow" viewBox="0 0 32 32"><path fill="#444" d="M23.752 30.001a1.25 1.25 0 0 1-.882-.364l-6.868-6.84-6.868 6.84c-.358.356-.895.462-1.362.269s-.77-.649-.77-1.154V3.251c0-.69.56-1.25 1.25-1.25h15.501c.69 0 1.25.56 1.25 1.25v25.501a1.25 1.25 0 0 1-1.249 1.25zm-7.751-10.219c.319 0 .638.121.882.364l5.618 5.595V4.499H9.5v21.242l5.618-5.595c.244-.243.563-.364.882-.364z"/></symbol><symbol id="bookmark" viewBox="0 0 32 32"><path fill="#444" d="M23.752 30.001a1.25 1.25 0 0 1-.882-.364l-6.868-6.84-6.868 6.84a1.251 1.251 0 0 1-2.132-.885V3.251c0-.69.56-1.25 1.25-1.25h15.501c.69 0 1.25.56 1.25 1.25v25.501a1.25 1.25 0 0 1-1.249 1.25z"/></symbol><symbol id="box" viewBox="0 0 32 32"><path fill="#444" d="M30 12.752l-.002-.063-.003-.056c-.002-.023-.006-.045-.009-.068l-.008-.05c-.004-.023-.01-.045-.016-.068a.92.92 0 0 0-.013-.05c-.006-.021-.014-.041-.021-.062-.006-.018-.012-.036-.02-.054l-.023-.052a1.141 1.141 0 0 0-.029-.061l-.024-.042c-.013-.022-.026-.045-.04-.066l-.025-.035c-.016-.022-.032-.045-.05-.066l-.008-.011-.024-.026-.051-.055-.046-.043-.032-.03-12.681-10.49a1.245 1.245 0 0 0-.736-.348l-.015-.002c-.026-.003-.052-.003-.079-.004l-.047-.002-.047.002-.079.004a1.245 1.245 0 0 0-.751.35L2.444 11.79a1.238 1.238 0 0 0-.418.699l-.003.013a.88.88 0 0 0-.015.101l-.003.024a.787.787 0 0 0-.004.084l-.002.037v6.406c-.03.389.12.785.442 1.055l12.677 10.486a1.245 1.245 0 0 0 .877.356H16.004l.032-.002h.006l.013-.001c.331-.013.629-.154.845-.376l12.641-10.457.008-.006.004-.003.015-.014c.025-.022.05-.045.074-.069l.027-.029a.827.827 0 0 0 .055-.063l.027-.035.046-.064.021-.035c.014-.024.028-.047.041-.072l.014-.03c.013-.027.026-.055.037-.083l.008-.022a1.06 1.06 0 0 0 .061-.214l.001-.008a1.327 1.327 0 0 0 .021-.221v-6.402l.001-.03.002-.063zM4.497 15.413l10.254 8.482v3.247L4.497 18.668v-3.254zm12.754 8.475l10.246-8.475v3.246l-10.246 8.468v-3.239zM15.997 3.833l10.792 8.919-10.792 8.919-10.793-8.919 10.793-8.919z"/></symbol><symbol id="browser" viewBox="0 0 32 32"><path fill="#444" d="M28.75 4H3.25A1.25 1.25 0 0 0 2 5.25v21.5c0 .69.56 1.25 1.25 1.25h25.5c.691 0 1.25-.56 1.25-1.25V5.25C30 4.56 29.44 4 28.75 4zM11.5 5.556a1 1 0 1 1 0 2 1 1 0 0 1 0-2zm-3 0a1 1 0 1 1 0 2 1 1 0 0 1 0-2zm-3 0a1 1 0 1 1 0 2 1 1 0 0 1 0-2zm22 19.944h-23V9h23v16.5z"/></symbol><symbol id="button" viewBox="0 0 32 32"><path fill="#444" d="M20.145 25.073c-.142.17-.32.291-.514.365v.001l-1.426.519.861 2.364a1.25 1.25 0 1 1-2.349.855l-.861-2.364-1.488.54a1.25 1.25 0 0 1-1.616-1.406l.955-5.416c.08-.452.394-.804.796-.953l.027-.011.022-.008a1.247 1.247 0 0 1 1.225.218l4.213 3.535a1.25 1.25 0 0 1 .154 1.761zM30 20.75V9.247c0-.69-.56-1.25-1.25-1.25H3.25c-.69 0-1.25.56-1.25 1.25l-.009 11.507c0 .69.56 1.25 1.25 1.25h7.509a1.25 1.25 0 0 0 0-2.5H4.491l.009-9.007h23V19.5h-6.25a1.25 1.25 0 0 0 0 2.5h7.5c.69 0 1.25-.56 1.25-1.25z"/></symbol><symbol id="calendar" viewBox="0 0 32 32"><path fill="#444" d="M28.751 5.001h-3.5v-2.25a1.25 1.25 0 0 0-2.5 0v2.25h-13.5v-2.25a1.25 1.25 0 0 0-2.5 0v2.25h-3.5a1.25 1.25 0 0 0-1.25 1.25v21.5c0 .69.56 1.25 1.25 1.25h25.5c.691 0 1.25-.56 1.25-1.25v-21.5c0-.69-.56-1.25-1.25-1.25zm-17.625 21.5H4.501v-4.458h6.625v4.458zm0-5.708H4.501V15.71h6.625v5.083zm0-6.334H4.501v-4.458h6.625v4.458zm8.5 12.042h-7.25v-4.458h7.25v4.458zm0-5.708h-7.25V15.71h7.25v5.083zm0-6.334h-7.25v-4.458h7.25v4.458zm7.875 12.042h-6.625v-4.458h6.625v4.458zm0-5.708h-6.625V15.71h6.625v5.083zm0-6.334h-6.625v-4.458h6.625v4.458z"/></symbol><symbol id="camera" viewBox="0 0 32 32"><path fill="#444" d="M28.911 6.512a1.233 1.233 0 0 0-.161-.012H14.001V5.251a1.249 1.249 0 0 0-1.25-1.25h-5.5a1.25 1.25 0 0 0-1.25 1.25V6.5H3.25A1.25 1.25 0 0 0 2 7.75v16.5c0 .69.56 1.25 1.25 1.25h25.5c.431 0 .812-.219 1.037-.551l.009-.014c.019-.029.038-.058.054-.089l.004-.008c.094-.175.147-.375.147-.588V7.75c0-.636-.475-1.159-1.089-1.238zM27.5 23h-23V9h23v14z"/><path fill="#444" d="M16 12.579c1.887 0 3.421 1.535 3.421 3.421S17.886 19.421 16 19.421 12.579 17.886 12.579 16s1.535-3.421 3.421-3.421zm0-2.5a5.921 5.921 0 1 0 0 11.842 5.921 5.921 0 0 0 0-11.842z"/></symbol><symbol id="category" viewBox="0 0 32 32"><path fill="#444" d="M28.913 8.012A1.233 1.233 0 0 0 28.752 8h-25.5a1.25 1.25 0 0 0-1.25 1.25v19.5c0 .69.56 1.25 1.25 1.25h25.5c.431 0 .812-.219 1.037-.551l.009-.014c.019-.029.038-.058.054-.089l.004-.008c.094-.175.147-.375.147-.588V9.25a1.25 1.25 0 0 0-1.089-1.239zM4.502 27.5v-17h23v17h-23zM28.003 5.625c0 .345-.28.625-.625.625H4.627a.625.625 0 0 1 0-1.25h22.751c.345 0 .625.28.625.625zM26.003 2.625c0 .345-.28.625-.625.625H6.628a.625.625 0 0 1 0-1.25h18.75c.345 0 .625.28.625.625z"/></symbol><symbol id="certificate" viewBox="0 0 32 32"><path fill="#444" d="M26.001 12.001c0-5.523-4.477-10-10-10s-10 4.477-10 10A9.984 9.984 0 0 0 9.999 20v9.734a1.25 1.25 0 0 0 2.133.884l3.866-3.862 3.868 3.854a1.25 1.25 0 0 0 2.133-.885v-9.723A9.983 9.983 0 0 0 26.001 12zm-17.5 0c0-2.003.78-3.887 2.197-5.303s3.3-2.197 5.303-2.197 3.887.78 5.303 2.197c1.417 1.417 2.197 3.3 2.197 5.303s-.78 3.887-2.197 5.303c-1.417 1.417-3.3 2.197-5.303 2.197s-3.887-.78-5.303-2.197a7.452 7.452 0 0 1-2.197-5.303zm10.998 14.714l-2.619-2.61a1.25 1.25 0 0 0-1.766.001l-2.615 2.612v-5.349a9.97 9.97 0 0 0 3.502.631 9.97 9.97 0 0 0 3.498-.63v5.344z"/></symbol><symbol id="check" viewBox="0 0 32 32"><path fill="#444" d="M29.644 6.242a1.25 1.25 0 0 0-1.768 0L11.137 22.981l-7.002-7.002a1.25 1.25 0 0 0-1.768 1.768l7.862 7.862.023.025c.244.244.565.366.885.366s.641-.122.885-.366l.022-.024 17.6-17.6a1.25 1.25 0 0 0 0-1.768z"/></symbol><symbol id="chevron-down" viewBox="0 0 32 32"><path fill="#444" d="M15.999 26.031c-.32 0-.64-.122-.884-.366L.367 10.919a1.25 1.25 0 0 1 1.768-1.768l13.864 13.862L29.862 9.152a1.25 1.25 0 0 1 1.768 1.768L16.883 25.665a1.246 1.246 0 0 1-.884.366z"/></symbol><symbol id="circle-hollow" viewBox="0 0 32 32"><path fill="#444" d="M30 16.031c0-7.732-6.268-14-14-14s-14 6.268-14 14 6.268 14 14 14 14-6.268 14-14zM7.868 24.163C5.696 21.991 4.5 19.103 4.5 16.031s1.196-5.96 3.368-8.132C10.04 5.727 12.928 4.531 16 4.531s5.96 1.196 8.132 3.368c2.172 2.172 3.368 5.06 3.368 8.132s-1.196 5.96-3.368 8.132c-2.172 2.172-5.06 3.368-8.132 3.368s-5.96-1.196-8.132-3.368z"/></symbol><symbol id="circle" viewBox="0 0 32 32"><path fill="#444" d="M30 16c0 7.732-6.268 14-14 14S2 23.732 2 16 8.268 2 16 2s14 6.268 14 14z"/></symbol><symbol id="close" viewBox="0 0 32 32"><path fill="#444" d="M21.657 19.933a1.25 1.25 0 0 1-1.768 1.768L16 17.812l-3.889 3.889a1.25 1.25 0 0 1-1.768-1.768l3.889-3.889-3.889-3.889a1.25 1.25 0 0 1 1.768-1.768L16 14.276l3.889-3.889a1.25 1.25 0 0 1 1.768 1.768l-3.889 3.889 3.889 3.889zm4.242 5.966c-5.467 5.467-14.332 5.467-19.799 0S.633 11.567 6.1 6.1C11.567.633 20.432.633 25.899 6.1s5.467 14.332 0 19.799zM27.5 16c0-3.072-1.196-5.96-3.368-8.132S19.072 4.5 16 4.5s-5.96 1.196-8.132 3.368S4.5 12.928 4.5 16s1.196 5.96 3.368 8.132S12.928 27.5 16 27.5s5.96-1.196 8.132-3.368S27.5 19.072 27.5 16z"/></symbol><symbol id="cog" viewBox="0 0 32 32"><path fill="#444" d="M12.389 4.734l.868.868a3.828 3.828 0 0 0 2.726 1.129H16.04a3.83 3.83 0 0 0 2.726-1.128l.863-.863c.612.197 1.206.444 1.778.739v1.249c0 1.027.419 2.025 1.151 2.746a3.873 3.873 0 0 0 2.744 1.149h1.233c.287.56.527 1.139.719 1.737l-.865.865a3.872 3.872 0 0 0-1.128 2.753 3.87 3.87 0 0 0 1.128 2.756l.873.873a11.574 11.574 0 0 1-.741 1.788h-1.218-.001a3.873 3.873 0 0 0-2.744 1.149 3.873 3.873 0 0 0-1.151 2.746v1.222c-.574.296-1.171.544-1.785.741l-.855-.855a3.829 3.829 0 0 0-2.727-1.129H15.983a3.83 3.83 0 0 0-2.726 1.128l-.861.861a11.668 11.668 0 0 1-1.803-.747v-1.192a3.873 3.873 0 0 0-1.149-2.745 3.873 3.873 0 0 0-2.746-1.151H5.495a11.617 11.617 0 0 1-.76-1.832l.859-.859a3.875 3.875 0 0 0 1.128-2.756 3.872 3.872 0 0 0-1.128-2.753l-.851-.851c.197-.613.443-1.207.739-1.78h1.217a3.873 3.873 0 0 0 2.746-1.151 3.875 3.875 0 0 0 1.149-2.744v-1.22a11.722 11.722 0 0 1 1.796-.745zm.782-2.853a14.322 14.322 0 0 0-5.149 2.133v2.683c0 .365-.153.694-.397.928a1.28 1.28 0 0 1-.928.398H4.016a14.33 14.33 0 0 0-2.128 5.131l1.887 1.887c.258.258.382.598.375.937.008.338-.117.679-.375.938l-1.893 1.893a14.31 14.31 0 0 0 2.151 5.186h2.664c.365 0 .694.153.928.398.244.234.397.562.397.927v2.656a14.309 14.309 0 0 0 5.156 2.135l1.895-1.895a1.28 1.28 0 0 1 .909-.375h.057c.329 0 .658.124.908.375l1.892 1.892a14.317 14.317 0 0 0 5.136-2.131v-2.686c0-.365.153-.694.398-.928.234-.244.563-.397.927-.397h2.684a14.293 14.293 0 0 0 2.128-5.141l-1.908-1.908a1.28 1.28 0 0 1-.375-.938 1.284 1.284 0 0 1 .375-.937l1.903-1.903a14.317 14.317 0 0 0-2.105-5.086h-2.701a1.28 1.28 0 0 1-.927-.397 1.28 1.28 0 0 1-.398-.928V4.015a14.3 14.3 0 0 0-5.128-2.129l-1.9 1.9a1.28 1.28 0 0 1-.908.375h-.057a1.28 1.28 0 0 1-.909-.375l-1.903-1.903zm2.824 7.946a6.168 6.168 0 1 0 0 12.336v.004h.07a6.213 6.213 0 0 0 1.346-.162 1.284 1.284 0 0 0-.563-2.508 3.6 3.6 0 0 1-.796.101.51.51 0 0 0-.057-.004c-1.984 0-3.598-1.614-3.598-3.598s1.614-3.598 3.598-3.598a3.602 3.602 0 0 1 3.505 4.409l-.001.008a1.285 1.285 0 0 0 2.515.528 6.168 6.168 0 0 0-6.02-7.515z"/></symbol><symbol id="comment" viewBox="0 0 32 32"><path fill="#444" d="M7.75 13.083c0 .69.56 1.25 1.25 1.25h14a1.25 1.25 0 0 0 0-2.5H9c-.69 0-1.25.56-1.25 1.25zM23 17.667H9a1.25 1.25 0 0 0 0 2.5h14a1.25 1.25 0 0 0 0-2.5z"/><path fill="#444" d="M28.911 6.011A1.232 1.232 0 0 0 28.75 6H3.25A1.25 1.25 0 0 0 2 7.25v17.5c0 .69.56 1.25 1.25 1.25h3.496v2.688c0 .69.56 1.25 1.25 1.25l.027-.001c.329.007.661-.113.912-.365l3.572-3.571H28.75c.431 0 .812-.219 1.037-.551l.009-.014c.019-.029.038-.058.054-.089l.004-.008c.093-.176.147-.375.147-.588v-17.5a1.25 1.25 0 0 0-1.089-1.239zM27.5 23.5h-23v-15h23v15z"/></symbol><symbol id="commit" viewBox="0 0 32 32"><path fill="#444" d="M30.751 14.75h-5.838a9 9 0 0 0-17.826 0H1.251a1.25 1.25 0 0 0 0 2.5h5.836a9 9 0 0 0 17.826 0h5.838a1.25 1.25 0 0 0 0-2.5zM16 22.5c-3.584 0-6.5-2.916-6.5-6.5s2.916-6.5 6.5-6.5 6.5 2.916 6.5 6.5-2.916 6.5-6.5 6.5z"/></symbol><symbol id="compass" viewBox="0 0 32 32"><path fill="#444" d="M30 16c0-7.732-6.268-14-14-14S2 8.268 2 16s6.268 14 14 14 14-6.268 14-14zM7.868 24.132C5.696 21.96 4.5 19.072 4.5 16s1.196-5.96 3.368-8.132C10.04 5.696 12.928 4.5 16 4.5s5.96 1.196 8.132 3.368C26.304 10.04 27.5 12.928 27.5 16s-1.196 5.96-3.368 8.132S19.072 27.5 16 27.5s-5.96-1.196-8.132-3.368z"/><path fill="#444" d="M17.679 17.679a.646.646 0 0 1-.095.078l-7.425 4.95a.625.625 0 0 1-.867-.867l4.95-7.425a.62.62 0 0 1 .173-.173l7.425-4.95a.625.625 0 0 1 .867.867l-4.95 7.425a.646.646 0 0 1-.078.095zm-5.613 2.255l4.72-3.147-1.573-1.573-3.147 4.721z"/></symbol><symbol id="copy" viewBox="0 0 32 32"><path fill="#444" d="M30.004 6.568l-.002-.041c-.001-.021-.001-.043-.003-.064l-.008-.069-.008-.053a1.563 1.563 0 0 0-.016-.073l-.012-.047a1.012 1.012 0 0 0-.024-.072l-.017-.046c-.009-.024-.02-.046-.031-.069l-.021-.044a.97.97 0 0 0-.04-.07l-.023-.037a.998.998 0 0 0-.061-.084l-.012-.016a1.256 1.256 0 0 0-.098-.108l-3.251-3.278a1.232 1.232 0 0 0-.392-.264l-.008-.004c-.031-.013-.063-.024-.095-.035l-.023-.008a1.289 1.289 0 0 0-.089-.023l-.031-.008c-.031-.006-.063-.01-.094-.014l-.029-.004a1.287 1.287 0 0 0-.124-.006H13.249a1.25 1.25 0 0 0-1.25 1.25v4.547H3.253a1.25 1.25 0 0 0-1.25 1.25v19.634c0 .69.56 1.25 1.25 1.25h15.504a1.252 1.252 0 0 0 1.251-1.25v-4.547h8.746a1.252 1.252 0 0 0 1.251-1.25V6.608v-.021l.001-.018zm-25.5 20.894V10.328h9.742v2.037c0 .69.56 1.25 1.25 1.25h2.011v13.847H4.503zm15.504-5.797v-9.26-.021l.001-.018-.002-.041c-.001-.021-.001-.043-.003-.064l-.008-.069-.008-.053a1.563 1.563 0 0 0-.016-.073l-.012-.047a1.012 1.012 0 0 0-.041-.118c-.009-.024-.02-.046-.031-.069l-.021-.044a.97.97 0 0 0-.04-.07l-.023-.037a.998.998 0 0 0-.061-.084l-.012-.016a1.256 1.256 0 0 0-.098-.108l-3.251-3.278a1.232 1.232 0 0 0-.392-.264l-.008-.004c-.031-.013-.063-.024-.095-.035l-.023-.008a1.289 1.289 0 0 0-.214-.045l-.028-.004a1.287 1.287 0 0 0-.124-.006h-.997V4.532h9.742v2.037c0 .69.56 1.25 1.25 1.25h2.011v13.847h-7.496z"/></symbol><symbol id="cpu" viewBox="0 0 32 32"><path fill="#444" d="M12.251 21h7.501c.69 0 1.25-.56 1.25-1.25v-7.501c0-.69-.56-1.25-1.25-1.25h-7.501c-.69 0-1.25.56-1.25 1.25v7.501c0 .69.56 1.25 1.25 1.25zm1.25-7.501h5.001V18.5h-5.001v-5.001zM29.25 17.25a1.25 1.25 0 0 0 0-2.5H27v-1.5h2.249a1.25 1.25 0 0 0 0-2.5h-2.25V6.251c0-.69-.56-1.25-1.25-1.25h-4.5v-2.25a1.25 1.25 0 0 0-2.5 0v2.251h-1.5v-2.25a1.25 1.25 0 0 0-2.5 0v2.25h-1.5v-2.25a1.25 1.25 0 0 0-2.5 0v2.25h-4.5c-.69 0-1.25.56-1.25 1.25v4.499H2.75a1.25 1.25 0 0 0 0 2.5h2.249v1.5H2.75a1.25 1.25 0 0 0 0 2.5h2.249v1.5H2.75a1.25 1.25 0 0 0 0 2.5h2.249v4.501c0 .69.56 1.25 1.25 1.25h4.5v2.249a1.25 1.25 0 0 0 2.5 0v-2.249h1.5v2.249a1.25 1.25 0 0 0 2.5 0v-2.249h1.5v2.249a1.25 1.25 0 0 0 2.5 0v-2.249h4.5c.69 0 1.25-.56 1.25-1.25v-4.501h2.249a1.25 1.25 0 0 0 0-2.5h-2.25v-1.5h2.249zm-4.749 7.251H7.499v-17h17v17z"/></symbol><symbol id="credit" viewBox="0 0 32 32"><path fill="#444" d="M11.756 21.002H8.252a1.25 1.25 0 0 1 0-2.5h3.504a1.25 1.25 0 0 1 0 2.5z"/><path fill="#444" d="M28.911 6.012A1.233 1.233 0 0 0 28.75 6H3.25A1.25 1.25 0 0 0 2 7.25v17.5c0 .69.56 1.25 1.25 1.25h25.5c.431 0 .812-.219 1.037-.551l.009-.014c.019-.029.038-.058.054-.089l.004-.008c.094-.175.147-.375.147-.588V7.25a1.25 1.25 0 0 0-1.089-1.239zM15.25 8.5H27.5v2.501h-23V8.5h10.75zm1.5 15H4.5v-7.499h23V23.5H16.75z"/></symbol><symbol id="cross" viewBox="0 0 32 32"><path fill="#444" d="M31.665 29.866L17.799 16 31.665 2.134A1.25 1.25 0 0 0 29.897.366L16.031 14.232 2.165.366A1.25 1.25 0 0 0 .397 2.134L14.263 16 .397 29.866a1.25 1.25 0 1 0 1.768 1.767l13.866-13.866 13.866 13.866a1.25 1.25 0 0 0 1.768-1.768z"/></symbol><symbol id="dashboard" viewBox="0 0 32 32"><path fill="#444" d="M17.737 21.092a2 2 0 1 1-2.029-2.977l4.593-7.955a1.249 1.249 0 1 1 2.164 1.25l-4.596 7.961c.21.545.182 1.177-.133 1.722z"/><path fill="#444" d="M16 6.539c3.072 0 5.96 1.196 8.132 3.368s3.368 5.06 3.368 8.132a11.41 11.41 0 0 1-2.343 6.96c-2.769-.958-5.902-1.46-9.173-1.46-3.26 0-6.385.499-9.148 1.451a11.413 11.413 0 0 1-2.337-6.952c0-3.072 1.196-5.96 3.368-8.132s5.06-3.368 8.132-3.368zm0-2.5c-7.732 0-14 6.268-14 14 0 3.874 1.574 7.381 4.117 9.916 2.718-1.2 6.144-1.916 9.867-1.916 3.733 0 7.167.72 9.889 1.925A13.955 13.955 0 0 0 30 18.039c0-7.732-6.268-14-14-14z"/></symbol><symbol id="database" viewBox="0 0 32 32"><path d="M27.998 6.918c-.107-2.729-5.437-4.927-11.997-4.927S4.11 4.19 4.004 6.918h-.003v18.073c0 2.767 5.372 5.011 12 5.011s12-2.243 12-5.011V6.918h-.003zm-3.048 6.538c-.488.356-1.178.698-1.996.991-1.906.68-4.375 1.055-6.953 1.055s-5.047-.375-6.953-1.055c-.819-.292-1.509-.635-1.996-.991a2.45 2.45 0 0 1-.504-.465v-2.903c2.197 1.171 5.614 1.924 9.453 1.924s7.257-.753 9.453-1.924v2.903a2.45 2.45 0 0 1-.504.465zm.504 2.621v2.914a2.45 2.45 0 0 1-.504.465c-.488.356-1.178.698-1.996.991-1.906.68-4.375 1.055-6.953 1.055s-5.047-.375-6.953-1.055c-.819-.292-1.509-.635-1.996-.991a2.45 2.45 0 0 1-.504-.465v-2.914c2.197 1.171 5.614 1.924 9.453 1.924s7.257-.753 9.453-1.924zM7.052 6.536c.487-.356 1.178-.698 1.996-.99 1.906-.68 4.375-1.055 6.953-1.055s5.047.375 6.953 1.055c.819.292 1.509.635 1.996.99.272.199.426.363.504.465v.001a2.45 2.45 0 0 1-.504.465c-.488.356-1.178.698-1.996.99-1.906.68-4.375 1.055-6.953 1.055s-5.047-.375-6.953-1.055c-.819-.292-1.509-.635-1.996-.99a2.479 2.479 0 0 1-.504-.465v-.001a2.45 2.45 0 0 1 .504-.465zm17.898 18.92c-.488.356-1.178.698-1.996.991-1.906.68-4.375 1.055-6.953 1.055s-5.047-.375-6.953-1.055c-.819-.292-1.509-.635-1.996-.991a2.45 2.45 0 0 1-.504-.465v-2.913c2.197 1.171 5.614 1.924 9.453 1.924s7.257-.753 9.453-1.924v2.913a2.45 2.45 0 0 1-.504.465z"/></symbol><symbol id="delete" viewBox="0 0 32 32"><path fill="#444" d="M25.9 6.101C20.433.634 11.568.634 6.101 6.101s-5.467 14.332 0 19.799c5.467 5.467 14.332 5.467 19.799 0s5.467-14.332 0-19.799zM7.868 7.868A11.425 11.425 0 0 1 16 4.5c2.651 0 5.165.892 7.2 2.532L7.032 23.2A11.414 11.414 0 0 1 4.5 16c0-3.072 1.196-5.96 3.368-8.132zm16.264 16.264A11.425 11.425 0 0 1 16 27.5c-2.651 0-5.165-.892-7.2-2.532L24.968 8.8A11.414 11.414 0 0 1 27.5 16c0 3.072-1.196 5.96-3.368 8.132z"/></symbol><symbol id="doc-chart" viewBox="0 0 32 32"><path fill="#444" d="M28.748 4h-25.5a1.25 1.25 0 0 0-1.25 1.25v21.5c0 .69.56 1.25 1.25 1.25h25.5c.691 0 1.25-.56 1.25-1.25V5.25c0-.69-.56-1.25-1.25-1.25zM12.373 14.708h7.25v5.083h-7.25v-5.083zm-1.25 5.084H4.498v-5.083h6.625v5.083zm1.25-6.334V9h7.25v4.458h-7.25zm8.5 1.25h6.625v5.083h-6.625v-5.083zm0-1.25V9h6.625v4.458h-6.625zM11.123 9v4.458H4.498V9h6.625zM4.498 21.042h6.625V25.5H4.498v-4.458zm7.875 0h7.25V25.5h-7.25v-4.458zm8.5 0h6.625V25.5h-6.625v-4.458z"/></symbol><symbol id="doc-list" viewBox="0 0 32 32"><path fill="#444" d="M28.748 4h-25.5a1.25 1.25 0 0 0-1.25 1.25v21.5c0 .69.56 1.25 1.25 1.25h25.5c.691 0 1.25-.56 1.25-1.25V5.25c0-.69-.56-1.25-1.25-1.25zM4.498 9h23v16.5h-23V9z"/><path fill="#444" d="M9 13.75h14a1.25 1.25 0 0 0 0-2.5H9a1.25 1.25 0 0 0 0 2.5zM23 16H9a1.25 1.25 0 0 0 0 2.5h14a1.25 1.25 0 0 0 0-2.5zM23 20.75H9a1.25 1.25 0 0 0 0 2.5h14a1.25 1.25 0 0 0 0-2.5z"/></symbol><symbol id="document" viewBox="0 0 32 32"><path fill="#444" d="M26.999 7.577c0-.007-.003-.123-.005-.144l-.015-.117-.017-.078-.012-.047a2.582 2.582 0 0 0-.041-.118 2.175 2.175 0 0 0-.052-.113.998.998 0 0 0-.124-.191l-.012-.016a1.256 1.256 0 0 0-.098-.108l-3.251-3.278a1.232 1.232 0 0 0-.392-.264l-.125-.046a1.289 1.289 0 0 0-.089-.023l-.031-.008a1.287 1.287 0 0 0-.247-.024H6.249a1.25 1.25 0 0 0-1.25 1.25v23.5c0 .69.56 1.25 1.25 1.25h19.5c.69 0 1.25-.56 1.25-1.25l-.001-20.173zM24.5 26.5h-17v-21h13.738v2.037c0 .69.56 1.25 1.25 1.25h2.011L24.5 26.5z"/><path fill="#444" d="M11.25 10.5a1.25 1.25 0 0 0 0 2.5h9.5a1.25 1.25 0 0 0 0-2.5h-9.5zM20.75 15.25h-9.5a1.25 1.25 0 0 0 0 2.5h9.5a1.25 1.25 0 0 0 0-2.5zM20.75 20h-9.5a1.25 1.25 0 0 0 0 2.5h9.5a1.25 1.25 0 0 0 0-2.5z"/></symbol><symbol id="download" viewBox="0 0 32 32"><path fill="#444" d="M27.531 16.037c0 3.072-1.196 5.96-3.368 8.132s-5.06 3.368-8.132 3.368-5.96-1.196-8.132-3.368-3.368-5.06-3.368-8.132 1.196-5.96 3.368-8.132 5.06-3.368 8.132-3.368 5.96 1.196 8.132 3.368 3.368 5.06 3.368 8.132zm2.5 0c0-7.732-6.268-14-14-14s-14 6.268-14 14 6.268 14 14 14 14-6.268 14-14zm-13.166 7.637l3.92-3.906a1.25 1.25 0 0 0-1.765-1.771l-1.788 1.781V9.288a1.25 1.25 0 0 0-2.5 0v10.477l-1.761-1.766a1.25 1.25 0 1 0-1.77 1.766l3.896 3.906a1.25 1.25 0 0 0 1.767.003z"/></symbol><symbol id="edit" viewBox="0 0 32 32"><path fill="#444" d="M29.642 8.23a1.25 1.25 0 0 0-.003-1.773l-.028-.025-4.041-4.02a1.246 1.246 0 0 0-.888-.371c-.32 0-.64.122-.884.366l-.006.006-19.88 19.88a1.25 1.25 0 0 0-.384.617L2.04 28.462a1.248 1.248 0 0 0 1.532 1.53l5.552-1.488c.228-.061.429-.184.586-.351l16.296-16.296a1.231 1.231 0 0 0 .193-.193l3.367-3.367c.026-.022.052-.045.077-.069zm-4.426.884l-2.3-2.288 1.769-1.769 2.3 2.287-1.769 1.769zM8.799 25.531l-2.294-2.294L21.148 8.594l2.3 2.288L8.799 25.531zM5.016 27.02l.367-1.369 1.002 1.003-1.369.367z"/></symbol><symbol id="ellipsis" viewBox="0 0 32 32"><path fill="#444" d="M5.75 12.281a3.75 3.75 0 1 1 0 7.5 3.75 3.75 0 0 1 0-7.5zm10.25 0a3.75 3.75 0 1 1 0 7.5 3.75 3.75 0 0 1 0-7.5zm10.25 0a3.75 3.75 0 1 1 0 7.5 3.75 3.75 0 0 1 0-7.5z"/></symbol><symbol id="email" viewBox="0 0 32 32"><path fill="#444" d="M30.001 8.375a1.246 1.246 0 0 0-.988-1.315l-.012-.003a1.2 1.2 0 0 0-.102-.016c-.008-.001-.015-.003-.023-.003a1.535 1.535 0 0 0-.097-.005l-.027-.001h-25.5A1.25 1.25 0 0 0 2.005 8.22c-.001.02-.003.039-.003.059V23.783c0 .69.56 1.25 1.25 1.25h25.5c.431 0 .812-.219 1.037-.551l.009-.014c.019-.029.037-.058.054-.089l.004-.008a1.25 1.25 0 0 0 .147-.588V8.376zm-25.5 2.567l10.623 8.787a1.245 1.245 0 0 0 .877.356l.047-.002a2.2 2.2 0 0 0 .094-.006c.27-.03.531-.146.736-.348l10.623-8.788v11.59h-23v-11.59zm2.22-1.41h18.56l-9.28 7.669-9.28-7.669z"/></symbol><symbol id="expand-alt" viewBox="0 0 32 32"><path d="M16 29.999c-.32 0-.64-.122-.884-.366l-7.497-7.495a1.25 1.25 0 0 1 1.768-1.768L16 26.981l6.616-6.614a1.25 1.25 0 0 1 1.768 1.768l-7.5 7.498a1.246 1.246 0 0 1-.884.366zM16.003 2.001c.32 0 .64.122.884.366l7.497 7.495a1.25 1.25 0 0 1-1.768 1.768l-6.613-6.611-6.616 6.614a1.25 1.25 0 0 1-1.768-1.768l7.5-7.498c.244-.244.564-.366.884-.366z"/></symbol><symbol id="expand" viewBox="0 0 32 32"><path fill="#444" d="M29.99 28.752l.01-5.5a1.25 1.25 0 0 0-2.5-.004l-.004 2.49-7.367-7.367a1.25 1.25 0 0 0-1.768 1.768l7.358 7.358-2.467-.003a1.25 1.25 0 0 0-.004 2.499l5.49.007c.69.001 1.25-.558 1.252-1.248zM28.756 2.007l-5.5-.01a1.25 1.25 0 1 0-.004 2.5l2.49.004-7.367 7.367a1.25 1.25 0 0 0 1.768 1.768l7.358-7.358-.003 2.467a1.25 1.25 0 0 0 2.499.004l.007-5.49a1.251 1.251 0 0 0-1.248-1.252zM2.007 3.242l-.01 5.5a1.25 1.25 0 1 0 2.5.004l.004-2.49 7.367 7.367a1.25 1.25 0 0 0 1.768-1.768L6.278 4.497l2.467.003a1.25 1.25 0 0 0 .004-2.499l-5.49-.007a1.251 1.251 0 0 0-1.252 1.248zm1.235 26.751l5.5.01a1.25 1.25 0 0 0 .004-2.5l-2.49-.004 7.367-7.367a1.25 1.25 0 0 0-1.768-1.768l-7.358 7.358.003-2.467a1.25 1.25 0 0 0-2.499-.004l-.007 5.49c-.001.69.558 1.25 1.248 1.252z"/></symbol><symbol id="eye" viewBox="0 0 32 32"><path fill="#444" d="M31.522 15.329c-.281-.394-6.977-9.65-15.521-9.65-8.545 0-15.24 9.257-15.521 9.65l-.479.672.479.671c.281.394 6.976 9.65 15.521 9.65 8.544 0 15.24-9.256 15.521-9.65l.479-.671-.479-.672zM25.24 19.74c-1.438 1.223-2.892 2.189-4.324 2.872-1.684.802-3.337 1.209-4.915 1.209s-3.231-.407-4.915-1.209c-1.432-.682-2.887-1.649-4.324-2.872A28.944 28.944 0 0 1 3.118 16a29.09 29.09 0 0 1 3.644-3.741c1.437-1.223 2.892-2.19 4.324-2.872 1.684-.802 3.337-1.209 4.915-1.209s3.231.407 4.915 1.209c1.432.683 2.887 1.649 4.324 2.872A28.978 28.978 0 0 1 28.885 16a29.009 29.009 0 0 1-3.644 3.74z"/><path fill="#444" d="M21.626 16.001a5.624 5.624 0 1 1-11.25 0 5.624 5.624 0 1 1 11.25 0z"/></symbol><symbol id="face-happy" viewBox="0 0 32 32"><path fill="#444" d="M30 16.031c0-7.732-6.268-14-14-14s-14 6.268-14 14 6.268 14 14 14 14-6.268 14-14zM7.868 24.163C5.696 21.991 4.5 19.103 4.5 16.031s1.196-5.96 3.368-8.132C10.04 5.727 12.928 4.531 16 4.531s5.96 1.196 8.132 3.368c2.172 2.172 3.368 5.06 3.368 8.132s-1.196 5.96-3.368 8.132c-2.172 2.172-5.06 3.368-8.132 3.368s-5.96-1.196-8.132-3.368z"/><path fill="#444" d="M13.016 12.031a2 2 0 1 1-3.999.001 2 2 0 0 1 3.999-.001zM23 12.031a2 2 0 1 1-3.999.001A2 2 0 0 1 23 12.031zM24.031 19.281c0-.228-.062-.44-.168-.624v-.001a1.249 1.249 0 0 0-2.163 0h-.003c-1.117 1.976-3.238 3.312-5.666 3.312s-4.548-1.337-5.665-3.312h-.003a1.249 1.249 0 0 0-2.163 0h-.004v.006a1.247 1.247 0 0 0 0 1.238v.003a9.001 9.001 0 0 0 7.835 4.566 9 9 0 0 0 7.832-4.56v-.003c.106-.184.168-.397.168-.624z"/></symbol><symbol id="face-neutral" viewBox="0 0 32 32"><path fill="#444" d="M30.25 16.031c0-7.732-6.268-14-14-14s-14 6.268-14 14 6.268 14 14 14 14-6.268 14-14zM8.118 24.163c-2.172-2.172-3.368-5.06-3.368-8.132s1.196-5.96 3.368-8.132c2.172-2.172 5.06-3.368 8.132-3.368s5.96 1.196 8.132 3.368c2.172 2.172 3.368 5.06 3.368 8.132s-1.196 5.96-3.368 8.132c-2.172 2.172-5.06 3.368-8.132 3.368s-5.96-1.196-8.132-3.368z"/><path fill="#444" d="M13.266 12.031a2 2 0 1 1-3.999.001 2 2 0 0 1 3.999-.001zM23.25 12.031a2 2 0 1 1-3.999.001 2 2 0 0 1 3.999-.001zM23.031 18.781h-13.5a1.25 1.25 0 0 0 0 2.5h13.5a1.25 1.25 0 0 0 0-2.5z"/></symbol><symbol id="face-sad" viewBox="0 0 32 32"><path fill="#444" d="M30 16.031c0-7.732-6.268-14-14-14s-14 6.268-14 14 6.268 14 14 14 14-6.268 14-14zM7.868 24.163C5.696 21.991 4.5 19.103 4.5 16.031s1.196-5.96 3.368-8.132C10.04 5.727 12.928 4.531 16 4.531s5.96 1.196 8.132 3.368c2.172 2.172 3.368 5.06 3.368 8.132s-1.196 5.96-3.368 8.132c-2.172 2.172-5.06 3.368-8.132 3.368s-5.96-1.196-8.132-3.368z"/><path fill="#444" d="M13.016 12.031a2 2 0 1 1-3.999.001 2 2 0 0 1 3.999-.001zM23 12.031a2 2 0 1 1-3.999.001A2 2 0 0 1 23 12.031zM8.031 22c0 .228.062.44.168.624v.001a1.249 1.249 0 0 0 2.163 0h.003c1.118-1.976 3.238-3.312 5.666-3.312s4.548 1.337 5.665 3.312h.003a1.249 1.249 0 0 0 2.163 0h.004v-.006a1.247 1.247 0 0 0 0-1.238v-.003a9.001 9.001 0 0 0-7.835-4.566 9 9 0 0 0-7.832 4.56v.003a1.247 1.247 0 0 0-.168.624z"/></symbol><symbol id="facebook" viewBox="0 0 32 32"><path fill="#444" d="M18.204 30h-5.246V16h-3.5v-4.825l3.5-.002-.005-2.842C12.952 4.394 14.019 2 18.656 2h3.861v4.826h-2.412c-1.806 0-1.893.674-1.893 1.933l-.007 2.415h4.339l-.512 4.825-3.824.002-.004 14z"/></symbol><symbol id="filter" viewBox="0 0 32 32"><path fill="#444" d="M30.063 5.251c0 .69-.56 1.25-1.25 1.25h-25.5a1.25 1.25 0 0 1 0-2.5h25.5c.69 0 1.25.56 1.25 1.25zm-6 11.75c0 .69-.56 1.25-1.25 1.25h-13.5a1.25 1.25 0 0 1 0-2.5h13.5c.69 0 1.25.56 1.25 1.25zm-4 5.75c0 .69-.56 1.25-1.25 1.25h-5.5a1.25 1.25 0 0 1 0-2.5h5.5c.69 0 1.25.56 1.25 1.25zm7-11.75c0 .69-.56 1.25-1.25 1.25h-19.5a1.25 1.25 0 0 1 0-2.5h19.5c.69 0 1.25.56 1.25 1.25zm-11.062 18a1.25 1.25 0 0 0 0-2.5 1.25 1.25 0 0 0 0 2.5z"/></symbol><symbol id="flag" viewBox="0 0 32 32"><path fill="#444" d="M5.25 30.002c-.69 0-1.25-.56-1.25-1.25V3.241c0-.69.56-1.25 1.25-1.25h21.491a1.25 1.25 0 0 1 .884 2.134l-5.904 5.904 5.913 5.913a1.25 1.25 0 0 1-.884 2.134H6.5v10.677c0 .69-.56 1.25-1.25 1.25zM6.5 15.575h17.232l-4.663-4.663a1.25 1.25 0 0 1 0-1.768l4.654-4.654H6.5v11.085z"/></symbol><symbol id="form" viewBox="0 0 32 32"><path fill="#444" d="M29.636 3.821a1.25 1.25 0 0 0-1.768 0L14.008 17.65l-6.069-6.069a1.25 1.25 0 0 0-1.768 1.768l6.929 6.929.023.025c.244.244.565.366.885.366s.641-.122.885-.366l.022-.024 14.721-14.69a1.25 1.25 0 0 0 0-1.768z"/><path fill="#444" d="M3.074 4.014c-.591 0-1.071.479-1.071 1.071V26.93c0 .591.479 1.071 1.071 1.071h21.845c.591 0 1.071-.479 1.071-1.071V13.474v-.056a1.25 1.25 0 0 0-2.5 0V25.5H4.504V6.514h18.75a1.25 1.25 0 0 0 0-2.5z"/></symbol><symbol id="gdrive" viewBox="0 0 32 32"><path fill="#444" d="M14.56 20.042l-4.667 8.085h15.44l4.666-8.085h-15.44zm14.118-2.292l-8.01-13.877h-9.334l8.011 13.877h9.333zM10.007 6.17L2 20.042l4.668 8.085 8.007-13.872-4.667-8.085z"/></symbol><symbol id="github" viewBox="0 0 32 32"><path fill="#444" d="M16.002 2.001c-7.732 0-14 6.268-14 14s6.268 14 14 14 14-6.268 14-14-6.268-14-14-14zM7.87 24.133c-2.172-2.172-3.368-5.06-3.368-8.132s1.196-5.96 3.368-8.132c2.172-2.172 5.06-3.368 8.132-3.368s5.96 1.196 8.132 3.368c2.172 2.172 3.368 5.06 3.368 8.132s-1.196 5.96-3.368 8.132a11.445 11.445 0 0 1-4.709 2.852V24.95c0-1.081-.371-1.876-1.112-2.385.465-.045.891-.107 1.279-.188s.799-.197 1.233-.348.822-.333 1.166-.543c.344-.21.674-.482.991-.817s.583-.715.797-1.139c.215-.424.384-.933.509-1.527s.188-1.248.188-1.963c0-1.384-.451-2.563-1.353-3.537.411-1.072.366-2.237-.134-3.497l-.335-.04c-.232-.027-.65.071-1.253.295s-1.279.589-2.03 1.098a12.317 12.317 0 0 0-3.309-.442c-1.152 0-2.251.147-3.296.442-.473-.322-.922-.587-1.346-.797s-.764-.353-1.018-.429a3.503 3.503 0 0 0-1.132-.154.844.844 0 0 0-.134.027c-.5 1.268-.545 2.434-.134 3.497-.902.973-1.353 2.152-1.353 3.537 0 .715.063 1.369.188 1.963s.295 1.103.509 1.527.48.804.797 1.139c.317.335.647.607.991.817s.732.391 1.166.543c.433.152.844.268 1.233.348s.815.143 1.279.188c-.732.5-1.098 1.295-1.098 2.385v2.075a11.44 11.44 0 0 1-4.843-2.893z"/></symbol><symbol id="globe" viewBox="0 0 32 32"><path fill="#444" d="M16.59 2.045a3.938 3.938 0 0 0-1.18 0C7.952 2.354 2 8.497 2 16.032c0 7.732 6.268 14 14 14s14-6.268 14-14c0-7.534-5.952-13.677-13.41-13.987zm10.843 12.736H22.48c-.099-2.892-.548-5.602-1.289-7.734a13.543 13.543 0 0 0-.663-1.593A11.464 11.464 0 0 1 24.133 7.9a11.412 11.412 0 0 1 3.301 6.882zM16 27.5c-2.059 0-3.753-4.471-3.975-10.219h7.95C19.753 23.029 18.058 27.5 16 27.5zm-3.978-12.719c.201-5.48 1.74-9.813 3.661-10.245a11.112 11.112 0 0 1 .634 0c1.921.433 3.46 4.765 3.661 10.245h-7.955zM7.868 7.899a11.504 11.504 0 0 1 3.605-2.446c-.24.483-.462 1.015-.663 1.593-.742 2.132-1.191 4.842-1.29 7.734H4.567a11.412 11.412 0 0 1 3.301-6.882zm-3.301 9.382h4.956c.103 2.869.551 5.555 1.287 7.672.212.611.448 1.169.704 1.673a11.494 11.494 0 0 1-3.646-2.463 11.412 11.412 0 0 1-3.301-6.882zm19.565 6.882a11.494 11.494 0 0 1-3.646 2.463c.256-.504.491-1.062.704-1.673.736-2.117 1.184-4.803 1.287-7.672h4.956a11.412 11.412 0 0 1-3.301 6.882z"/></symbol><symbol id="google" viewBox="0 0 32 32"><path fill="#444" d="M24.972 2.5h-8.373c-3.754 0-7.287 2.844-7.287 6.139 0 3.365 2.559 6.082 6.379 6.082.265 0 .523-.005.775-.023-.248.475-.425 1.009-.425 1.563 0 .937.503 1.695 1.14 2.314-.48 0-.945.014-1.451.014-4.649.001-8.229 2.962-8.229 6.033 0 3.024 3.923 4.916 8.572 4.916 5.302 0 8.229-3.008 8.229-6.032 0-2.425-.716-3.877-2.928-5.442-.757-.535-2.204-1.838-2.204-2.604 0-.897.256-1.34 1.606-2.394 1.386-1.082 2.365-2.603 2.365-4.373 0-2.105-.938-4.158-2.699-4.836h2.656l1.873-1.355zm-3.05 20.482c.065.281.102.57.102.863 0 2.445-1.574 4.353-6.092 4.353-3.215 0-5.535-2.034-5.535-4.478 0-2.394 2.879-4.389 6.092-4.354.75.008 1.449.129 2.084.334 1.744 1.214 2.996 1.9 3.349 3.281zm-5.146-9.114c-2.156-.065-4.207-2.413-4.58-5.246-.371-2.833 1.074-5.001 3.233-4.937 2.156.064 4.206 2.338 4.579 5.17.372 2.834-1.075 5.078-3.232 5.013z"/></symbol><symbol id="graph-bar" viewBox="0 0 32 32"><path fill="#444" d="M10.151 16.031c.69 0 1.25.56 1.25 1.25v9.5a1.25 1.25 0 0 1-2.5 0v-9.5c0-.69.56-1.25 1.25-1.25zM27.651 4.031c.69 0 1.25.56 1.25 1.25v21.5a1.25 1.25 0 0 1-2.5 0v-21.5c0-.69.56-1.25 1.25-1.25zM21.818 8.031c.69 0 1.25.56 1.25 1.25v17.5a1.25 1.25 0 0 1-2.5 0v-17.5c0-.69.56-1.25 1.25-1.25zM15.984 12.031c.69 0 1.25.56 1.25 1.25v13.5a1.25 1.25 0 0 1-2.5 0v-13.5c0-.69.56-1.25 1.25-1.25zM4.349 20.031c.69 0 1.25.56 1.25 1.25v5.5a1.25 1.25 0 0 1-2.5 0v-5.5c0-.69.56-1.25 1.25-1.25z"/></symbol><symbol id="graph-line" viewBox="0 0 32 32"><path fill="#444" d="M25.642 13.521l-2.165-2.165-.03-.034c-.244-.244-.565-.366-.885-.366s-.641.121-.886.366l-.03.034-5.278 5.278-3.006-3.006c-.244-.244-.564-.366-.884-.366s-.64.122-.884.366l-5.28 5.28a1.25 1.25 0 0 0 1.768 1.768l4.396-4.396 3.006 3.006c.244.244.565.366.885.366s.641-.122.885-.366l5.309-5.309 1.313 1.313a1.25 1.25 0 0 0 1.768-1.768z"/><path fill="#444" d="M27.5 4.5v23h-23v-23h23zM28.75 2H3.25C2.56 2 2 2.56 2 3.25v25.5c0 .69.56 1.25 1.25 1.25h25.5c.69 0 1.25-.56 1.25-1.25V3.25C30 2.56 29.44 2 28.75 2z"/></symbol><symbol id="graphql" viewBox="0 0 32 32"><path fill="#444" d="M28.012 19.854a2.705 2.705 0 0 0-.71-.284v-7.13a2.673 2.673 0 1 0-2.564-4.441l-6.174-3.565a2.673 2.673 0 1 0-5.127 0L7.262 7.998a2.673 2.673 0 1 0-2.564 4.441v7.13a2.673 2.673 0 1 0 2.564 4.441l6.175 3.565a2.673 2.673 0 1 0 5.102-.081l6.142-3.546a2.673 2.673 0 1 0 3.331-4.095zm-20.09 1.684a2.687 2.687 0 0 0-.747-1.298l8.08-13.994a2.663 2.663 0 0 0 1.49 0l8.08 13.995a2.67 2.67 0 0 0-.747 1.296H7.922zM24.106 9.107a2.667 2.667 0 0 0 1.921 3.328v7.142a1.632 1.632 0 0 0-.1.027l-8.08-13.995.074-.074 6.185 3.571zM14.079 5.536c.023.024.047.048.072.071L6.07 19.602a2.802 2.802 0 0 0-.098-.026v-7.142a2.667 2.667 0 0 0 1.921-3.328l6.185-3.57zm3.902 21.002A2.667 2.667 0 0 0 16 25.66c-.755 0-1.436.313-1.922.816l-6.185-3.571.025-.093h16.163c.015.059.03.117.049.175l-6.15 3.551z"/></symbol><symbol id="grid" viewBox="0 0 32 32"><path fill="#444" d="M13.661 17.262a1.233 1.233 0 0 0-.161-.012H5.251a1.25 1.25 0 0 0-1.25 1.25v8.251c0 .69.56 1.25 1.25 1.25H13.5c.431 0 .812-.219 1.037-.551l.009-.014a1.315 1.315 0 0 0 .058-.097c.094-.175.147-.375.147-.588V18.5c0-.636-.475-1.159-1.089-1.238zm-7.16 8.239V19.75h5.749v5.751H6.501zM13.661 4.013a1.233 1.233 0 0 0-.161-.012H5.251a1.25 1.25 0 0 0-1.25 1.25V13.5c0 .69.56 1.25 1.25 1.25H13.5c.431 0 .812-.219 1.037-.551l.009-.014a1.315 1.315 0 0 0 .058-.097c.094-.175.147-.375.147-.588V5.251a1.25 1.25 0 0 0-1.089-1.239zm-7.16 8.237V6.501h5.749v5.749H6.501zM26.913 17.262a1.233 1.233 0 0 0-.161-.012H18.5a1.25 1.25 0 0 0-1.25 1.25v8.251c0 .69.56 1.25 1.25 1.25h8.252c.431 0 .812-.219 1.037-.551l.009-.014c.019-.029.038-.058.054-.089l.004-.008c.094-.175.147-.375.147-.588V18.5c0-.636-.475-1.159-1.089-1.238zm-7.163 8.239V19.75h5.752v5.751H19.75zM26.913 4.013a1.233 1.233 0 0 0-.161-.012H18.5a1.25 1.25 0 0 0-1.25 1.25V13.5c0 .69.56 1.25 1.25 1.25h8.252c.431 0 .812-.219 1.037-.551l.009-.014c.019-.029.038-.058.054-.089l.004-.008c.094-.175.147-.375.147-.588V5.251a1.25 1.25 0 0 0-1.089-1.239zM19.75 12.25V6.501h5.752v5.749H19.75z"/></symbol><symbol id="grow" viewBox="0 0 32 32"><path fill="#444" d="M16.911 14.012A1.233 1.233 0 0 0 16.75 14H5.251a1.25 1.25 0 0 0-1.25 1.25v11.501c0 .69.56 1.25 1.25 1.25H16.75c.431 0 .812-.219 1.037-.551l.009-.014c.019-.029.038-.058.054-.089l.004-.008c.094-.175.147-.375.147-.588V15.25a1.25 1.25 0 0 0-1.089-1.239zM6.5 25.501V16.5h8.999v9.001H6.5z"/><path fill="#444" d="M23.001 10.255a1.249 1.249 0 0 0-1.25-1.25h-16.5a1.25 1.25 0 0 0 0 2.5h15.251v15.247a1.25 1.25 0 0 0 2.5 0V10.255z"/><path fill="#444" d="M26.912 4.013a1.233 1.233 0 0 0-.161-.012h-21.5a1.25 1.25 0 0 0 0 2.5h20.25v20.25a1.25 1.25 0 0 0 2.5 0v-21.5c0-.636-.475-1.159-1.089-1.238z"/></symbol><symbol id="heart-hollow" viewBox="0 0 32 32"><path fill="#444" d="M22.402 6.5c.866 0 1.628.126 2.265.373l.004.002.004.002c.621.239 1.118.552 1.52.957l.005.005.005.005c.393.392.697.883.928 1.503.243.681.366 1.462.366 2.324 0 .458-.061.888-.186 1.315l-.001.003-.001.003a7.048 7.048 0 0 1-.587 1.436l-.005.009-.005.009c-.275.514-.581.985-.933 1.442l-.006.008c-.354.462-.734.897-1.13 1.293l-8.66 8.612-8.654-8.636c-.416-.42-.789-.846-1.14-1.305a10.241 10.241 0 0 1-.92-1.422 8.002 8.002 0 0 1-.584-1.452A4.776 4.776 0 0 1 4.5 11.67c0-.855.126-1.635.375-2.318.225-.606.542-1.116.94-1.515.406-.408.905-.723 1.526-.966.639-.25 1.368-.371 2.229-.371.361 0 .711.054 1.041.162l.012.004.012.004c.41.129.815.309 1.203.534l.011.006.011.006c.398.226.791.496 1.201.825.453.372.846.72 1.201 1.064l1.781 1.725 1.739-1.767c.323-.328.693-.658 1.133-1.008a9.094 9.094 0 0 1 1.226-.834l.008-.005.008-.005c.407-.233.82-.418 1.228-.552h.002l.002-.001a3.19 3.19 0 0 1 1.017-.159zm0-2.5c-.611 0-1.211.09-1.8.284a9.14 9.14 0 0 0-1.69.758c-.546.307-1.064.665-1.56 1.059-.501.4-.952.799-1.355 1.208a22.183 22.183 0 0 0-1.363-1.208 11.625 11.625 0 0 0-1.543-1.059 8.429 8.429 0 0 0-1.71-.758A5.843 5.843 0 0 0 9.567 4c-1.16 0-2.205.178-3.14.543-.929.363-1.729.871-2.385 1.529S2.879 7.54 2.527 8.488c-.349.954-.529 2.016-.529 3.182 0 .676.096 1.346.287 2.017.197.659.45 1.312.777 1.926s.709 1.203 1.143 1.768a16.04 16.04 0 0 0 1.354 1.549l9.555 9.535c.265.236.566.358.881.358.335 0 .622-.121.853-.358l9.56-9.507a15.6 15.6 0 0 0 1.349-1.543c.439-.569.822-1.163 1.158-1.788.341-.623.6-1.27.794-1.938a7.124 7.124 0 0 0 .287-2.019c0-1.166-.175-2.227-.518-3.182-.352-.949-.851-1.757-1.512-2.417-.653-.658-1.453-1.166-2.396-1.529-.941-.366-2-.543-3.171-.543z"/></symbol><symbol id="heart" viewBox="0 0 32 32"><path fill="#444" d="M27.97 6.073c-.653-.658-1.453-1.166-2.396-1.529-.941-.366-2-.543-3.171-.543-.611 0-1.211.09-1.8.284a9.14 9.14 0 0 0-1.69.758c-.546.307-1.064.665-1.56 1.059-.501.4-.952.799-1.355 1.208a22.183 22.183 0 0 0-1.363-1.208 11.625 11.625 0 0 0-1.543-1.059 8.429 8.429 0 0 0-1.71-.758 5.843 5.843 0 0 0-1.814-.284c-1.16 0-2.205.178-3.14.543-.929.363-1.729.871-2.385 1.529S2.88 7.541 2.528 8.489c-.349.954-.529 2.016-.529 3.182 0 .676.096 1.346.287 2.017.197.659.45 1.312.777 1.926s.709 1.203 1.143 1.768a16.04 16.04 0 0 0 1.354 1.549l9.555 9.535c.265.236.566.358.881.358.335 0 .622-.121.853-.358l9.56-9.507a15.6 15.6 0 0 0 1.349-1.543c.439-.569.822-1.163 1.158-1.788.341-.623.6-1.27.794-1.938a7.124 7.124 0 0 0 .287-2.019c0-1.166-.175-2.227-.518-3.182-.352-.949-.851-1.757-1.512-2.417z"/></symbol><symbol id="home" viewBox="0 0 32 32"><path fill="#444" d="M29.629 15.113L16.885 2.371c-.244-.244-.564-.366-.884-.366s-.64.122-.884.366L2.369 15.117a1.25 1.25 0 0 0 1.768 1.768l.613-.613v11.46c0 .69.56 1.25 1.25 1.25h5.959l.039.002a1.251 1.251 0 0 0 1.252-1.252l-.002-.039v-8.225h5.502v8.248c0 .69.56 1.25 1.25 1.25l5.996.004c.072 0 .141-.007.21-.019l.042-.006.02-.005a1.25 1.25 0 0 0 .978-1.22V16.267l.615.615a1.25 1.25 0 0 0 1.768-1.768zm-4.883-1.105v12.46l-3.496-.002V18.22v-.002-.001c0-.69-.56-1.25-1.25-1.25h-7.938l-.052.003-.013-.001c-.69 0-1.25.56-1.25 1.25v8.262H7.249V14c0-.071-.007-.141-.019-.209L16 5.023l8.766 8.765a1.245 1.245 0 0 0-.021.221z"/></symbol><symbol id="hourglass" viewBox="0 0 32 32"><path fill="#444" d="M15.998 25.061a1.25 1.25 0 0 1 0-2.5 1.25 1.25 0 0 1 0 2.5z"/><path fill="#444" d="M24.322 23.426a.153.153 0 0 0-.011-.016l-4.952-7.412 4.929-7.378.005-.007.005-.007.174-.261c.029-.043.055-.088.078-.134a9.964 9.964 0 0 0 1.434-4.77 1.25 1.25 0 0 0-1.234-1.439H7.25A1.25 1.25 0 0 0 6.013 3.42a9.941 9.941 0 0 0 1.679 5.174l4.953 7.413-4.928 7.376-.005.007-.005.007-.174.261a1.198 1.198 0 0 0-.078.134 9.973 9.973 0 0 0-1.433 4.736 1.25 1.25 0 0 0 1.229 1.473h17.5a1.25 1.25 0 0 0 1.24-1.401 9.948 9.948 0 0 0-1.668-5.175zM22.441 7.03a.99.99 0 0 0-.036.062l-1.819 2.722h-9.175L9.715 7.275l-.006-.009-.001-.001-.011-.016a7.516 7.516 0 0 1-1.136-2.747h14.875a7.56 7.56 0 0 1-.995 2.529zm-8.345 6.803l-1.015-1.519h5.834l-2.918 4.367-.451-.675.001-.001-1.451-2.172zM9.597 24.911l4.498-6.732.899 1.345a1.206 1.206 0 0 0 2.006 0l.906-1.355.001.001 4.382 6.558.006.009.001.001a7.516 7.516 0 0 1 1.147 2.763H8.566c.176-.893.511-1.75.995-2.528l.036-.062z"/></symbol><symbol id="info" viewBox="0 0 32 32"><path fill="#444" d="M25.899 6.101C20.432.634 11.567.634 6.1 6.101S.633 20.433 6.1 25.9c5.467 5.467 14.332 5.467 19.799 0s5.467-14.332 0-19.799zm-1.767 18.031C21.96 26.304 19.072 27.5 16 27.5s-5.96-1.196-8.132-3.368C5.696 21.96 4.5 19.072 4.5 16s1.196-5.96 3.368-8.132C10.04 5.696 12.928 4.5 16 4.5s5.96 1.196 8.132 3.368C26.304 10.04 27.5 12.928 27.5 16s-1.196 5.96-3.368 8.132z"/><path fill="#444" d="M16.031 11.285a1.25 1.25 0 0 1 0-2.5 1.25 1.25 0 0 1 0 2.5zM16.031 23.222c-.69 0-1.25-.56-1.25-1.25v-7.5a1.25 1.25 0 0 1 2.5 0v7.5c0 .69-.56 1.25-1.25 1.25z"/></symbol><symbol id="key" viewBox="0 0 32 32"><path fill="#444" d="M24.001 10.001a2 2 0 1 1-3.999.001 2 2 0 0 1 3.999-.001z"/><path fill="#444" d="M21.001 2.034a9 9 0 0 0-8.437 12.139L2.393 24.344a1.244 1.244 0 0 0-.369.67l-.002.012c-.006.035-.012.07-.015.106-.002.019-.002.039-.003.058l-.003.061v3.5a1.25 1.25 0 0 0 1.25 1.25h5.504c.69 0 1.25-.56 1.25-1.25v-1.959h2.25a1.247 1.247 0 0 0 1.25-1.25v-2.25h2.242a1.247 1.247 0 0 0 1.25-1.25V20.339l.867-.867a9 9 0 1 0 3.137-17.438zm0 15.5a6.464 6.464 0 0 1-3.604-1.093l-.584.584c-.07.046-.137.1-.199.162l-1.75 1.75a1.244 1.244 0 0 0-.366.883l-.001.014v.959h-2.25a1.25 1.25 0 0 0-1.242 1.386v2.114h-2.25a1.25 1.25 0 0 0-1.194.878l-.001.004a1.161 1.161 0 0 0-.03.116v.003c-.008.04-.014.08-.019.121-.002.02-.002.041-.003.062-.001.022-.003.043-.003.065v1.959H4.501v-1.73l9.316-9.316a.192.192 0 0 0 .013.017l1.793-1.793a6.466 6.466 0 0 1-1.121-3.646c0-3.584 2.916-6.5 6.5-6.5s6.5 2.916 6.5 6.5-2.916 6.5-6.5 6.5z"/></symbol><symbol id="lightning" viewBox="0 0 32 32"><path fill="#444" d="M10.001 31.958a1.25 1.25 0 0 1-1.192-1.625l3.6-11.435-6.705-1.643a1.248 1.248 0 0 1-.495-2.18l18-14.771a1.25 1.25 0 0 1 1.923 1.499l-5.35 11.352 6.52 1.617a1.25 1.25 0 0 1 .545 2.134l-16 14.722a1.25 1.25 0 0 1-.847.33zM8.726 15.422l5.572 1.365a1.25 1.25 0 0 1 .895 1.59l-2.595 8.242 10.846-9.98-5.744-1.425a1.25 1.25 0 0 1-.83-1.746l3.635-7.712-11.779 9.666z"/></symbol><symbol id="link" viewBox="0 0 32 32"><path fill="#444" d="M21.999 1.999a7.97 7.97 0 0 0-5.508 2.197l-3.316 3.316c-.066.07-.131.141-.195.213l-.029.033a7.423 7.423 0 0 0-.182.216l-.024.029a7.964 7.964 0 0 0-1.768 5.017c0 1.166.25 2.274.698 3.273l.025.054.065.14.038.077.063.126.043.081.064.119.045.081.068.117.047.078.072.117.047.074.079.12.045.067.09.128.039.055.109.146a8.044 8.044 0 0 0 .471.562l.001.001.155.164.018.018.143.143.025.024a4.4 4.4 0 0 0 .141.132l.029.026.143.127.03.026.069.059v-.002l.094.079a1.078 1.078 0 0 0 .102.08 1.247 1.247 0 0 0 1.967-1.023c0-.405-.194-.765-.493-.993l-.005-.007a5.45 5.45 0 0 1-.738-.729 5.455 5.455 0 0 1-1.289-3.537c0-1.407.53-2.744 1.492-3.767l.492-.492.196-.196.024-.024.08-.08.152-.152.006-.006.471-.471.274-.274.017-.017.092-.092.104-.104.009-.01 1.346-1.346a5.476 5.476 0 0 1 3.767-1.491c1.47 0 2.851.572 3.889 1.61s1.611 2.42 1.611 3.89c0 1.411-.532 2.75-1.499 3.775l-2.155 2.155-.61.609-.034.034h.042a10.467 10.467 0 0 1 .259 3.048c.218-.15.427-.311.628-.481v.002l.068-.059.091-.079a7.44 7.44 0 0 0 .206-.189l3.296-3.296a7.971 7.971 0 0 0 2.208-5.519c0-4.422-3.582-8-8-8z"/><path fill="#444" d="M10 30a7.97 7.97 0 0 0 5.508-2.197l3.316-3.316c.066-.07.131-.141.195-.213l.029-.033c.062-.071.123-.143.182-.216l.024-.029a7.964 7.964 0 0 0 1.768-5.017 7.98 7.98 0 0 0-.698-3.273l-.025-.054a5.98 5.98 0 0 0-.065-.14l-.038-.077-.063-.126-.043-.081-.064-.119-.045-.081-.068-.117-.047-.078-.072-.117-.047-.074-.079-.12-.045-.066-.09-.128-.039-.055-.109-.146a8.044 8.044 0 0 0-.471-.562l-.001-.001-.155-.164-.018-.018a9.64 9.64 0 0 0-.309-.299l-.029-.026-.142-.127-.03-.026-.069-.059v.002l-.094-.079-.052-.043a1.24 1.24 0 0 0-.767-.264 1.25 1.25 0 0 0-.757 2.243l.005.007a5.45 5.45 0 0 1 .738.729 5.455 5.455 0 0 1 1.289 3.537 5.473 5.473 0 0 1-1.492 3.767l-.492.492-.196.196-.024.024-.08.08-.152.152-.006.006-.471.471-.274.274-.017.017-.092.092-.104.104-.009.009-1.346 1.346a5.476 5.476 0 0 1-3.767 1.491c-1.47 0-2.851-.572-3.889-1.61s-1.611-2.42-1.611-3.89c0-1.411.532-2.75 1.499-3.775l2.155-2.155.61-.609.034-.034h-.042a10.467 10.467 0 0 1-.259-3.048c-.218.15-.427.311-.628.481v-.002l-.068.059-.091.079a9.27 9.27 0 0 0-.207.189l-3.296 3.296A7.971 7.971 0 0 0 2 21.998c0 4.422 3.582 8 8 8z"/></symbol><symbol id="list-unordered" viewBox="0 0 32 32"><path fill="#444" d="M30.031 7.281c0 .69-.56 1.25-1.25 1.25h-19a1.25 1.25 0 0 1 0-2.5h19c.69 0 1.25.56 1.25 1.25zM30.031 24.781c0 .69-.56 1.25-1.25 1.25h-19a1.25 1.25 0 0 1 0-2.5h19c.69 0 1.25.56 1.25 1.25zM30.031 18.948c0 .69-.56 1.25-1.25 1.25h-19a1.25 1.25 0 0 1 0-2.5h19c.69 0 1.25.56 1.25 1.25zM30.031 13.115c0 .69-.56 1.25-1.25 1.25h-19a1.25 1.25 0 0 1 0-2.5h19c.69 0 1.25.56 1.25 1.25zM6.031 7.281a2 2 0 1 1-3.999.001 2 2 0 0 1 3.999-.001zM6.031 24.781a2 2 0 1 1-3.999.001 2 2 0 0 1 3.999-.001zM6.031 18.948a2 2 0 1 1-3.999.001 2 2 0 0 1 3.999-.001zM6.031 13.114a2 2 0 1 1-3.999.001 2 2 0 0 1 3.999-.001z"/></symbol><symbol id="location" viewBox="0 0 32 32"><path fill="#444" d="M30 16v-.001c0-3.583-1.367-7.165-4.101-9.899C20.432.633 11.567.633 6.1 6.1s-5.467 14.332 0 19.799a13.95 13.95 0 0 0 9.896 4.1h.003c3.583 0 7.166-1.367 9.9-4.1S29.999 19.583 30 16v-.001zm-5.868 8.132a11.414 11.414 0 0 1-6.883 3.301V23.25a1.25 1.25 0 0 0-2.5 0v4.182c-2.599-.279-5.006-1.426-6.88-3.301s-3.021-4.283-3.301-6.882H8.75a1.25 1.25 0 0 0 0-2.5H4.567c.279-2.599 1.426-5.007 3.301-6.882s4.282-3.021 6.88-3.301v4.182a1.25 1.25 0 0 0 2.5 0V4.565c2.599.279 5.008 1.426 6.883 3.301s3.021 4.283 3.301 6.882H23.25a1.25 1.25 0 0 0 0 2.5h4.182a11.412 11.412 0 0 1-3.301 6.882z"/></symbol><symbol id="lock" viewBox="0 0 32 32"><path fill="#444" d="M28.001 28.61V14.001c0-.597-.419-1.095-.978-1.22l-.02-.005-.042-.007a1.206 1.206 0 0 0-.21-.019h-1.747v-1.745h.001a9.005 9.005 0 0 0-18.01-.001v1.746H5.281A1.25 1.25 0 0 0 4.031 14v14.479A1.25 1.25 0 0 0 5.251 30h21.508a1.25 1.25 0 0 0 1.242-1.391zM6.531 15.251h18.97v12.25H6.531v-12.25zm2.964-4.245A6.512 6.512 0 0 1 16 4.501a6.511 6.511 0 0 1 6.504 6.487v1.763H9.495v-1.745zm7.76 10.615v1.818a1.25 1.25 0 0 1-2.5 0v-1.812a2 2 0 1 1 2.5-.007z"/></symbol><symbol id="memory" viewBox="0 0 32 32"><path fill="#444" d="M10.001 13.001v-4.78a1.25 1.25 0 0 1 2.5 0v4.78a1.25 1.25 0 0 1-2.5 0zM16 14.251c.69 0 1.25-.56 1.25-1.25v-4.78a1.25 1.25 0 0 0-2.5 0v4.78c0 .69.56 1.25 1.25 1.25zm4.751 0c.69 0 1.25-.56 1.25-1.25v-2.594a1.25 1.25 0 0 0-2.5 0v2.594c0 .69.56 1.25 1.25 1.25zm6.25-4.357v18.857a1.244 1.244 0 0 1-.205.685l-.009.014a1.25 1.25 0 0 1-1.037.551H6.25c-.69 0-1.25-.56-1.25-1.25V18.014l-.001-.013.001-.013V3.251a1.249 1.249 0 0 1 1.25-1.25l12.852.002c.331-.009.665.112.918.365l6.615 6.631c.247.247.369.572.366.896zm-19.5-5.393v12.25h17v-6.352l-5.883-5.898H7.501zm16.999 23v-8.25h-17v8.25h17z"/></symbol><symbol id="menu" viewBox="0 0 32 32"><path fill="#444" d="M30 7.25c0 .69-.56 1.25-1.25 1.25H3.25a1.25 1.25 0 0 1 0-2.5h25.5c.69 0 1.25.56 1.25 1.25zM24 13c0 .69-.56 1.25-1.25 1.25H3.25a1.25 1.25 0 0 1 0-2.5h19.5c.69 0 1.25.56 1.25 1.25zm2 6c0 .69-.56 1.25-1.25 1.25H3.25a1.25 1.25 0 0 1 0-2.5h21.5c.69 0 1.25.56 1.25 1.25zm-8 5.75c0 .69-.56 1.25-1.25 1.25H3.25a1.25 1.25 0 0 1 0-2.5h13.5c.69 0 1.25.56 1.25 1.25z"/></symbol><symbol id="meteor" viewBox="0 0 32 32"><path fill="#444" d="M23.917 25.415L.001.001l25.414 23.916a1.06 1.06 0 1 1-1.499 1.498zM20.402 27.207L2.369 7.676 21.9 25.709a1.06 1.06 0 1 1-1.498 1.498zM16.748 27.26L4.764 14.277l12.982 11.984a.707.707 0 1 1-.998.999zM26.789 18.274L14.277 4.764l13.51 12.512a.706.706 0 1 1-.96 1.036l-.038-.038zM25.71 22.056L7.598 2.447l19.609 18.111a1.06 1.06 0 1 1-1.496 1.498zM13.012 26.195l-5.701-6.2 6.2 5.701a.353.353 0 1 1-.478.52l-.021-.021zM26.342 13.785l-5.701-6.201 6.2 5.701a.353.353 0 1 1-.478.52l-.021-.021z"/></symbol><symbol id="mobile" viewBox="0 0 32 32"><path d="M20.25 2h-8.5A3.75 3.75 0 0 0 8 5.75v20.5A3.75 3.75 0 0 0 11.75 30h8.5A3.75 3.75 0 0 0 24 26.25V5.75A3.75 3.75 0 0 0 20.25 2zm-8.5 2.5h8.5c.689 0 1.25.561 1.25 1.25v15.499h-11V5.75c0-.689.561-1.25 1.25-1.25zm8.5 23h-8.5c-.689 0-1.25-.561-1.25-1.25v-2.501h11v2.501c0 .689-.561 1.25-1.25 1.25z"/><path d="M17.001 25.624a1 1 0 1 1-2 0 1 1 0 0 1 2 0z"/></symbol><symbol id="nut" viewBox="0 0 32 32"><path fill="#444" d="M16.001 4.501l9.959 5.75v11.5l-9.959 5.75-9.959-5.75v-11.5l9.959-5.75zm0-2.5c-.432 0-.863.112-1.25.335l-9.959 5.75a2.5 2.5 0 0 0-1.25 2.165v11.5a2.5 2.5 0 0 0 1.25 2.165l9.959 5.75a2.501 2.501 0 0 0 2.5 0l9.959-5.75a2.502 2.502 0 0 0 1.25-2.165v-11.5a2.5 2.5 0 0 0-1.25-2.165l-9.959-5.75a2.501 2.501 0 0 0-1.25-.335zm-.013 7.819a6.168 6.168 0 1 0 0 12.336v.004h.07a6.213 6.213 0 0 0 1.346-.162 1.284 1.284 0 0 0-.563-2.508 3.6 3.6 0 0 1-.796.101.51.51 0 0 0-.057-.004c-1.984 0-3.598-1.614-3.598-3.598s1.614-3.598 3.598-3.598a3.602 3.602 0 0 1 3.505 4.409l-.001.008a1.285 1.285 0 0 0 2.515.528 6.168 6.168 0 0 0-6.02-7.515z"/></symbol><symbol id="outbox" viewBox="0 0 32 32"><path fill="#444" d="M30.002 19.25v9.5a1.25 1.25 0 0 1-1.25 1.25h-25.5c-.69 0-1.25-.56-1.25-1.25v-9.5a1.25 1.25 0 0 1 2.5 0v8.25h23v-8.25a1.25 1.25 0 0 1 2.5 0zM20.773 6.255l-3.888-3.888-.001-.001a1.24 1.24 0 0 0-.376-.257 1.236 1.236 0 0 0-.523-.108L15.972 2c-.424 0-.797.211-1.023.534l-3.722 3.722a1.25 1.25 0 0 0 1.768 1.768l1.727-1.727v14.454a1.25 1.25 0 0 0 2.5 0V6.241l1.783 1.783a1.25 1.25 0 0 0 1.768-1.768z"/></symbol><symbol id="paintbrush" viewBox="0 0 32 32"><path fill="#444" d="M29.581 9.177a1.25 1.25 0 0 0-.003-1.773l-.027-.025-4.042-4.02a1.246 1.246 0 0 0-.888-.371c-.32 0-.64.122-.884.366l-.006.006L6.323 20.768a1.272 1.272 0 0 0-.176.222c-2.207 2.734-.56 6.107-5.461 7.486 0 0 2.024.566 4.51.566 2.324 0 5.052-.494 6.913-2.407l.037-.034.054-.054c.027-.025.052-.049.078-.076l.032-.034 5.274-5.274a1.088 1.088 0 0 0 .193-.193L29.502 9.245c.026-.022.052-.044.077-.069zm-12.785 9.242l-2.3-2.288L24.623 6.004l2.3 2.287-10.127 10.127zm-4.665 2.446a4.405 4.405 0 0 0-1.399-.969l1.997-1.997 2.3 2.288-2.008 2.008a4.344 4.344 0 0 0-.89-1.329zm-4.948 3.883c.259-.948.464-1.698 1.013-2.308l.133-.134c.251-.212.548-.258.756-.258.45 0 .907.205 1.255.562.612.628.685 1.539.175 2.09l-.053.053-.077.074-.027.026-.026.027c-.958.993-2.372 1.419-3.691 1.579.235-.59.394-1.17.542-1.712z"/></symbol><symbol id="paperclip" viewBox="0 0 32 32"><path fill="#444" d="M25.758 11.542a5.624 5.624 0 0 0-8.02-7.886l-.001.001L4.201 17.193l-.003.003-.005.005-.083.083-.025.028a7.445 7.445 0 0 0-2.083 5.187c0 2.003.78 3.887 2.197 5.303s3.3 2.197 5.303 2.197a7.451 7.451 0 0 0 4.35-1.388c.154-.061.299-.153.423-.278l.525-.525.005-.005.004-.004 9.032-9.032a1.25 1.25 0 0 0-1.768-1.768l-9.035 9.035a5 5 0 1 1-7.071-7.071L19.502 5.428l.005-.006c1.218-1.218 3.201-1.218 4.419 0s1.218 3.201 0 4.419l-.006.005-8.767 8.767-2.499 2.499-.001.001-.001.001-.002.002a1.25 1.25 0 0 1-1.768-1.768l.002-.002.001-.001.001-.001 2.499-2.499 4.266-4.266a1.25 1.25 0 0 0-1.768-1.768l-6.854 6.854a1.18 1.18 0 0 0-.109.127 3.749 3.749 0 0 0 5.286 5.286c.044-.034.087-.069.127-.109l.088-.088 11.267-11.267.006-.005.005-.005.031-.031.03-.033z"/></symbol><symbol id="paragraph" viewBox="0 0 32 32"><path fill="#444" d="M22.751 3.001h-3.658-6.249-1a7 7 0 0 0-.25 13.995v10.755a1.25 1.25 0 0 0 2.5 0V5.501h3.75v22.25a1.25 1.25 0 0 0 2.5 0V5.501h2.408a1.25 1.25 0 0 0 0-2.5z"/></symbol><symbol id="phone" viewBox="0 0 32 32"><path fill="#444" d="M23.204 30c-2.383 0-5.099-1.011-8.073-3.006-2.306-1.547-4.263-3.341-5.498-4.573-1.353-1.351-3.3-3.48-4.901-5.959-2.08-3.221-2.98-6.126-2.672-8.636.28-2.291 1.584-4.197 3.771-5.51a2.233 2.233 0 0 1 1.158-.317c1.023 0 2.223.73 3.774 2.297a28.34 28.34 0 0 1 2.796 3.333c1.459 2.068 1.896 3.355 1.509 4.442-.395 1.111-1.11 1.741-1.633 2.201a5.62 5.62 0 0 0-.408.383c.126.236.367.621.814 1.171 1.325 1.627 2.83 2.782 3.499 3.152.103-.093.222-.224.386-.411.465-.525 1.096-1.239 2.203-1.634.249-.089.516-.134.792-.134 1.38 0 3.4 1.377 4.851 2.533 1.432 1.14 3.228 2.828 3.972 4.144.706 1.237.468 2.145.144 2.688-1.504 2.509-3.746 3.835-6.482 3.835zM7.024 4.517c-1.486.92-2.299 2.103-2.483 3.613-.234 1.913.537 4.26 2.291 6.976 1.559 2.414 3.531 4.511 4.568 5.546.947.944 2.872 2.755 5.125 4.266 2.554 1.713 4.802 2.582 6.68 2.582 1.832 0 3.235-.829 4.286-2.534a1.386 1.386 0 0 0-.12-.254c-.456-.806-1.781-2.163-3.301-3.38-1.837-1.471-3.022-1.997-3.336-2.031-.48.182-.782.524-1.131.918-.392.447-.885 1.01-1.734 1.298l-.195.066h-.206c-.272 0-.995 0-2.71-1.356a19 19 0 0 1-2.856-2.824c-1.116-1.373-1.607-2.43-1.459-3.142l.017-.083.028-.08c.287-.813.821-1.285 1.293-1.702.398-.35.741-.652.922-1.137-.019-.137-.159-.734-1.186-2.19A26.406 26.406 0 0 0 9.092 6.16C7.844 4.879 7.214 4.58 7.026 4.514z"/></symbol><symbol id="photo" viewBox="0 0 32 32"><path fill="#444" d="M28.75 2H3.25C2.56 2 2 2.56 2 3.25v25.5c0 .69.56 1.25 1.25 1.25h25.5c.69 0 1.25-.56 1.25-1.25V3.25C30 2.56 29.44 2 28.75 2zM27.5 4.5v14.056L20.144 11.2a1.25 1.25 0 0 0-1.768 0l-5.306 5.306-1.28-1.28a1.25 1.25 0 0 0-1.768 0L4.5 20.748V4.5h23zm-23 23v-3.216l6.406-6.406 6.749 6.749c.244.244.564.366.884.366s.64-.122.884-.366a1.25 1.25 0 0 0 0-1.768l-4.585-4.585 4.423-4.423 8.24 8.24V27.5h-23zm6.63-14.983a2.969 2.969 0 1 0 0-5.937 2.969 2.969 0 0 0 0 5.937zm0-4.688c.948 0 1.719.771 1.719 1.719s-.771 1.719-1.719 1.719-1.719-.771-1.719-1.719.771-1.719 1.719-1.719z"/></symbol><symbol id="pin" viewBox="0 0 32 32"><path fill="#444" d="M16 29.997a1.25 1.25 0 0 1-1.039-.556L7.396 18.118l-.011-.017a10.31 10.31 0 0 1-1.738-5.744c0-5.709 4.645-10.354 10.354-10.354s10.354 4.645 10.354 10.354c0 1.897-.517 3.749-1.497 5.364a1.29 1.29 0 0 1-.081.139l-.181.271-.005.008-.005.007-7.546 11.295a1.25 1.25 0 0 1-1.039.556zM9.483 16.743l.001.001.006.009L16 26.497l6.637-9.933.037-.064a7.831 7.831 0 0 0 1.18-4.141c0-4.331-3.523-7.854-7.854-7.854s-7.854 3.523-7.854 7.854c0 1.564.459 3.075 1.326 4.368l.011.017z"/><path fill="#444" d="M16 9.512c1.562 0 2.832 1.271 2.832 2.832S17.561 15.176 16 15.176s-2.832-1.271-2.832-2.832A2.835 2.835 0 0 1 16 9.512zm0-2.499a5.332 5.332 0 1 0 0 10.663 5.332 5.332 0 0 0 0-10.663z"/></symbol><symbol id="play" viewBox="0 0 32 32"><path fill="#444" d="M27.462 14.933L8.966 4.254c-.296-.171-.576-.252-.825-.252-.61 0-1.031.486-1.031 1.323v21.358c0 .837.421 1.323 1.031 1.323.249 0 .529-.081.825-.252l18.496-10.679c1.021-.59 1.021-1.554 0-2.143z"/></symbol><symbol id="plus" viewBox="0 0 32 32"><path fill="#444" d="M28.781 14.781h-11.5v-11.5a1.25 1.25 0 0 0-2.5 0v11.5h-11.5a1.25 1.25 0 0 0 0 2.5h11.5v11.5a1.25 1.25 0 0 0 2.5 0v-11.5h11.5a1.25 1.25 0 0 0 0-2.5z"/></symbol><symbol id="power" viewBox="0 0 32 32"><path fill="#444" d="M16 16.037c.69 0 1.25-.56 1.25-1.25v-11.5a1.25 1.25 0 0 0-2.5 0v11.5c0 .69.56 1.25 1.25 1.25z"/><path fill="#444" d="M23.338 6.304v.006a13.162 13.162 0 0 0-1.427-.851l-.165-.082a.049.049 0 0 1-.007-.003l-.003-.001a1.25 1.25 0 0 0-1.101 2.24 10.506 10.506 0 0 1 2.99 2.209v-.005a10.428 10.428 0 0 1 2.877 7.221c0 2.805-1.092 5.441-3.075 7.425s-4.62 3.075-7.425 3.075-5.441-1.092-7.425-3.075-3.075-4.62-3.075-7.425a10.415 10.415 0 0 1 3.134-7.48 10.517 10.517 0 0 1 2.733-1.945 1.25 1.25 0 1 0-1.099-2.241l-.003.001a.008.008 0 0 0-.004.002c-.058.029-.117.057-.174.087l-.047.025-.102.054c-.491.259-.963.549-1.414.867v-.004a12.983 12.983 0 0 0-5.523 10.635c0 7.18 5.82 13 13 13s13-5.82 13-13c0-4.458-2.244-8.391-5.664-10.733z"/></symbol><symbol id="print" viewBox="0 0 32 32"><path fill="#444" d="M28.935 9.515a1.233 1.233 0 0 0-.161-.012h-2.77V6.58v-.02l.001-.02-.002-.044-.003-.06a.885.885 0 0 0-.009-.072l-.008-.05-.017-.076-.012-.045a1.098 1.098 0 0 0-.025-.075l-.016-.043c-.01-.025-.021-.048-.032-.072l-.02-.041a1.06 1.06 0 0 0-.042-.073l-.02-.034c-.02-.03-.041-.06-.064-.088l-.009-.012a1.28 1.28 0 0 0-.099-.109l-3.25-3.278a1.258 1.258 0 0 0-.39-.264l-.011-.005a.933.933 0 0 0-.093-.034l-.024-.009a1.26 1.26 0 0 0-.088-.023l-.032-.008c-.031-.006-.062-.01-.093-.014l-.029-.004a1.287 1.287 0 0 0-.124-.006H7.253a1.25 1.25 0 0 0-1.25 1.25v6.25h-2.73a1.25 1.25 0 0 0-1.25 1.25v10c0 .69.56 1.25 1.25 1.25h2.73v6.75c0 .69.56 1.25 1.25 1.25h17.5a1.25 1.25 0 0 0 1.037-.551l.009-.014c.019-.029.038-.058.054-.089l.004-.008c.094-.175.147-.375.147-.588v-6.75h2.77c.431 0 .812-.219 1.037-.551l.009-.014c.019-.029.037-.058.054-.089l.004-.008c.094-.175.147-.375.147-.588v-10a1.25 1.25 0 0 0-1.089-1.239zM8.504 4.504h11.739v2.037a1.25 1.25 0 0 0 1.25 1.25h2.011v1.713h-15v-5zm15 23h-15v-10.25h15v10.25zm4.02-8h-1.52v-3.5a1.249 1.249 0 0 0-1.25-1.25h-17.5a1.25 1.25 0 0 0-1.25 1.25v3.5h-1.48v-7.5h23v7.5z"/><path fill="#444" d="M11.254 19.004a1.25 1.25 0 0 0 0 2.5h9.5a1.25 1.25 0 0 0 0-2.5h-9.5zM20.754 23.254h-9.5a1.25 1.25 0 0 0 0 2.5h9.5a1.25 1.25 0 0 0 0-2.5z"/></symbol><symbol id="proceed" viewBox="0 0 32 32"><path fill="#444" d="M16 4.5c3.072 0 5.96 1.196 8.132 3.368S27.5 12.928 27.5 16s-1.196 5.96-3.368 8.132S19.072 27.5 16 27.5s-5.96-1.196-8.132-3.368S4.5 19.072 4.5 16s1.196-5.96 3.368-8.132S12.928 4.5 16 4.5zM16 2C8.268 2 2 8.268 2 16s6.268 14 14 14 14-6.268 14-14S23.732 2 16 2zm7.637 13.129l-3.906-3.92a1.25 1.25 0 0 0-1.771 1.765l1.781 1.788H9.251a1.25 1.25 0 0 0 0 2.5h10.477l-1.766 1.762a1.25 1.25 0 1 0 1.766 1.77l3.906-3.896a1.25 1.25 0 0 0 .003-1.767z"/></symbol><symbol id="profile" viewBox="0 0 32 32"><path fill="#444" d="M12.406 16.57a9.806 9.806 0 0 1-1.091-.543c.058-1.329 2.788-2.531 3.525-2.648.231-.037.236-.673.236-.673s-.679-.673-.828-1.577c-.398 0-.644-.962-.246-1.3-.017-.356-.512-2.796 1.996-2.796s2.013 2.44 1.996 2.796c.398.338.152 1.3-.246 1.3-.148.905-.828 1.577-.828 1.577s.005.636.236.673c.745.118 3.526 1.345 3.526 2.691v.215a9.788 9.788 0 0 1-4.447 1.058c-1.33 0-2.619-.26-3.833-.773zM25 4.531H6.5v23H25a.5.5 0 0 0 .499-.494V5.029A.5.5 0 0 0 25 4.53zm0-2.5a3 3 0 0 1 3 2.993v22.042h-.001A3 3 0 0 1 25 30.031H5.25c-.69 0-1.25-.56-1.25-1.25v-25.5a1.249 1.249 0 0 1 1.25-1.25H25zm-1.991 22.75a.625.625 0 0 0-.625-.625H9.625a.625.625 0 0 0 0 1.25h12.759c.345 0 .625-.28.625-.625zm0-2.75a.625.625 0 0 0-.625-.625H9.625a.625.625 0 0 0 0 1.25h12.759c.345 0 .625-.28.625-.625zm0-2.75a.625.625 0 0 0-.625-.625H9.625a.625.625 0 0 0 0 1.25h12.759c.345 0 .625-.28.625-.625z"/></symbol><symbol id="question" viewBox="0 0 32 32"><path fill="#444" d="M25.899 6.101C20.432.634 11.567.634 6.1 6.101S.633 20.433 6.1 25.9c5.467 5.467 14.332 5.467 19.799 0s5.467-14.332 0-19.799zm-1.767 18.031C21.96 26.304 19.072 27.5 16 27.5s-5.96-1.196-8.132-3.368C5.696 21.96 4.5 19.072 4.5 16s1.196-5.96 3.368-8.132C10.04 5.696 12.928 4.5 16 4.5s5.96 1.196 8.132 3.368C26.304 10.04 27.5 12.928 27.5 16s-1.196 5.96-3.368 8.132z"/><path fill="#444" d="M16.031 24.524a1.25 1.25 0 0 1 0-2.5 1.25 1.25 0 0 1 0 2.5zM21.51 12.523a5.51 5.51 0 0 0-11.02 0 1.25 1.25 0 0 0 2.5 0v-.002c.001-1.659 1.351-3.009 3.01-3.009s3.01 1.35 3.01 3.01c0 1.66-1.35 3.01-3.01 3.01v.005a1.25 1.25 0 0 0-1.219 1.248v2.75a1.25 1.25 0 0 0 2.5 0v-1.653a5.513 5.513 0 0 0 4.229-5.36z"/></symbol><symbol id="redirect" viewBox="0 0 32 32"><path fill="#444" d="M28.558 21.962a1.25 1.25 0 0 0-1.768-.003l-1.788 1.781V9.633L25 9.599a5.625 5.625 0 0 0-11.25.027V20.377c0 1.723-1.402 3.125-3.125 3.125S7.5 22.1 7.5 20.377V5.252a1.25 1.25 0 0 0-2.5 0V20.377a5.624 5.624 0 1 0 11.25 0V9.634v-.008c0-1.723 1.402-3.125 3.125-3.125S22.5 7.903 22.5 9.626v.008h.002v14.094l-1.762-1.766a1.25 1.25 0 1 0-1.77 1.766l3.897 3.906a1.25 1.25 0 0 0 1.767.003l3.92-3.906a1.25 1.25 0 0 0 .003-1.768z"/></symbol><symbol id="redux" viewBox="0 0 32 32"><path fill="#444" d="M21.652 21.515a2.085 2.085 0 0 0 1.861-2.16 2.091 2.091 0 0 0-2.085-2.012h-.076a2.086 2.086 0 0 0-2.012 2.16c.039.559.262 1.044.596 1.38-1.265 2.496-3.203 4.321-6.109 5.849-1.974 1.042-4.023 1.415-6.073 1.154-1.676-.224-2.98-.97-3.799-2.198-1.192-1.825-1.304-3.8-.298-5.775.708-1.414 1.825-2.459 2.533-2.979a20.662 20.662 0 0 1-.484-1.901C.305 18.945.863 24.235 2.502 26.732c1.23 1.861 3.726 3.017 6.483 3.017.746 0 1.49-.074 2.235-.26 4.769-.932 8.383-3.764 10.433-7.973z"/><path fill="#444" d="M28.208 16.894c-2.831-3.315-7.003-5.14-11.772-5.14h-.596a2.05 2.05 0 0 0-1.825-1.117h-.076a2.085 2.085 0 0 0-2.012 2.16 2.093 2.093 0 0 0 2.088 2.012h.073a2.1 2.1 0 0 0 1.826-1.267h.67c2.832 0 5.514.82 7.936 2.421 1.861 1.23 3.203 2.831 3.949 4.769.633 1.564.596 3.092-.076 4.395-1.042 1.976-2.793 3.056-5.103 3.056-1.49 0-2.906-.448-3.651-.784-.41.374-1.156.97-1.676 1.342 1.601.746 3.241 1.154 4.805 1.154 3.576 0 6.221-1.973 7.227-3.949 1.08-2.16 1.006-5.885-1.788-9.053z"/><path fill="#444" d="M9.283 22.147a2.091 2.091 0 0 0 2.086 2.012h.074a2.083 2.083 0 0 0 2.012-2.16 2.092 2.092 0 0 0-2.086-2.012h-.074c-.076 0-.186 0-.26.038-1.528-2.534-2.16-5.29-1.938-8.27.15-2.235.894-4.172 2.198-5.774 1.08-1.378 3.166-2.049 4.581-2.086 3.95-.075 5.626 4.843 5.737 6.817.486.112 1.304.373 1.864.559-.448-6.035-4.173-9.165-7.749-9.165-3.352 0-6.445 2.421-7.674 5.998-1.714 4.769-.596 9.35 1.489 12.963-.185.262-.297.672-.26 1.08z"/></symbol><symbol id="reply" viewBox="0 0 32 32"><path fill="#444" d="M21.234 13.492a.26.26 0 0 0-.04-.003H6.273l5.36-5.359a1.25 1.25 0 0 0-1.768-1.768l-7.492 7.492a1.264 1.264 0 0 0-.273.408l-.02.055-.021.06a2.262 2.262 0 0 0-.03.118 1.284 1.284 0 0 0 .03.609c.005.016.032.094.042.116l.053.111c.006.012.014.023.021.035.014.024.058.09.065.101.016.023.133.159.134.159l7.491 7.491a1.25 1.25 0 0 0 1.768-1.768l-5.36-5.36h14.728a6.512 6.512 0 0 1 6.5 6.487v3.004a1.25 1.25 0 0 0 2.5 0v-2.987h.001a9.006 9.006 0 0 0-8.767-9.002z"/></symbol><symbol id="request-change" viewBox="0 0 32 32"><path fill="#444" d="M28.911 6.044a1.232 1.232 0 0 0-.161-.011H3.25A1.25 1.25 0 0 0 2 7.283v17.5c0 .69.56 1.25 1.25 1.25h3.496v2.688c0 .69.56 1.25 1.25 1.25l.027-.001c.329.007.661-.113.912-.365l3.572-3.571H28.75c.431 0 .812-.219 1.037-.551l.009-.014c.019-.029.038-.058.054-.089l.004-.008c.093-.176.147-.375.147-.588v-17.5a1.25 1.25 0 0 0-1.089-1.239zM27.5 23.532h-23v-15h23v15zm-3.865-8.402l-3.906-3.92a1.25 1.25 0 0 0-1.771 1.765l1.781 1.788H9.249a1.25 1.25 0 0 0 0 2.5h10.477l-1.766 1.762a1.25 1.25 0 1 0 1.766 1.77l3.906-3.896a1.25 1.25 0 0 0 .003-1.767z"/></symbol><symbol id="rss" viewBox="0 0 32 32"><path fill="#444" d="M9.184 25.404a2.557 2.557 0 1 1-5.114 0 2.557 2.557 0 0 1 5.114 0zm6.763 1.419l-.001-.014a11.896 11.896 0 0 0-3.439-7.285 11.894 11.894 0 0 0-7.233-3.434l-.053-.006-.014-.001a.067.067 0 0 0-.02 0l-.051-.003a1.065 1.065 0 0 0-.118 2.123l.003.001a9.732 9.732 0 0 1 5.981 2.824 9.728 9.728 0 0 1 2.825 5.982l.001.003a1.066 1.066 0 0 0 2.123-.118l-.003-.051-.001-.02zm5.984.003l-.001-.007-.003-.044a17.844 17.844 0 0 0-5.203-11.47 17.837 17.837 0 0 0-11.47-5.203c-.014-.002-.029-.002-.044-.003l-.007-.001h-.001c-.022-.001-.044-.003-.067-.003a1.065 1.065 0 0 0-.083 2.126l.003.001c1.781.109 3.51.514 5.151 1.208a15.73 15.73 0 0 1 5.012 3.379 15.71 15.71 0 0 1 4.588 10.164l.001.003a1.065 1.065 0 0 0 2.126-.083c0-.023-.002-.045-.003-.067v-.002zm5.978.056v-.007a23.783 23.783 0 0 0-6.965-15.789A23.793 23.793 0 0 0 5.154 4.12h-.007l-.014-.001a1.065 1.065 0 0 0-.087 2.126l.015.003a21.662 21.662 0 0 1 14.376 6.343 21.669 21.669 0 0 1 6.347 14.392 1.065 1.065 0 0 0 2.126-.087l-.001-.014z"/></symbol><symbol id="search" viewBox="0 0 32 32"><path fill="#444" d="M29.665 27.897l-6.311-6.311a11.949 11.949 0 0 0 2.677-7.555c0-6.628-5.373-12-12-12s-12 5.373-12 12c0 6.628 5.373 12 12 12 2.863 0 5.492-1.004 7.555-2.677l6.311 6.311a1.25 1.25 0 0 0 1.768-1.768zM7.314 20.749c-1.794-1.794-2.783-4.18-2.783-6.718s.988-4.923 2.783-6.718 4.18-2.783 6.718-2.783 4.923.988 6.718 2.783c1.794 1.794 2.783 4.18 2.783 6.718s-.988 4.923-2.783 6.718c-1.794 1.794-4.18 2.782-6.718 2.782s-4.923-.988-6.718-2.782z"/></symbol><symbol id="share" viewBox="0 0 32 32"><path fill="#444" d="M28 28.745V11.25c0-.69-.56-1.25-1.25-1.25h-5.583a1.25 1.25 0 0 0 0 2.5H25.5v15h-19v-15h4.292a1.25 1.25 0 0 0 0-2.5H5.209a1.25 1.25 0 0 0-1.208 1.565V28.75c0 .69.56 1.25 1.25 1.25h21.5c.69 0 1.25-.56 1.25-1.25v-.005z"/><path fill="#444" d="M20.801 6.255l-3.889-3.889A1.248 1.248 0 0 0 16 2.001a1.27 1.27 0 0 0-.151.005l-.052.007c-.023.003-.046.006-.069.011-.021.004-.04.01-.06.015s-.039.009-.058.015c-.02.006-.039.014-.059.021s-.038.013-.056.021l-.055.025a.715.715 0 0 0-.056.027l-.053.031a.891.891 0 0 0-.113.076l-.037.028a1.264 1.264 0 0 0-.094.085L11.2 6.255a1.25 1.25 0 0 0 1.768 1.768l1.755-1.755V20a1.25 1.25 0 0 0 2.5 0V6.212l1.811 1.811a1.25 1.25 0 0 0 1.768-1.768z"/></symbol><symbol id="shield" viewBox="0 0 32 32"><path fill="#444" d="M27.348 4.656l-.006-.004c-2.897-1.637-6.907-2.651-11.339-2.651-4.329 0-8.448 1.074-11.328 2.644a.437.437 0 0 0-.05.031A1.247 1.247 0 0 0 4 5.758v14.106c0 .397.186.75.474.979l10.642 8.802a1.245 1.245 0 0 0 .877.356l.047-.002a2.2 2.2 0 0 0 .094-.006c.27-.03.531-.146.736-.348l10.605-8.772c.323-.226.534-.6.534-1.024V5.758a1.25 1.25 0 0 0-.659-1.102zM6.5 6.507c1.134-.568 2.427-1.027 3.855-1.366 1.783-.424 3.684-.639 5.649-.639s3.866.215 5.649.639c.943.224 1.827.501 2.646.827L8.96 21.307l-2.461-2.033V6.508zm9.492 20.61l-5.096-4.212L25.508 8.293v10.959l-9.516 7.864z"/></symbol><symbol id="sidebar" viewBox="0 0 32 32"><path d="M28.751 3.996h-25.5c-.69 0-1.25.56-1.25 1.25v21.5c0 .69.56 1.25 1.25 1.25h9.893a1.257 1.257 0 0 0 .214 0h15.393c.69 0 1.25-.56 1.25-1.25v-21.5c0-.69-.56-1.25-1.25-1.25zm-24.25 2.5h7.5v19h-7.5v-19zm23 19h-13v-19h13v19z"/><path d="M7.21 10.001h2.075a1 1 0 0 0 0-2H7.21a1 1 0 0 0 0 2zM7.21 14.001h2.075a1 1 0 0 0 0-2H7.21a1 1 0 0 0 0 2zM7.21 18.001h2.075a1 1 0 0 0 0-2H7.21a1 1 0 0 0 0 2z"/></symbol><symbol id="speaker" viewBox="0 0 32 32"><path fill="#444" d="M20.751 18.761l-.016.009a1.249 1.249 0 1 0 1.042 2.271l.014-.006a5.511 5.511 0 0 0 1.605-1.116c1.04-1.04 1.612-2.421 1.612-3.89s-.573-2.849-1.612-3.888a5.485 5.485 0 0 0-1.637-1.13l-.001-.001a1.25 1.25 0 0 0-1.036 2.275 3 3 0 0 1 .906.623c.567.567.879 1.32.88 2.121s-.312 1.554-.88 2.122a3.001 3.001 0 0 1-.876.609z"/><path fill="#444" d="M26.931 8.606a10.45 10.45 0 0 0-5.413-2.883l-.034-.007-.006-.001a1.232 1.232 0 0 0-.227-.021 1.25 1.25 0 0 0-.243 2.478 7.96 7.96 0 0 1 4.154 2.202 7.998 7.998 0 0 1 0 11.314 7.96 7.96 0 0 1-4.15 2.201l-.007.002a1.25 1.25 0 1 0 .498 2.45l.008-.001a10.456 10.456 0 0 0 5.418-2.884c4.094-4.094 4.094-10.755 0-14.849zM15.187 3.735c-.399 0-.754.188-.982.479L12.612 6.14v-.002l-3.817 4.615H3.252c-.457 0-.856.246-1.074.613l-.025.041-.012.025-.041.084-.009.025a1.24 1.24 0 0 0-.089.461v8c0 .69.56 1.25 1.25 1.25h5.543l3.817 4.615v-.007l1.595 1.929a1.25 1.25 0 0 0 2.23-.774V4.985c0-.69-.56-1.25-1.25-1.25zm-1.25 19.802l-3.335-4.035h-.005l-.62-.75H4.501v-5.5h5.476l3.96-4.789v15.074z"/></symbol><symbol id="star-hollow" viewBox="0 0 32 32"><path fill="#444" d="M23.874 28.734a1.24 1.24 0 0 1-.582-.144L16 24.756 8.707 28.59a1.25 1.25 0 0 1-1.813-1.318l1.393-8.12-5.9-5.751a1.249 1.249 0 0 1 .693-2.132l8.153-1.185 3.646-7.388a1.25 1.25 0 0 1 2.242 0l3.646 7.388 8.153 1.185a1.249 1.249 0 0 1 .693 2.132l-5.9 5.751 1.383 8.06a1.25 1.25 0 0 1-1.217 1.521h-.005zM5.946 13.38l4.557 4.442c.295.287.429.701.36 1.106L9.787 25.2l5.633-2.961a1.249 1.249 0 0 1 1.163 0l5.632 2.961-1.076-6.272c-.07-.405.065-.819.36-1.106l4.557-4.442-6.297-.915a1.25 1.25 0 0 1-.941-.684l-2.816-5.706-2.816 5.706a1.25 1.25 0 0 1-.941.684l-6.297.915z"/></symbol><symbol id="star" viewBox="0 0 32 32"><path fill="#444" d="M23.874 28.734a1.24 1.24 0 0 1-.582-.144L16 24.756 8.707 28.59a1.25 1.25 0 0 1-1.813-1.318l1.393-8.12-5.9-5.751a1.249 1.249 0 0 1 .693-2.132l8.153-1.185 3.646-7.388a1.25 1.25 0 0 1 2.242 0l3.646 7.388 8.153 1.185a1.249 1.249 0 0 1 .693 2.132l-5.9 5.751 1.383 8.06a1.25 1.25 0 0 1-1.217 1.521h-.005z"/></symbol><symbol id="stop" viewBox="0 0 32 32"><path fill="#444" d="M30 16c0-7.732-6.268-14-14-14S2 8.268 2 16s6.268 14 14 14 14-6.268 14-14zM7.868 24.132C5.696 21.96 4.5 19.072 4.5 16s1.196-5.96 3.368-8.132C10.04 5.696 12.928 4.5 16 4.5s5.96 1.196 8.132 3.368C26.304 10.04 27.5 12.928 27.5 16s-1.196 5.96-3.368 8.132S19.072 27.5 16 27.5s-5.96-1.196-8.132-3.368zM20.75 22h-9.5c-.69 0-1.25-.56-1.25-1.25v-9.5c0-.69.56-1.25 1.25-1.25h9.5c.69 0 1.25.56 1.25 1.25v9.5c0 .69-.56 1.25-1.25 1.25zm-8.25-2.5h7v-7h-7v7z"/></symbol><symbol id="structure" viewBox="0 0 32 32"><path fill="#444" d="M29.823 26.041l.018-.053.028-.082.021-.07.02-.069.018-.072.017-.072.013-.065.015-.083.008-.053.013-.099.004-.04c.004-.038.007-.077.009-.116l.001-.028c.002-.043.003-.085.003-.128V25v-.012c0-.043-.001-.085-.003-.128l-.001-.028a2.302 2.302 0 0 0-.009-.117l-.004-.04-.012-.098-.009-.059-.013-.075a2.316 2.316 0 0 0-.053-.235l-.007-.024a3.003 3.003 0 0 0-3.174-2.173L18.458 7.69A3.004 3.004 0 0 0 16.9 3.082l-.006-.002c-.044-.013-.087-.026-.132-.037l-.028-.007-.114-.026-.036-.007-.11-.02-.036-.005-.113-.014-.033-.003a2.38 2.38 0 0 0-.119-.009l-.03-.001a2.453 2.453 0 0 0-.122-.003h-.033c-.038 0-.076.001-.113.003l-.046.002a2.908 2.908 0 0 0-.161.014l-.065.008-.095.014-.033.006a3.004 3.004 0 0 0-1.917 4.696L5.29 22.012a3.003 3.003 0 1 0 2.451 4.239h16.538a.365.365 0 0 0 .014.028l.022.045.046.09.02.038.029.053.027.045a3.002 3.002 0 0 0 5.341-.379l.005-.012c.016-.039.032-.078.046-.118zM7.45 23.259L15.717 8.94l.04.003.063.005.061.003.105.003h.03l.135-.003h.008l.129-.009 8.269 14.322a2.964 2.964 0 0 0-.283.489H7.736a3.044 3.044 0 0 0-.285-.492z"/></symbol><symbol id="support" viewBox="0 0 32 32"><path fill="#444" d="M25.9 6.101C20.433.634 11.568.634 6.101 6.101s-5.467 14.332 0 19.799 14.332 5.467 19.799 0c5.467-5.467 5.467-14.332 0-19.799zm-.475 16.495l-2.897-2.897a7.514 7.514 0 0 0 0-7.398l2.897-2.897c1.349 1.919 2.076 4.202 2.076 6.596s-.727 4.677-2.076 6.596zm-12.959-3.061a5.006 5.006 0 0 1 0-7.071A4.968 4.968 0 0 1 16.002 11c1.335 0 2.591.52 3.535 1.464a5.006 5.006 0 0 1 0 7.071c-.944.944-2.2 1.465-3.535 1.465s-2.591-.52-3.536-1.464zM22.597 6.576L19.7 9.473c-1.143-.649-2.421-.974-3.699-.974s-2.556.325-3.699.974L9.405 6.576C11.324 5.227 13.607 4.5 16.001 4.5s4.677.727 6.596 2.076zM6.577 9.404l2.898 2.898a7.513 7.513 0 0 0 .001 7.396l-2.898 2.898C5.229 20.677 4.502 18.394 4.502 16s.727-4.677 2.076-6.596zM16.001 27.5c-2.395 0-4.677-.727-6.596-2.076l2.898-2.898c1.143.649 2.421.974 3.699.974s2.554-.325 3.698-.973l2.898 2.898a11.419 11.419 0 0 1-6.596 2.076z"/></symbol><symbol id="sync" viewBox="0 0 32 32"><path fill="#444" d="M31.212 13.061a1.25 1.25 0 0 0-1.768 0l-.669.669C27.639 7.709 22.353 3.155 16.002 3.155c-5.03 0-9.392 2.856-11.553 7.035-.15.29-.134.261-.156.312l-.003.007-.001.003a1.25 1.25 0 0 0 2.258 1.068 10.524 10.524 0 0 1 2.032-2.85c1.983-1.983 4.62-3.075 7.425-3.075s5.441 1.092 7.425 3.075a10.425 10.425 0 0 1 2.819 5.106l-.817-.817a1.25 1.25 0 0 0-1.768 1.768l2.884 2.884c.251.251.583.372.912.365.329.007.66-.114.911-.365l2.844-2.843a1.25 1.25 0 0 0 0-1.768zM26.562 20.066c-.479 0-.894.269-1.104.664a10.529 10.529 0 0 1-2.032 2.851c-1.983 1.983-4.62 3.075-7.425 3.075s-5.441-1.092-7.425-3.075a10.428 10.428 0 0 1-2.889-5.441l.915.915a1.25 1.25 0 0 0 1.768-1.768l-2.884-2.884a1.248 1.248 0 0 0-.912-.365 1.246 1.246 0 0 0-.911.365L.819 17.247a1.25 1.25 0 0 0 1.768 1.768l.609-.609c1.065 6.108 6.393 10.751 12.805 10.751 5.03 0 9.392-2.856 11.553-7.035.15-.29.134-.261.157-.313l.003-.007.001-.003a1.25 1.25 0 0 0-1.153-1.732zm-21.987-3.04l.026.026-.044-.008.018-.018z"/></symbol><symbol id="tablet" viewBox="0 0 32 32"><path fill="#444" d="M6.251 29h19.501a1.25 1.25 0 0 0 1.25-1.25V4.253c0-.69-.56-1.25-1.25-1.25H6.251c-.691 0-1.25.56-1.25 1.25V27.75c0 .69.56 1.25 1.25 1.25zM16 27.444a1 1 0 1 1 0-2 1 1 0 0 1 0 2zM7.501 5.502h17.001v18.497H7.501V5.502z"/></symbol><symbol id="thumbs-up" viewBox="0 0 32 32"><path fill="#444" d="M8.03 24a.967.967 0 0 0-.296-.704c-.198-.198-.432-.296-.703-.296s-.506.099-.704.296c-.198.198-.296.433-.296.704s.099.506.296.704c.198.196.432.296.704.296s.505-.097.703-.296A.963.963 0 0 0 8.03 24zm18-9c0-.531-.202-.997-.608-1.398S24.552 13 24.031 13h-5.499c0-.604.249-1.434.75-2.491.499-1.057.749-1.893.749-2.508 0-1.02-.167-1.775-.5-2.265s-1-.734-1.999-.734c-.272.27-.469.713-.595 1.328-.126.615-.284 1.269-.477 1.961s-.502 1.262-.93 1.711c-.229.24-.63.713-1.203 1.422-.041.052-.161.208-.36.469s-.362.474-.493.641c-.13.166-.31.387-.539.663s-.438.506-.625.689c-.187.181-.388.367-.602.555s-.422.328-.625.421c-.202.094-.387.14-.555.141h-.499v10h.499c.135 0 .3.015.493.047s.365.065.515.102c.15.036.349.093.594.171s.428.138.547.179l.555.195c.251.088.402.143.453.165 2.198.76 3.978 1.141 5.344 1.141h1.89c2 0 3.001-.87 3.001-2.609 0-.271-.026-.563-.079-.875.313-.167.561-.44.742-.821s.273-.763.274-1.148c0-.386-.094-.745-.282-1.078.552-.521.829-1.14.829-1.859 0-.26-.053-.549-.157-.866-.104-.319-.234-.566-.39-.743.332-.01.611-.255.835-.734s.336-.901.336-1.265v-.002zm2.001-.015c0 .926-.256 1.775-.766 2.547.093.344.14.702.14 1.078 0 .802-.198 1.552-.594 2.25.032.219.047.443.047.671 0 1.053-.313 1.98-.936 2.782.01 1.448-.432 2.591-1.329 3.43s-2.079 1.258-3.547 1.258h-2.017c-1 0-1.986-.117-2.961-.352s-2.101-.575-3.382-1.024c-1.208-.416-1.927-.624-2.156-.624h-4.5c-.552 0-1.023-.197-1.414-.587S4.03 25.552 4.03 25v-9.999c0-.552.195-1.023.586-1.413s.862-.587 1.414-.587h4.281c.375-.25 1.088-1.057 2.14-2.421a30.174 30.174 0 0 1 1.672-2c.25-.26.435-.706.555-1.336s.278-1.288.477-1.976c.199-.687.521-1.25.969-1.687.406-.386.875-.579 1.407-.579.875 0 1.661.169 2.358.508s1.229.867 1.593 1.587c.366.719.547 1.687.547 2.905 0 .969-.25 1.969-.749 3.001h2.75c1.083 0 2.02.395 2.811 1.187s1.188 1.723 1.188 2.797l.002.002z"/></symbol><symbol id="time" viewBox="0 0 32 32"><path fill="#444" d="M16 2C8.268 2 2 8.268 2 16s6.268 14 14 14 14-6.268 14-14S23.732 2 16 2zm8.132 22.132C21.96 26.304 19.072 27.5 16 27.5s-5.96-1.196-8.132-3.368C5.696 21.96 4.5 19.072 4.5 16s1.196-5.96 3.368-8.132C10.04 5.696 12.928 4.5 16 4.5s5.96 1.196 8.132 3.368C26.304 10.04 27.5 12.928 27.5 16s-1.196 5.96-3.368 8.132z"/><path fill="#444" d="M22.75 14.906h-5.5V7.25a1.25 1.25 0 0 0-2.5 0v8.906c0 .428.215.805.543 1.031l.008.006a1.194 1.194 0 0 0 .104.062l.054.026c.018.009.037.019.056.027l.012.004c.146.06.307.094.475.094h6.75a1.25 1.25 0 0 0 0-2.5z"/></symbol><symbol id="timer" viewBox="0 0 32 32"><path fill="#444" d="M18 16.896a2 2 0 1 1-3.246-1.564V9.288a1.25 1.25 0 0 1 2.5 0v6.051c.455.367.746.928.746 1.558zm11.01.102C29.01 24.179 23.189 30 16.008 30S3.006 24.179 3.006 16.998c0-6.758 5.156-12.311 11.749-12.942l.006-1.556h-.511a1.25 1.25 0 0 1 0-2.5h3.5a1.25 1.25 0 0 1 0 2.5h-.489l-.006 1.556a12.939 12.939 0 0 1 6.482 2.486l1.308-1.308a1.25 1.25 0 0 1 1.768 1.768l-1.216 1.216a12.956 12.956 0 0 1 3.413 8.78zm-2.5 0c0-2.805-1.092-5.442-3.076-7.426s-4.621-3.076-7.426-3.076c-2.805 0-5.442 1.092-7.426 3.076s-3.076 4.621-3.076 7.426c0 2.805 1.092 5.442 3.076 7.426s4.621 3.076 7.426 3.076c2.805 0 5.443-1.092 7.426-3.076s3.076-4.621 3.076-7.426z"/></symbol><symbol id="transfer" viewBox="0 0 32 32"><path fill="#444" d="M28.635 9.13l-3.906-3.92a1.25 1.25 0 0 0-1.771 1.765l1.781 1.788H4.249a1.25 1.25 0 0 0 0 2.5h20.477l-1.766 1.761a1.25 1.25 0 1 0 1.766 1.77l3.906-3.896a1.25 1.25 0 0 0 .003-1.767zM3.365 22.872l3.906 3.92a1.25 1.25 0 0 0 1.771-1.765l-1.781-1.788h20.49a1.25 1.25 0 0 0 0-2.5H7.274l1.766-1.762a1.25 1.25 0 1 0-1.766-1.77l-3.906 3.896a1.25 1.25 0 0 0-.003 1.767z"/></symbol><symbol id="trash" viewBox="0 0 32 32"><path fill="#444" d="M28.734 7.038H22V3.286a1.249 1.249 0 0 0-1.25-1.25h-9.5A1.25 1.25 0 0 0 10 3.286v3.753H3.25a1.25 1.25 0 0 0 0 2.5h.851l1.685 19.247h.007c0 .69.56 1.25 1.25 1.25h17.918c.69 0 1.25-.56 1.25-1.25h.005l1.685-19.247h.835a1.25 1.25 0 0 0 0-2.5zM12.5 4.535h7v2.503h-7V4.535zm11.314 23H8.185L6.61 9.538h18.78l-1.576 17.997z"/><path fill="#444" d="M21 23.035c.69 0 1.25-.56 1.25-1.25v-7.5a1.25 1.25 0 0 0-2.5 0v7.5c0 .69.56 1.25 1.25 1.25zM11 23.035c.69 0 1.25-.56 1.25-1.25v-7.5a1.25 1.25 0 0 0-2.5 0v7.5c0 .69.56 1.25 1.25 1.25zM16 23.035c.69 0 1.25-.56 1.25-1.25v-7.5a1.25 1.25 0 0 0-2.5 0v7.5c0 .69.56 1.25 1.25 1.25z"/></symbol><symbol id="twitter" viewBox="0 0 32 32"><path fill="#444" d="M30 7.285c-1.03.457-2.138.766-3.3.904a5.77 5.77 0 0 0 2.527-3.178 11.524 11.524 0 0 1-3.648 1.394 5.74 5.74 0 0 0-4.194-1.814 5.744 5.744 0 0 0-5.595 7.053A16.313 16.313 0 0 1 3.95 5.642a5.72 5.72 0 0 0-.778 2.888 5.743 5.743 0 0 0 2.556 4.782 5.73 5.73 0 0 1-2.602-.718l-.001.073A5.75 5.75 0 0 0 7.732 18.3a5.762 5.762 0 0 1-2.594.099 5.75 5.75 0 0 0 5.366 3.988 11.525 11.525 0 0 1-7.135 2.459c-.463 0-.92-.027-1.37-.08a16.264 16.264 0 0 0 8.806 2.58c10.566 0 16.344-8.753 16.344-16.344 0-.25-.005-.497-.017-.743a11.665 11.665 0 0 0 2.867-2.974z"/></symbol><symbol id="unlock" viewBox="0 0 32 32"><path fill="#444" d="M28.001 28.61V14.001c0-.062-.006-.123-.015-.182-.003-.023-.006-.047-.011-.07a1.246 1.246 0 0 0-.318-.607l-.023-.025a.695.695 0 0 0-.049-.044l-.04-.037c-.009-.008-.019-.014-.028-.021a1.226 1.226 0 0 0-.327-.183 1.236 1.236 0 0 0-.44-.081H9.494v-1.745a6.512 6.512 0 0 1 6.505-6.505 6.515 6.515 0 0 1 5.991 3.972l.001.002a1.25 1.25 0 0 0 2.406-.474c0-.147-.027-.288-.074-.419a.605.605 0 0 0-.024-.072 9.006 9.006 0 0 0-17.305 3.495v1.746H5.28a1.25 1.25 0 0 0-1.25 1.25V28.48a1.25 1.25 0 0 0 1.22 1.521h21.508A1.25 1.25 0 0 0 28 28.61zM6.531 15.251h18.97v12.25H6.531v-12.25z"/><path fill="#444" d="M18.001 20.063a2 2 0 1 0-3.246 1.564v1.812a1.25 1.25 0 0 0 2.5 0v-1.818c.455-.367.746-.928.746-1.557z"/></symbol><symbol id="upload" viewBox="0 0 32 32"><path fill="#444" d="M4.5 16c0-3.072 1.196-5.96 3.368-8.132S12.928 4.5 16 4.5s5.96 1.196 8.132 3.368S27.5 12.928 27.5 16s-1.196 5.96-3.368 8.132S19.072 27.5 16 27.5s-5.96-1.196-8.132-3.368S4.5 19.072 4.5 16zM2 16c0 7.732 6.268 14 14 14s14-6.268 14-14S23.732 2 16 2 2 8.268 2 16zm13.166-7.638l-3.92 3.906a1.25 1.25 0 0 0 1.765 1.771l1.788-1.781v10.49a1.25 1.25 0 0 0 2.5 0V12.271l1.762 1.766a1.25 1.25 0 1 0 1.77-1.766l-3.896-3.906a1.25 1.25 0 0 0-1.767-.003z"/></symbol><symbol id="user-add" viewBox="0 0 32 32"><path fill="#444" d="M12.221 27.724a21.352 21.352 0 0 0 9.708-2.311v-.47c0-2.937-6.073-5.616-7.699-5.875-.505-.08-.517-1.469-.517-1.469s1.484-1.469 1.807-3.444c.87 0 1.407-2.1.537-2.838.036-.778 1.118-6.104-4.358-6.104s-4.395 5.327-4.358 6.104c-.87.739-.333 2.838.537 2.838.323 1.975 1.807 3.444 1.807 3.444s-.011 1.388-.516 1.469c-1.609.256-7.57 2.881-7.696 5.782a21.369 21.369 0 0 0 10.749 2.874zM28.439 10.469h-2.5v-2.5a1.25 1.25 0 0 0-2.5 0v2.5h-2.5a1.25 1.25 0 0 0 0 2.5h2.5v2.5a1.25 1.25 0 0 0 2.5 0v-2.5h2.5a1.25 1.25 0 0 0 0-2.5z"/></symbol><symbol id="user-alt" viewBox="0 0 32 32"><path fill="#444" d="M16.647 30a26.585 26.585 0 0 0 12.076-2.874v-.585c0-3.654-7.554-6.985-9.577-7.307-.628-.1-.642-1.827-.642-1.827s1.845-1.827 2.248-4.283c1.082 0 1.75-2.612.668-3.53.045-.967 1.391-7.593-5.421-7.593s-5.466 6.626-5.421 7.593c-1.082.919-.414 3.53.668 3.53.402 2.457 2.247 4.283 2.247 4.283s-.014 1.727-.642 1.827c-2.001.318-9.416 3.584-9.573 7.191A26.566 26.566 0 0 0 16.648 30z"/></symbol><symbol id="user" viewBox="0 0 32 32"><path fill="#444" d="M16.002 2.033c-7.732 0-14 6.268-14 14s6.268 14 14 14 14-6.268 14-14-6.268-14-14-14zm8.258 22.002c-1.731-1.704-4.857-2.996-5.922-3.165-.466-.074-.477-1.356-.477-1.356s1.37-1.356 1.668-3.179c.803 0 1.299-1.938.496-2.62.034-.718 1.032-5.636-4.024-5.636s-4.057 4.918-4.024 5.636c-.803.682-.307 2.62.496 2.62.299 1.823 1.668 3.179 1.668 3.179s-.011 1.282-.477 1.356c-1.064.169-4.191 1.461-5.922 3.165A11.42 11.42 0 0 1 4.5 16.033c0-3.072 1.196-5.96 3.368-8.132S12.928 4.533 16 4.533s5.96 1.196 8.132 3.368a11.425 11.425 0 0 1 3.368 8.132 11.42 11.42 0 0 1-3.242 8.002z"/></symbol><symbol id="users" viewBox="0 0 32 32"><path fill="#444" d="M12.221 27.382a21.352 21.352 0 0 0 9.708-2.311v-.47c0-2.937-6.073-5.616-7.699-5.875-.505-.08-.517-1.469-.517-1.469s1.484-1.469 1.807-3.444c.87 0 1.407-2.1.537-2.838.036-.778 1.118-6.104-4.358-6.104s-4.395 5.327-4.358 6.104c-.87.739-.333 2.838.537 2.838.323 1.975 1.807 3.444 1.807 3.444s-.011 1.388-.516 1.469c-1.609.256-7.57 2.881-7.696 5.782a21.369 21.369 0 0 0 10.749 2.874z"/><path fill="#444" d="M30.532 20.382c0-2.019-4.175-3.86-5.293-4.038-.347-.055-.355-1.01-.355-1.01s1.02-1.01 1.242-2.367c.598 0 .967-1.443.369-1.951.025-.535.768-4.196-2.996-4.196s-3.021 3.662-2.996 4.196c-.598.508-.229 1.951.369 1.951.222 1.358 1.242 2.367 1.242 2.367s-.008.954-.355 1.01c-.724.115-2.728.927-4.051 2.033a19.94 19.94 0 0 1 1.908 1.037c.446.277.856.558 1.229.843 1.116.852 1.905 1.739 2.364 2.654l.261.003c2.431 0 4.799-.4 7.061-1.187v-1.346z"/></symbol><symbol id="video" viewBox="0 0 32 32"><path fill="#444" d="M28.939 8.543c-.299 0-.643.119-1.009.369l-5.929 4.059V8.25A1.249 1.249 0 0 0 20.751 7h-17.5a1.25 1.25 0 0 0-1.25 1.25v15.5c0 .69.56 1.25 1.25 1.25h17.5c.431 0 .812-.219 1.037-.551l.009-.014c.019-.029.038-.058.054-.089l.004-.008c.094-.175.147-.375.147-.588v-4.721l5.929 4.059c.366.25.71.369 1.009.369.628 0 1.054-.525 1.054-1.457V9.999c0-.932-.426-1.457-1.054-1.457zM19.501 22.5h-15v-13h15v13zm7.992-2.741L22.001 16l5.492-3.759v7.519z"/><path fill="#444" d="M7.521 20.735a1.25 1.25 0 0 1 0-2.5 1.25 1.25 0 0 1 0 2.5z"/></symbol><symbol id="watch" viewBox="0 0 32 32"><path d="M23.005 3.376a.625.625 0 0 0-.625-.625H9.621a.625.625 0 0 0 0 1.25H22.38c.345 0 .625-.28.625-.625zm0-1.802a.625.625 0 0 0-.625-.625H9.621a.625.625 0 0 0 0 1.25H22.38c.345 0 .625-.28.625-.625zm0 28.854a.625.625 0 0 0-.625-.625H9.621a.625.625 0 0 0 0 1.25H22.38c.345 0 .625-.28.625-.625zm0-1.802a.625.625 0 0 0-.625-.625H9.621a.625.625 0 0 0 0 1.25H22.38c.345 0 .625-.28.625-.625zm-.582-21.501c.591 0 1.071.473 1.071 1.055v15.641c0 .582-.481 1.055-1.071 1.055H9.566a1.064 1.064 0 0 1-1.071-1.055V8.18c0-.582.481-1.055 1.071-1.055h12.857zm0-2.5H9.566A3.563 3.563 0 0 0 5.995 8.18v15.641a3.563 3.563 0 0 0 3.571 3.555h12.857a3.563 3.563 0 0 0 3.571-3.555V8.18a3.563 3.563 0 0 0-3.571-3.555zm-1.172 11.36c0 .69-.56 1.25-1.25 1.25h-4c-.168 0-.328-.034-.475-.094l-.012-.004c-.019-.008-.037-.018-.056-.027l-.054-.026-.019-.011a1.47 1.47 0 0 1-.085-.051l-.008-.006a1.248 1.248 0 0 1-.543-1.031v-4.734a1.25 1.25 0 0 1 2.5 0v3.484h2.75c.69 0 1.25.56 1.25 1.25z"/></symbol><symbol id="wrench" viewBox="0 0 32 32"><path fill="#444" d="M29.982 8.57a1.25 1.25 0 0 0-2.14-.876l-1.88 1.88a1.25 1.25 0 0 1-1.768 0l-1.768-1.768a1.25 1.25 0 0 1 0-1.768l1.861-1.861a1.25 1.25 0 0 0-1.003-2.149h-.001a6.001 6.001 0 0 0-4.892 8.045L2.67 25.794a1.25 1.25 0 0 0-.125.149 2.5 2.5 0 0 0 3.661 3.387l15.721-15.721a6 6 0 0 0 8.044-4.883c.006-.051.011-.102.011-.155zM4.75 28.5a1.25 1.25 0 1 1 0-2.5 1.25 1.25 0 0 1 0 2.5z"/></symbol><symbol id="youtube" viewBox="0 0 32 32"><path fill="#444" d="M22 16c0-.385-.157-.667-.47-.844l-7.999-5c-.323-.208-.662-.219-1.016-.031-.343.187-.515.479-.515.875v10c0 .397.172.688.515.875.167.084.329.125.485.125a.884.884 0 0 0 .531-.156l7.999-5c.313-.178.47-.459.47-.843V16zm8 0c0 1-.005 1.781-.015 2.345-.01.562-.055 1.273-.133 2.133s-.196 1.627-.352 2.304c-.167.761-.526 1.402-1.078 1.922s-1.197.822-1.936.906c-2.312.261-5.807.391-10.485.391s-8.172-.131-10.484-.391c-.739-.083-1.388-.384-1.945-.906s-.919-1.162-1.086-1.922c-.146-.678-.258-1.445-.336-2.304s-.123-1.571-.133-2.133C2.006 17.781 2.001 17 2.001 16s.005-1.782.016-2.344c.01-.563.055-1.274.133-2.134.078-.859.196-1.628.352-2.305.167-.761.526-1.401 1.078-1.922s1.198-.823 1.937-.907c2.313-.26 5.807-.39 10.484-.39s8.172.13 10.485.39c.739.084 1.388.386 1.945.907s.919 1.161 1.085 1.922c.147.677.258 1.446.337 2.305.079.86.123 1.571.133 2.134S30.001 15 30.001 16z"/></symbol></svg>