<?xml version="1.0" encoding="utf-8"?>
<!-- Generator: Adobe Illustrator 21.0.2, SVG Export Plug-In . SVG Version: 6.00 Build 0)  -->
<svg version="1.1" id="Camada_1" xmlns="http://www.w3.org/2000/svg" xmlns:xlink="http://www.w3.org/1999/xlink" x="0px" y="0px"
	 viewBox="0 0 1024 1024" style="enable-background:new 0 0 1024 1024;" xml:space="preserve">
<style type="text/css">
	.st0{fill:#674CD8;}
	.st1{fill:#FFFFFF;stroke:#FFFFFF;stroke-width:22;stroke-miterlimit:10;}
</style>
<path class="st0" d="M781.9,987.7H242.1C108.9,987.7,0,878.8,0,745.7V274.1C0,140.9,108.9,32,242.1,32h539.8
	C915.1,32,1024,140.9,1024,274.1v471.6C1024,878.8,915.1,987.7,781.9,987.7z"/>
<g>
	<path class="st1" d="M331.7,159.6L206,710.7l-4.3,18.6c-4.1,17.5-6.2,32.3-6.2,44.5c0,9.9,1.8,17.9,5.5,24.1
		c3.7,6.2,8.2,9.3,13.6,9.3c9.9,0,25.6-11.8,47.3-35.4l7.6,6.7l-4.8,5.3c-18.2,21.4-31.5,35.8-40.1,43.3
		c-8.6,7.5-16.6,11.2-23.9,11.2c-9.6,0-17.9-5.3-25.1-16c-7.2-10.7-10.8-22.9-10.8-36.6c0-9.6,2.1-24.7,6.2-45.4L281.5,184
		L331.7,159.6z"/>
	<path class="st1" d="M489,759l8.6,7.2c-19.8,26.1-39,45-57.8,56.6c-18.8,11.6-39,17.5-60.7,17.5c-25.8,0-46.5-8.6-62.1-25.8
		c-15.6-17.2-23.4-40-23.4-68.3c0-28.7,7.6-57.8,22.7-87.2c15.1-29.5,34.1-53.8,56.9-73.1c22.8-19.3,45.3-28.9,67.6-28.9
		c13.1,0,23.8,3.8,32.3,11.5c8.4,7.6,12.7,17.5,12.7,29.6c0,24.5-13.4,49.1-40.1,73.6c-26.8,24.5-63.3,45.4-109.5,62.6
		c-0.3,2.6-0.5,5.4-0.5,8.6c0,22,6.1,39.9,18.2,53.8c12.1,13.9,27.7,20.8,46.8,20.8c15,0,29.5-4.7,43.5-14.1
		C458,793.8,473,779.1,489,759z M336,722.7c34.4-15.3,60.9-32.3,79.3-51.1c12.4-12.7,22.5-26.4,30.1-41.1
		c7.6-14.7,11.5-27.9,11.5-39.7c0-15-6.9-22.5-20.6-22.5c-20.7,0-41.7,16.3-62.9,49C352.3,650,339.8,685.1,336,722.7z"/>
	<path class="st1" d="M621.8,577.9L585.5,737c-3.8,17.5-5.7,30-5.7,37.3c0,11.5,2.7,20.7,8.1,27.7c5.4,7,12.6,10.5,21.5,10.5
		c8.6,0,16.5-2.5,23.7-7.4c7.2-4.9,18.1-15.2,32.7-30.8l5.7-5.7l7.2,7.2c-18.8,22.9-34.5,39.1-47.1,48.5
		c-12.6,9.4-24.9,14.1-37,14.1c-15.3,0-27.5-5-36.6-15.1c-9.1-10-13.6-23.2-13.6-39.4c0-12.1,2.4-29.6,7.2-52.6l31.1-153.4h-45.9
		l3.3-16.2H586l26.8-129.1l45.9-18.2l-33.5,147.2h77.4l-3.3,16.2H621.8z"/>
	<path class="st1" d="M679.7,802.5l26.8-31.5c14,33.1,36.3,49.7,66.9,49.7c15.9,0,29.6-5.2,40.9-15.5c11.3-10.4,17-22.4,17-36.1
		c0-9.9-2.7-18.3-8.1-25.3c-5.4-7-18.3-18.8-38.7-35.4c-18.8-15.3-31.5-27.3-38-36.1c-6.5-8.8-9.8-18.9-9.8-30.4
		c0-15,4.4-28.8,13.1-41.6c8.8-12.7,20.5-23,35.1-30.8c14.7-7.8,30.1-11.7,46.4-11.7c14.3,0,26.4,3.6,36.1,10.8
		c9.7,7.2,14.6,16.3,14.6,27.5c0,14.7-6.2,24.7-18.6,30.1c-1.9-15-7.6-26.7-17-35.1c-9.4-8.4-21.4-12.7-36.1-12.7
		c-13.1,0-24.5,4.2-34.2,12.7c-9.7,8.5-14.6,18.1-14.6,28.9c0,13.4,8.3,26.6,24.9,39.7l27.7,22.5c27.1,21.3,40.6,43.2,40.6,65.5
		c0,16.6-4.7,32.1-14.1,46.6c-9.4,14.5-22.2,26-38.2,34.7c-16.1,8.6-33.1,12.9-50.9,12.9C723,841.7,699.1,828.6,679.7,802.5z"/>
</g>
</svg>
